<svg width="132" height="146" viewBox="0 0 132 146" fill="none" xmlns="http://www.w3.org/2000/svg">
<g filter="url(#filter0_d_1_1704)">
<g clip-path="url(#clip0_1_1704)">
<rect x="13" y="5" width="111.381" height="125.696" rx="16.1033" fill="#FFDE7B"/>
<path d="M12.7188 116.481L69.8677 144.983L124.846 116.481V5.02344H12.7188V116.481Z" fill="white"/>
<path d="M126.005 5.44922L11.5625 118.466L70.8817 147.253L126.005 119.601V5.44922Z" fill="#F2F3F2"/>
<path d="M8.95312 42.1753V118.891L10.9787 119.883L68.1276 148.386L69.8638 149.237L71.5999 148.386L126.723 119.883L128.749 118.891V1.33594H8.95312V42.1753ZM12.7148 116.764V5.02282H124.987V116.764L69.8638 145.266L12.7148 116.764Z" fill="#DCDEDC"/>
<path d="M68.8581 6.86627C69.4368 6.86627 70.0156 6.86627 70.5943 7.00807L68.8581 10.2695C66.2539 10.1277 63.939 12.113 63.7943 14.6654C63.6496 17.2179 65.6751 19.4868 68.2794 19.6286H68.8581C70.0156 19.6286 71.173 19.2031 72.0411 18.4941L73.9219 21.6138C72.4751 22.6064 70.739 23.1736 68.8581 23.1736C64.2283 23.3154 60.3219 19.9122 60.1773 15.3745C60.0326 10.8368 63.5049 7.00807 68.1347 6.86627H68.8581ZM74.79 13.8146L76.9602 17.3597L74.79 20.763L72.7645 17.3597H68.5688L70.739 13.8146H74.79ZM71.3177 12.5384C71.3177 11.9712 71.4624 11.404 71.7517 10.9786C72.0411 10.5532 72.6198 10.1277 73.0539 9.84413L73.3432 9.70233C73.9219 9.41873 74.0666 9.27692 74.0666 8.99332C74.0666 8.70971 73.6326 8.4261 73.3432 8.4261C72.7645 8.4261 72.3305 8.70971 72.0411 9.27692L71.3177 8.5679C71.4624 8.2843 71.7517 8.00069 72.0411 7.71708C72.4751 7.43348 72.9092 7.43348 73.3432 7.43348C73.7773 7.43348 74.356 7.57528 74.6453 7.85889C74.9347 8.1425 75.2241 8.56791 75.2241 8.99332C75.2241 9.70233 74.79 10.2695 73.9219 10.5532L73.4879 10.8368C73.0539 11.1204 72.7645 11.2622 72.6198 11.6876H75.2241V12.6802L71.3177 12.5384ZM68.8581 30.2638L82.6028 22.6064V1.33594H54.9688V22.4646L68.8581 30.2638Z" fill="#FF492C"/>
<path d="M131.502 80.4629H6.20791L1.57812 90.3891L6.20791 100.315H131.502L135.987 90.3891L131.502 80.4629Z" fill="#FF492C"/>
<path d="M26.0289 59.1777C26.9838 59.1777 27.8229 59.3668 28.5463 59.7449C29.2697 60.1231 29.8291 60.6667 30.2246 61.3757C30.6201 62.0752 30.8178 62.8788 30.8178 63.7863C30.8178 64.6844 30.6152 65.4738 30.2101 66.1545C29.7954 66.8257 29.2167 67.3503 28.474 67.7285C27.7313 68.1066 26.8728 68.2957 25.8986 68.2957H22.8169C22.7494 68.2957 22.7157 68.3335 22.7157 68.4091V73.826C22.7157 73.9016 22.6867 73.9631 22.6289 74.0104C22.5806 74.0576 22.5179 74.0813 22.4408 74.0813H19.9089C19.8317 74.0813 19.769 74.0576 19.7208 74.0104C19.6726 73.9631 19.6484 73.9016 19.6484 73.826V59.433C19.6484 59.3574 19.6726 59.2959 19.7208 59.2486C19.769 59.2014 19.8317 59.1777 19.9089 59.1777H26.0289ZM25.5659 65.8992C26.2411 65.8992 26.7764 65.7101 27.1718 65.332C27.5769 64.9539 27.7795 64.4623 27.7795 63.8572C27.7795 63.2239 27.5769 62.7181 27.1718 62.3399C26.7764 61.9524 26.2411 61.7586 25.5659 61.7586H22.8169C22.7494 61.7586 22.7157 61.7964 22.7157 61.872V65.7858C22.7157 65.8614 22.7494 65.8992 22.8169 65.8992H25.5659ZM41.7701 67.4874C41.8473 68.0263 41.8714 68.6266 41.8425 69.2883C41.8328 69.4679 41.7412 69.5577 41.5676 69.5577H34.8689C34.7821 69.5577 34.7483 69.5908 34.7676 69.657C34.8158 69.9406 34.8978 70.2242 35.0135 70.5078C35.3897 71.3019 36.1565 71.699 37.314 71.699C38.2399 71.6895 38.9682 71.3208 39.4986 70.5929C39.5662 70.5078 39.6337 70.4653 39.7012 70.4653C39.7398 70.4653 39.788 70.4936 39.8459 70.5504L41.4084 72.0535C41.4856 72.1291 41.5242 72.1953 41.5242 72.252C41.5242 72.2804 41.4952 72.3371 41.4374 72.4222C40.9551 73.0083 40.3426 73.4573 39.5999 73.7693C38.8379 74.0907 38.0084 74.2514 37.1114 74.2514C35.8768 74.2514 34.8255 73.9773 33.9574 73.429C33.0989 72.8712 32.4816 72.096 32.1055 71.1034C31.7968 70.3944 31.6425 69.4679 31.6425 68.324C31.6425 67.5394 31.7534 66.8493 31.9752 66.2537C32.3128 65.2516 32.8964 64.4528 33.7259 63.8572C34.5554 63.2617 35.5392 62.9639 36.6774 62.9639C38.1242 62.9639 39.2865 63.3751 40.1642 64.1976C41.0419 65.02 41.5772 66.1166 41.7701 67.4874ZM36.7063 65.5589C35.79 65.5589 35.1872 65.9748 34.8978 66.8068C34.8399 66.9958 34.7917 67.2227 34.7531 67.4874C34.7531 67.5536 34.7917 67.5867 34.8689 67.5867H38.6161C38.7029 67.5867 38.7318 67.5536 38.7029 67.4874C38.6257 67.0809 38.5872 66.8824 38.5872 66.8918C38.4618 66.4664 38.2351 66.1355 37.9072 65.8992C37.5889 65.6723 37.1886 65.5589 36.7063 65.5589ZM49.2935 63.0064C49.8144 63.0064 50.2291 63.1057 50.5378 63.3042C50.6439 63.3609 50.6825 63.4649 50.6535 63.6162L50.205 66.041C50.1954 66.2112 50.0941 66.2632 49.9012 66.197C49.6794 66.1214 49.4286 66.0836 49.1489 66.0836C49.0331 66.0836 48.8691 66.0977 48.6569 66.1261C48.1457 66.1734 47.7069 66.3624 47.3404 66.6933C46.9835 67.0242 46.805 67.4685 46.805 68.0263V73.826C46.805 73.9016 46.7761 73.9631 46.7182 74.0104C46.67 74.0576 46.6121 74.0813 46.5446 74.0813H43.9982C43.9307 74.0813 43.868 74.0576 43.8101 74.0104C43.7619 73.9631 43.7378 73.9016 43.7378 73.826V63.4035C43.7378 63.3373 43.7619 63.2758 43.8101 63.2191C43.868 63.1719 43.9307 63.1482 43.9982 63.1482H46.5446C46.6121 63.1482 46.67 63.1719 46.7182 63.2191C46.7761 63.2758 46.805 63.3373 46.805 63.4035V64.2118C46.805 64.2496 46.8195 64.2779 46.8484 64.2968C46.8677 64.3157 46.887 64.3063 46.9063 64.2685C47.5043 63.4271 48.3001 63.0064 49.2935 63.0064ZM58.5386 63.134C58.6158 63.134 58.6785 63.1577 58.7267 63.2049C58.775 63.2522 58.7991 63.3137 58.7991 63.3893V65.4029C58.7991 65.4785 58.775 65.54 58.7267 65.5872C58.6785 65.6345 58.6158 65.6581 58.5386 65.6581H56.4408C56.3636 65.6581 56.325 65.6912 56.325 65.7574V73.826C56.325 73.9016 56.3009 73.9631 56.2527 74.0104C56.2045 74.0576 56.1418 74.0813 56.0646 74.0813H53.5327C53.4555 74.0813 53.3928 74.0576 53.3446 74.0104C53.2964 73.9631 53.2723 73.9016 53.2723 73.826V65.7574C53.2723 65.6912 53.2337 65.6581 53.1565 65.6581H51.8833C51.8062 65.6581 51.7435 65.6345 51.6952 65.5872C51.647 65.54 51.6229 65.4785 51.6229 65.4029V63.3893C51.6229 63.3137 51.647 63.2522 51.6952 63.2049C51.7435 63.1577 51.8062 63.134 51.8833 63.134H53.1565C53.2337 63.134 53.2723 63.0962 53.2723 63.0206V62.5527C53.2723 61.6735 53.4073 60.9881 53.6774 60.4965C53.9571 60.0144 54.4008 59.6693 55.0084 59.4613C55.6257 59.2534 56.4794 59.1636 57.5693 59.1919H58.394C58.4615 59.1919 58.5194 59.2155 58.5676 59.2628C58.6255 59.3195 58.6544 59.381 58.6544 59.4472V61.163C58.6544 61.2386 58.6255 61.3001 58.5676 61.3473C58.5194 61.404 58.4615 61.4324 58.394 61.4324H57.6706C57.169 61.4419 56.8169 61.5411 56.6144 61.7302C56.4215 61.9287 56.325 62.2832 56.325 62.7937V63.0206C56.325 63.0962 56.3636 63.134 56.4408 63.134H58.5386ZM64.8323 74.2514C63.6169 74.2514 62.5752 73.9395 61.7072 73.3155C60.8391 72.6916 60.2459 71.8408 59.9276 70.7631C59.725 70.1013 59.6238 69.3781 59.6238 68.5935C59.6238 67.7616 59.725 67.01 59.9276 66.3388C60.2652 65.2895 60.868 64.467 61.7361 63.8714C62.6042 63.2758 63.6459 62.9781 64.8612 62.9781C66.0379 62.9781 67.0507 63.2711 67.8995 63.8572C68.729 64.4528 69.3174 65.2753 69.6646 66.3246C69.9057 67.0336 70.0263 67.7757 70.0263 68.5509C70.0263 69.3167 69.925 70.0351 69.7225 70.7063C69.4042 71.8124 68.811 72.6774 67.9429 73.3013C67.0845 73.9347 66.0476 74.2514 64.8323 74.2514ZM64.8323 71.6848C65.3049 71.6848 65.71 71.543 66.0476 71.2594C66.3852 70.9758 66.6263 70.5834 66.771 70.0824C66.8771 69.6286 66.9301 69.1323 66.9301 68.5935C66.9301 67.9979 66.8771 67.4969 66.771 67.0904C66.607 66.6082 66.3611 66.2301 66.0331 65.9559C65.6955 65.6912 65.2856 65.5589 64.8033 65.5589C64.3211 65.5589 63.916 65.6912 63.588 65.9559C63.2601 66.2301 63.0238 66.6082 62.8791 67.0904C62.7633 67.4212 62.7055 67.9223 62.7055 68.5935C62.7055 69.2363 62.7585 69.7326 62.8646 70.0824C63.0093 70.5834 63.2504 70.9758 63.588 71.2594C63.9256 71.543 64.3404 71.6848 64.8323 71.6848ZM77.5497 63.0064C78.0706 63.0064 78.4853 63.1057 78.794 63.3042C78.9097 63.3609 78.9483 63.4649 78.9097 63.6162L78.4612 66.041C78.4516 66.2112 78.3503 66.2632 78.1574 66.197C77.9355 66.1214 77.6847 66.0836 77.405 66.0836C77.2893 66.0836 77.1301 66.0977 76.9276 66.1261C76.4067 66.1734 75.963 66.3624 75.5965 66.6933C75.2396 67.0242 75.0612 67.4685 75.0612 68.0263V73.826C75.0612 73.9016 75.0323 73.9631 74.9744 74.0104C74.9262 74.0576 74.8635 74.0813 74.7863 74.0813H72.2544C72.1869 74.0813 72.1242 74.0576 72.0663 74.0104C72.0181 73.9631 71.994 73.9016 71.994 73.826V63.4035C71.994 63.3373 72.0181 63.2758 72.0663 63.2191C72.1242 63.1719 72.1869 63.1482 72.2544 63.1482H74.7863C74.8635 63.1482 74.9262 63.1719 74.9744 63.2191C75.0323 63.2758 75.0612 63.3373 75.0612 63.4035V64.2118C75.0612 64.2496 75.0708 64.2779 75.0901 64.2968C75.1287 64.3157 75.1528 64.3063 75.1625 64.2685C75.7605 63.4271 76.5562 63.0064 77.5497 63.0064ZM92.6689 62.9781C93.7974 62.9781 94.6799 63.3089 95.3165 63.9707C95.9531 64.6419 96.2714 65.5825 96.2714 66.7926V73.826C96.2714 73.9016 96.2473 73.9631 96.1991 74.0104C96.1508 74.0576 96.093 74.0813 96.0255 74.0813H93.4791C93.4116 74.0813 93.3489 74.0576 93.291 74.0104C93.2428 73.9631 93.2186 73.9016 93.2186 73.826V67.4449C93.2186 66.8682 93.0691 66.4097 92.7701 66.0694C92.4615 65.729 92.0516 65.5589 91.5403 65.5589C91.0388 65.5589 90.6289 65.729 90.3106 66.0694C89.9923 66.4097 89.8331 66.8635 89.8331 67.4307V73.826C89.8331 73.9016 89.809 73.9631 89.7608 74.0104C89.7029 74.0576 89.6402 74.0813 89.5727 74.0813H87.0552C86.9781 74.0813 86.9154 74.0576 86.8672 74.0104C86.8189 73.9631 86.7948 73.9016 86.7948 73.826V67.4449C86.7948 66.8777 86.6357 66.4192 86.3174 66.0694C85.9991 65.729 85.5843 65.5589 85.0731 65.5589C84.6198 65.5589 84.234 65.6912 83.9157 65.9559C83.607 66.2301 83.4238 66.6082 83.3659 67.0904V73.826C83.3659 73.9016 83.3418 73.9631 83.2935 74.0104C83.2357 74.0576 83.173 74.0813 83.1055 74.0813H80.5735C80.4964 74.0813 80.4337 74.0576 80.3855 74.0104C80.3372 73.9631 80.3131 73.9016 80.3131 73.826V63.4035C80.3131 63.3373 80.3372 63.2758 80.3855 63.2191C80.4337 63.1719 80.4964 63.1482 80.5735 63.1482H83.1055C83.173 63.1482 83.2357 63.1719 83.2935 63.2191C83.3418 63.2758 83.3659 63.3373 83.3659 63.4035V64.2401C83.3659 64.2779 83.3803 64.3063 83.4093 64.3252C83.4382 64.3346 83.4672 64.3157 83.4961 64.2685C84.0941 63.4082 85.0152 62.9781 86.2595 62.9781C86.9829 62.9781 87.6147 63.1293 88.1548 63.4318C88.695 63.7249 89.1097 64.1503 89.3991 64.7081C89.4377 64.7931 89.4907 64.7931 89.5582 64.7081C89.8669 64.1219 90.2961 63.6871 90.8459 63.4035C91.386 63.1199 91.9937 62.9781 92.6689 62.9781ZM108.237 67.4874C108.323 68.0263 108.352 68.6266 108.323 69.2883C108.304 69.4679 108.208 69.5577 108.034 69.5577H101.335C101.248 69.5577 101.219 69.5908 101.248 69.657C101.287 69.9406 101.364 70.2242 101.48 70.5078C101.856 71.3019 102.623 71.699 103.78 71.699C104.706 71.6895 105.439 71.3208 105.979 70.5929C106.037 70.5078 106.1 70.4653 106.168 70.4653C106.216 70.4653 106.269 70.4936 106.327 70.5504L107.889 72.0535C107.957 72.1291 107.991 72.1953 107.991 72.252C107.991 72.2804 107.962 72.3371 107.904 72.4222C107.431 73.0083 106.819 73.4573 106.066 73.7693C105.314 74.0907 104.489 74.2514 103.592 74.2514C102.348 74.2514 101.297 73.9773 100.438 73.429C99.5701 72.8712 98.948 72.096 98.5718 71.1034C98.2728 70.3944 98.1233 69.4679 98.1233 68.324C98.1233 67.5394 98.2294 66.8493 98.4416 66.2537C98.7792 65.2516 99.3628 64.4528 100.192 63.8572C101.022 63.2617 102.01 62.9639 103.158 62.9639C104.605 62.9639 105.767 63.3751 106.645 64.1976C107.523 65.02 108.053 66.1166 108.237 67.4874ZM103.173 65.5589C102.266 65.5589 101.668 65.9748 101.379 66.8068C101.321 66.9958 101.268 67.2227 101.219 67.4874C101.219 67.5536 101.258 67.5867 101.335 67.5867H105.082C105.169 67.5867 105.198 67.5536 105.169 67.4874C105.102 67.0809 105.068 66.8824 105.068 66.8918C104.933 66.4664 104.706 66.1355 104.388 65.8992C104.06 65.6723 103.655 65.5589 103.173 65.5589ZM115.76 63.0064C116.281 63.0064 116.696 63.1057 117.004 63.3042C117.12 63.3609 117.163 63.4649 117.134 63.6162L116.686 66.041C116.667 66.2112 116.561 66.2632 116.368 66.197C116.155 66.1214 115.905 66.0836 115.615 66.0836C115.5 66.0836 115.34 66.0977 115.138 66.1261C114.617 66.1734 114.173 66.3624 113.807 66.6933C113.45 67.0242 113.271 67.4685 113.271 68.0263V73.826C113.271 73.9016 113.247 73.9631 113.199 74.0104C113.141 74.0576 113.079 74.0813 113.011 74.0813H110.465C110.397 74.0813 110.339 74.0576 110.291 74.0104C110.233 73.9631 110.204 73.9016 110.204 73.826V63.4035C110.204 63.3373 110.233 63.2758 110.291 63.2191C110.339 63.1719 110.397 63.1482 110.465 63.1482H113.011C113.079 63.1482 113.141 63.1719 113.199 63.2191C113.247 63.2758 113.271 63.3373 113.271 63.4035V64.2118C113.271 64.2496 113.286 64.2779 113.315 64.2968C113.344 64.3157 113.368 64.3063 113.387 64.2685C113.976 63.4271 114.766 63.0064 115.76 63.0064Z" fill="#252530"/>
<path d="M56.0642 38.1757C56.0642 38.1095 56.0883 38.0481 56.1366 37.9914C56.1848 37.9441 56.2427 37.9205 56.3102 37.9205H58.8566C58.9241 37.9205 58.9868 37.9441 59.0446 37.9914C59.0929 38.0481 59.117 38.1095 59.117 38.1757V52.5546C59.117 52.6302 59.0929 52.6916 59.0446 52.7389C58.9868 52.7862 58.9241 52.8098 58.8566 52.8098H56.3102C56.2427 52.8098 56.1848 52.7862 56.1366 52.7389C56.0883 52.6916 56.0642 52.6302 56.0642 52.5546V46.6839C56.0642 46.6177 56.0256 46.5846 55.9485 46.5846H51.1451C51.0776 46.5846 51.0438 46.6177 51.0438 46.6839V52.5546C51.0438 52.6302 51.0197 52.6916 50.9715 52.7389C50.9136 52.7862 50.8509 52.8098 50.7834 52.8098H48.237C48.1695 52.8098 48.1116 52.7862 48.0634 52.7389C48.0055 52.6916 47.9766 52.6302 47.9766 52.5546V38.1757C47.9766 38.1095 48.0055 38.0481 48.0634 37.9914C48.1116 37.9441 48.1695 37.9205 48.237 37.9205H50.7834C50.8509 37.9205 50.9136 37.9441 50.9715 37.9914C51.0197 38.0481 51.0438 38.1095 51.0438 38.1757V43.8904C51.0438 43.966 51.0776 44.0038 51.1451 44.0038H55.9485C56.0256 44.0038 56.0642 43.966 56.0642 43.8904V38.1757ZM63.0668 40.6431C62.5749 40.6431 62.1649 40.4824 61.837 40.161C61.509 39.849 61.3451 39.4519 61.3451 38.9698C61.3451 38.4688 61.5042 38.0623 61.8225 37.7503C62.1408 37.4383 62.5556 37.2823 63.0668 37.2823C63.578 37.2823 63.9927 37.4383 64.311 37.7503C64.6293 38.0623 64.7885 38.4688 64.7885 38.9698C64.7885 39.4519 64.6245 39.849 64.2966 40.161C63.9686 40.4824 63.5587 40.6431 63.0668 40.6431ZM61.7646 52.8098C61.6971 52.8098 61.6344 52.7862 61.5766 52.7389C61.5283 52.6916 61.5042 52.6302 61.5042 52.5546V42.1178C61.5042 42.0422 61.5283 41.9808 61.5766 41.9335C61.6344 41.8862 61.6971 41.8626 61.7646 41.8626H64.311C64.3785 41.8626 64.4364 41.8862 64.4846 41.9335C64.5425 41.9808 64.5715 42.0422 64.5715 42.1178V52.5546C64.5715 52.6302 64.5425 52.6916 64.4846 52.7389C64.4364 52.7862 64.3785 52.8098 64.311 52.8098H61.7646ZM73.7587 42.132C73.7587 42.0658 73.7876 42.0044 73.8455 41.9477C73.8937 41.9004 73.9516 41.8768 74.0191 41.8768H76.5655C76.633 41.8768 76.6957 41.9004 76.7536 41.9477C76.8018 42.0044 76.8259 42.0658 76.8259 42.132V51.8314C76.8259 53.6843 76.281 55.0078 75.191 55.8019C74.1011 56.6054 72.6929 57.0072 70.9663 57.0072C70.4551 57.0072 69.8909 56.9694 69.2736 56.8937C69.1289 56.8748 69.0566 56.785 69.0566 56.6243L69.1434 54.4264C69.1434 54.2373 69.2446 54.1569 69.4472 54.1853C69.9681 54.2704 70.4455 54.3129 70.8795 54.3129C71.8055 54.3129 72.5193 54.1191 73.0208 53.7315C73.5127 53.325 73.7587 52.6869 73.7587 51.8172C73.7587 51.7699 73.7442 51.7416 73.7153 51.7321C73.6863 51.7226 73.6574 51.7368 73.6285 51.7746C73.0787 52.3513 72.2781 52.6396 71.2268 52.6396C70.2815 52.6396 69.4183 52.4175 68.637 51.9732C67.8461 51.5289 67.2818 50.8104 66.9442 49.8178C66.732 49.1655 66.6259 48.3194 66.6259 47.2795C66.6259 46.1734 66.7561 45.2753 67.0166 44.5852C67.3156 43.7155 67.8268 43.0207 68.5502 42.5007C69.2736 41.9713 70.1176 41.7066 71.0821 41.7066C72.1913 41.7066 73.0401 42.0328 73.6285 42.6851C73.6574 42.7134 73.6863 42.7229 73.7153 42.7134C73.7442 42.704 73.7587 42.6803 73.7587 42.6425V42.132ZM73.5851 48.9953C73.7008 48.5793 73.7587 47.9979 73.7587 47.2511C73.7587 46.8163 73.7442 46.4807 73.7153 46.2443C73.6863 45.9985 73.6381 45.7669 73.5706 45.5495C73.4356 45.1713 73.2185 44.8641 72.9195 44.6278C72.6205 44.4009 72.2444 44.2874 71.791 44.2874C71.357 44.2874 70.9905 44.4009 70.6915 44.6278C70.3828 44.8641 70.1561 45.1713 70.0115 45.5495C69.8089 45.9749 69.7076 46.5516 69.7076 47.2795C69.7076 48.0736 69.7944 48.6408 69.9681 48.9811C70.0934 49.3687 70.3201 49.676 70.6481 49.9028C70.976 50.1392 71.3618 50.2573 71.8055 50.2573C72.2685 50.2573 72.6543 50.1392 72.9629 49.9028C73.262 49.676 73.4693 49.3734 73.5851 48.9953ZM84.8412 41.7066C85.9987 41.7066 86.9295 42.0564 87.6336 42.756C88.3377 43.4461 88.6898 44.3867 88.6898 45.5778V52.5546C88.6898 52.6302 88.6656 52.6916 88.6174 52.7389C88.5692 52.7862 88.5113 52.8098 88.4438 52.8098H85.8974C85.8299 52.8098 85.7672 52.7862 85.7093 52.7389C85.6611 52.6916 85.637 52.6302 85.637 52.5546V46.1876C85.637 45.6298 85.473 45.1713 85.1451 44.8121C84.8268 44.4623 84.3976 44.2874 83.8574 44.2874C83.3269 44.2874 82.8977 44.4623 82.5698 44.8121C82.2418 45.1713 82.0778 45.6298 82.0778 46.1876V52.5546C82.0778 52.6302 82.0537 52.6916 82.0055 52.7389C81.9573 52.7862 81.8946 52.8098 81.8174 52.8098H79.2855C79.2083 52.8098 79.1456 52.7862 79.0974 52.7389C79.0492 52.6916 79.0251 52.6302 79.0251 52.5546V38.1757C79.0251 38.1095 79.0492 38.0481 79.0974 37.9914C79.1456 37.9441 79.2083 37.9205 79.2855 37.9205H81.8174C81.8946 37.9205 81.9573 37.9441 82.0055 37.9914C82.0537 38.0481 82.0778 38.1095 82.0778 38.1757V42.8836C82.0778 42.9214 82.0923 42.9498 82.1212 42.9687C82.1502 42.9781 82.1695 42.9687 82.1791 42.9403C82.7771 42.1178 83.6645 41.7066 84.8412 41.7066Z" fill="#252530"/>
<path d="M59.5387 87.241C59.5387 87.2883 59.5194 87.3261 59.4808 87.3545C59.4519 87.3923 59.4133 87.4112 59.3651 87.4112H54.446C54.3977 87.4112 54.3736 87.4348 54.3736 87.4821V90.1338C54.3736 90.1811 54.3977 90.2047 54.446 90.2047H57.7591C57.8074 90.2047 57.8508 90.2189 57.8894 90.2473C57.9183 90.2851 57.9328 90.3276 57.9328 90.3749V91.4526C57.9328 91.4999 57.9183 91.5424 57.8894 91.5802C57.8508 91.6086 57.8074 91.6228 57.7591 91.6228H54.446C54.3977 91.6228 54.3736 91.6464 54.3736 91.6937V95.7492C54.3736 95.7965 54.3543 95.8343 54.3157 95.8627C54.2868 95.9005 54.2482 95.9194 54.2 95.9194H52.8689C52.8207 95.9194 52.7821 95.9005 52.7532 95.8627C52.7146 95.8343 52.6953 95.7965 52.6953 95.7492V86.1633C52.6953 86.1161 52.7146 86.0782 52.7532 86.0499C52.7821 86.0121 52.8207 85.9932 52.8689 85.9932H59.3651C59.4133 85.9932 59.4519 86.0121 59.4808 86.0499C59.5194 86.0782 59.5387 86.1161 59.5387 86.1633V87.241ZM66.1362 95.9194C66.0397 95.9194 65.977 95.8721 65.9481 95.7776L65.4706 94.2603C65.4513 94.2225 65.4272 94.2036 65.3983 94.2036H61.5787C61.5498 94.2036 61.5257 94.2225 61.5064 94.2603L61.0289 95.7776C61 95.8721 60.9373 95.9194 60.8408 95.9194H59.394C59.3362 95.9194 59.2928 95.9005 59.2638 95.8627C59.2349 95.8343 59.2301 95.787 59.2494 95.7209L62.3889 86.135C62.4179 86.0404 62.4806 85.9932 62.577 85.9932H64.3855C64.482 85.9932 64.5447 86.0404 64.5736 86.135L67.7277 95.7209C67.7373 95.7398 67.7421 95.7634 67.7421 95.7918C67.7421 95.8769 67.6891 95.9194 67.583 95.9194H66.1362ZM61.9549 92.8281C61.9452 92.8848 61.9645 92.9132 62.0128 92.9132H64.9498C65.0077 92.9132 65.0269 92.8848 65.0077 92.8281L63.5174 88.0777C63.5078 88.0399 63.4933 88.021 63.474 88.021C63.4547 88.021 63.4403 88.0399 63.4306 88.0777L61.9549 92.8281ZM69.4059 95.9194C69.3577 95.9194 69.3191 95.9005 69.2902 95.8627C69.2516 95.8343 69.2323 95.7965 69.2323 95.7492V86.1633C69.2323 86.1161 69.2516 86.0782 69.2902 86.0499C69.3191 86.0121 69.3577 85.9932 69.4059 85.9932H70.737C70.7852 85.9932 70.8286 86.0121 70.8672 86.0499C70.8962 86.0782 70.9106 86.1161 70.9106 86.1633V94.4305C70.9106 94.4777 70.9347 94.5014 70.983 94.5014H75.8298C75.878 94.5014 75.9166 94.5203 75.9455 94.5581C75.9841 94.5864 76.0034 94.6243 76.0034 94.6715V95.7492C76.0034 95.7965 75.9841 95.8343 75.9455 95.8627C75.9166 95.9005 75.878 95.9194 75.8298 95.9194H69.4059ZM77.6672 95.9194C77.619 95.9194 77.5804 95.9005 77.5515 95.8627C77.5129 95.8343 77.4936 95.7965 77.4936 95.7492V86.1633C77.4936 86.1161 77.5129 86.0782 77.5515 86.0499C77.5804 86.0121 77.619 85.9932 77.6672 85.9932H78.9983C79.0465 85.9932 79.0899 86.0121 79.1285 86.0499C79.1574 86.0782 79.1719 86.1161 79.1719 86.1633V94.4305C79.1719 94.4777 79.196 94.5014 79.2442 94.5014H84.0911C84.1393 94.5014 84.1827 94.5203 84.2213 94.5581C84.2502 94.5864 84.2647 94.6243 84.2647 94.6715V95.7492C84.2647 95.7965 84.2502 95.8343 84.2213 95.8627C84.1827 95.9005 84.1393 95.9194 84.0911 95.9194H77.6672Z" fill="white"/>
<path d="M52.2397 121.528C52.2108 121.557 52.2011 121.585 52.2108 121.613C52.2301 121.642 52.259 121.656 52.2976 121.656H57.9836C58.0511 121.656 58.1089 121.679 58.1572 121.727C58.215 121.774 58.244 121.831 58.244 121.897V123.896C58.244 123.963 58.215 124.019 58.1572 124.067C58.1089 124.114 58.0511 124.137 57.9836 124.137H48.5504C48.4732 124.137 48.4105 124.114 48.3623 124.067C48.314 124.019 48.2899 123.963 48.2899 123.896V121.996C48.2899 121.873 48.3333 121.769 48.4201 121.684C49.105 121.032 49.8043 120.318 50.518 119.543C51.2318 118.768 51.6803 118.286 51.8636 118.097C52.2494 117.643 52.6448 117.208 53.0499 116.792C54.3231 115.412 54.9597 114.386 54.9597 113.715C54.9597 113.233 54.7861 112.836 54.4389 112.524C54.0916 112.221 53.6383 112.07 53.0789 112.07C52.5194 112.07 52.0661 112.221 51.7189 112.524C51.362 112.836 51.1836 113.247 51.1836 113.757V114.268C51.1836 114.334 51.1594 114.391 51.1112 114.438C51.063 114.485 51.0051 114.509 50.9376 114.509H48.4636C48.396 114.509 48.3382 114.485 48.2899 114.438C48.2321 114.391 48.2031 114.334 48.2031 114.268V113.304C48.2514 112.566 48.4925 111.909 48.9265 111.333C49.3606 110.765 49.9345 110.331 50.6482 110.028C51.3716 109.725 52.1818 109.574 53.0789 109.574C54.0723 109.574 54.9356 109.759 55.6687 110.127C56.4017 110.486 56.966 110.973 57.3614 111.588C57.7665 112.212 57.9691 112.897 57.9691 113.644C57.9691 114.221 57.8196 114.811 57.5206 115.417C57.2312 116.022 56.7923 116.674 56.204 117.373C55.7699 117.903 55.3021 118.432 54.8006 118.962C54.299 119.482 53.5515 120.233 52.558 121.216L52.2397 121.528ZM65.0584 124.364C63.5152 124.364 62.2999 123.944 61.4125 123.102C60.5155 122.261 60.067 121.112 60.067 119.656V114.225C60.067 112.798 60.5155 111.668 61.4125 110.836C62.2999 109.995 63.5152 109.574 65.0584 109.574C66.5921 109.574 67.8122 109.995 68.7189 110.836C69.6159 111.668 70.0644 112.798 70.0644 114.225V119.656C70.0644 121.112 69.6159 122.261 68.7189 123.102C67.8122 123.944 66.5921 124.364 65.0584 124.364ZM65.0584 121.883C65.6854 121.883 66.1821 121.694 66.5487 121.316C66.9248 120.937 67.1129 120.432 67.1129 119.798V114.14C67.1129 113.516 66.9248 113.015 66.5487 112.637C66.1821 112.259 65.6854 112.07 65.0584 112.07C64.4411 112.07 63.9492 112.259 63.5827 112.637C63.2065 113.015 63.0184 113.516 63.0184 114.14V119.798C63.0184 120.432 63.2065 120.937 63.5827 121.316C63.9492 121.694 64.4411 121.883 65.0584 121.883ZM75.9384 121.528C75.9095 121.557 75.9047 121.585 75.924 121.613C75.9336 121.642 75.9626 121.656 76.0108 121.656H81.6967C81.7643 121.656 81.8221 121.679 81.8704 121.727C81.9186 121.774 81.9427 121.831 81.9427 121.897V123.896C81.9427 123.963 81.9186 124.019 81.8704 124.067C81.8221 124.114 81.7643 124.137 81.6967 124.137H72.2491C72.1816 124.137 72.1237 124.114 72.0755 124.067C72.0272 124.019 72.0031 123.963 72.0031 123.896V121.996C72.0031 121.873 72.0417 121.769 72.1189 121.684C72.8133 121.032 73.5126 120.318 74.2167 119.543C74.9305 118.768 75.379 118.286 75.5623 118.097C75.9577 117.643 76.358 117.208 76.7631 116.792C78.0363 115.412 78.6729 114.386 78.6729 113.715C78.6729 113.233 78.4993 112.836 78.1521 112.524C77.7952 112.221 77.337 112.07 76.7776 112.07C76.2182 112.07 75.7648 112.221 75.4176 112.524C75.0704 112.836 74.8967 113.247 74.8967 113.757V114.268C74.8967 114.334 74.8726 114.391 74.8244 114.438C74.7762 114.485 74.7135 114.509 74.6363 114.509H72.1623C72.0948 114.509 72.0369 114.485 71.9887 114.438C71.9404 114.391 71.9163 114.334 71.9163 114.268V113.304C71.9549 112.566 72.1912 111.909 72.6253 111.333C73.0593 110.765 73.638 110.331 74.3614 110.028C75.0848 109.725 75.8902 109.574 76.7776 109.574C77.7711 109.574 78.6343 109.759 79.3674 110.127C80.1101 110.486 80.6792 110.973 81.0746 111.588C81.4701 112.212 81.6678 112.897 81.6678 113.644C81.6678 114.221 81.5231 114.811 81.2338 115.417C80.9348 116.022 80.4911 116.674 79.9027 117.373C79.4687 117.903 79.0009 118.432 78.4993 118.962C77.9977 119.482 77.2502 120.233 76.2567 121.216L75.9384 121.528ZM85.8201 109.801C85.8973 109.763 86.0034 109.744 86.1384 109.744H88.6848C88.7523 109.744 88.8102 109.768 88.8584 109.815C88.9067 109.863 88.9308 109.919 88.9308 109.985V123.896C88.9308 123.963 88.9067 124.019 88.8584 124.067C88.8102 124.114 88.7523 124.137 88.6848 124.137H86.2253C86.1577 124.137 86.0999 124.114 86.0516 124.067C85.9938 124.019 85.9648 123.963 85.9648 123.896V112.623C85.9648 112.595 85.9552 112.566 85.9359 112.538C85.907 112.51 85.878 112.505 85.8491 112.524L83.7657 113.077L83.6789 113.091C83.5535 113.091 83.4908 113.015 83.4908 112.864L83.4329 111.106C83.4329 110.964 83.4956 110.865 83.621 110.808L85.8201 109.801Z" fill="#252530"/>
<path d="M68.7538 129.186L-4.2174 109.697L-9.65625 143.313L145.67 134.466V109.697L68.7538 129.186Z" fill="#F2F3F2"/>
</g>
</g>
<defs>
<filter id="filter0_d_1_1704" x="0" y="0" width="132" height="146" filterUnits="userSpaceOnUse" color-interpolation-filters="sRGB">
<feFlood flood-opacity="0" result="BackgroundImageFix"/>
<feColorMatrix in="SourceAlpha" type="matrix" values="0 0 0 0 0 0 0 0 0 0 0 0 0 0 0 0 0 0 127 0" result="hardAlpha"/>
<feOffset dx="-3" dy="5"/>
<feGaussianBlur stdDeviation="5"/>
<feComposite in2="hardAlpha" operator="out"/>
<feColorMatrix type="matrix" values="0 0 0 0 0.32549 0 0 0 0 0.32549 0 0 0 0 0.380392 0 0 0 0.1 0"/>
<feBlend mode="normal" in2="BackgroundImageFix" result="effect1_dropShadow_1_1704"/>
<feBlend mode="normal" in="SourceGraphic" in2="effect1_dropShadow_1_1704" result="shape"/>
</filter>
<clipPath id="clip0_1_1704">
<rect x="13" y="5" width="112" height="126" rx="15.9177" fill="white"/>
</clipPath>
</defs>
</svg>
