<svg width="221" height="244" viewBox="0 0 221 244" fill="none" xmlns="http://www.w3.org/2000/svg">
<g filter="url(#filter0_d_1_1780)">
<g clip-path="url(#clip0_1_1780)">
<rect x="14.0078" y="18" width="174.456" height="196.877" rx="25.2226" fill="#FFDE7B"/>
<path d="M13.8984 192.949L103.392 238.095L189.487 192.949V16.4061H13.8984V192.949Z" fill="white"/>
<path d="M191.299 17.0791L12.0859 196.093L104.978 241.688L191.299 197.889V17.0791Z" fill="#F2F3F2"/>
<path d="M8.00766 75.2539V196.768L11.1796 198.34L100.673 243.486L103.392 244.834L106.11 243.486L192.432 198.34L195.604 196.768V10.5665H8.00766V75.2539ZM13.8984 193.398V16.4063H189.713V193.398L103.392 238.545L13.8984 193.398Z" fill="#DCDEDC"/>
<path d="M101.806 19.3263C102.712 19.3263 103.619 19.3263 104.525 19.5509L101.806 24.7169C97.7278 24.4923 94.1028 27.6368 93.8762 31.6798C93.6496 35.7227 96.8216 39.3165 100.9 39.5411H101.806C103.619 39.5411 105.431 38.8673 106.79 37.7442L109.736 42.6856C107.47 44.2579 104.751 45.1563 101.806 45.1563C94.5559 45.3809 88.4386 39.9903 88.2121 32.8028C87.9855 25.6153 93.4231 19.5509 100.673 19.3263H101.806ZM111.095 30.3321L114.494 35.9473L111.095 41.338L107.923 35.9473H101.353L104.751 30.3321H111.095ZM105.658 28.3106C105.658 27.4122 105.884 26.5138 106.337 25.8399C106.79 25.1661 107.697 24.4923 108.376 24.0431L108.83 23.8184C109.736 23.3692 109.962 23.1446 109.962 22.6954C109.962 22.2462 109.283 21.797 108.83 21.797C107.923 21.797 107.244 22.2462 106.79 23.1446L105.658 22.0216C105.884 21.5723 106.337 21.1231 106.79 20.6739C107.47 20.2247 108.15 20.2247 108.83 20.2247C109.509 20.2247 110.415 20.4493 110.869 20.8985C111.322 21.3477 111.775 22.0216 111.775 22.6954C111.775 23.8184 111.095 24.7169 109.736 25.1661L109.056 25.6153C108.376 26.0645 107.923 26.2891 107.697 26.963H111.775V28.5352L105.658 28.3106ZM101.806 56.3868L123.33 44.2579V10.5665H80.0557V44.0333L101.806 56.3868ZM199.909 135.898H3.70322L-3.54687 151.621L3.70322 167.344H199.909L206.932 151.621L199.909 135.898Z" fill="#FF492C"/>
<path d="M34.7415 102.183C36.2369 102.183 37.5509 102.482 38.6838 103.081C39.8166 103.68 40.6926 104.541 41.3119 105.664C41.9312 106.772 42.2408 108.045 42.2408 109.482C42.2408 110.905 41.9236 112.155 41.2893 113.233C40.6398 114.297 39.7335 115.128 38.5705 115.727C37.4074 116.325 36.0632 116.625 34.5376 116.625H29.7118C29.606 116.625 29.5532 116.685 29.5532 116.805V125.385C29.5532 125.505 29.5079 125.602 29.4172 125.677C29.3417 125.752 29.2435 125.789 29.1227 125.789H25.1578C25.037 125.789 24.9388 125.752 24.8633 125.677C24.7878 125.602 24.75 125.505 24.75 125.385V102.587C24.75 102.467 24.7878 102.37 24.8633 102.295C24.9388 102.22 25.037 102.183 25.1578 102.183H34.7415ZM34.0165 112.829C35.0738 112.829 35.9121 112.53 36.5314 111.931C37.1658 111.332 37.483 110.553 37.483 109.595C37.483 108.591 37.1658 107.79 36.5314 107.191C35.9121 106.577 35.0738 106.27 34.0165 106.27H29.7118C29.606 106.27 29.5532 106.33 29.5532 106.45V112.649C29.5532 112.769 29.606 112.829 29.7118 112.829H34.0165ZM59.3918 115.345C59.5127 116.198 59.5504 117.149 59.5051 118.197C59.49 118.482 59.3465 118.624 59.0746 118.624H48.5847C48.4487 118.624 48.3959 118.676 48.4261 118.781C48.5016 119.23 48.63 119.68 48.8112 120.129C49.4003 121.387 50.6011 122.016 52.4136 122.016C53.8636 122.001 55.004 121.417 55.8348 120.264C55.9405 120.129 56.0462 120.061 56.1519 120.061C56.2124 120.061 56.2879 120.106 56.3785 120.196L58.8254 122.577C58.9463 122.697 59.0067 122.802 59.0067 122.892C59.0067 122.936 58.9614 123.026 58.8707 123.161C58.1155 124.089 57.1564 124.801 55.9934 125.295C54.8001 125.804 53.5011 126.059 52.0964 126.059C50.1631 126.059 48.5167 125.624 47.1573 124.756C45.813 123.872 44.8463 122.644 44.2573 121.072C43.7739 119.949 43.5323 118.482 43.5323 116.67C43.5323 115.427 43.706 114.334 44.0534 113.391C44.582 111.803 45.4958 110.538 46.7948 109.595C48.0938 108.651 49.6344 108.18 51.4167 108.18C53.6824 108.18 55.5025 108.831 56.877 110.134C58.2515 111.436 59.0897 113.173 59.3918 115.345ZM51.462 112.29C50.0271 112.29 49.0831 112.949 48.63 114.267C48.5394 114.566 48.4638 114.925 48.4034 115.345C48.4034 115.449 48.4638 115.502 48.5847 115.502H54.4527C54.5886 115.502 54.634 115.449 54.5886 115.345C54.4678 114.701 54.4074 114.386 54.4074 114.401C54.211 113.727 53.8561 113.203 53.3425 112.829C52.8441 112.47 52.2173 112.29 51.462 112.29ZM71.1732 108.247C71.9889 108.247 72.6384 108.404 73.1217 108.719C73.2878 108.809 73.3483 108.973 73.3029 109.213L72.6006 113.054C72.5855 113.323 72.4269 113.406 72.1248 113.301C71.7774 113.181 71.3847 113.121 70.9467 113.121C70.7654 113.121 70.5086 113.144 70.1763 113.188C69.3758 113.263 68.6886 113.563 68.1146 114.087C67.5557 114.611 67.2763 115.315 67.2763 116.198V125.385C67.2763 125.505 67.231 125.602 67.1404 125.677C67.0648 125.752 66.9742 125.789 66.8685 125.789H62.8809C62.7752 125.789 62.677 125.752 62.5864 125.677C62.5109 125.602 62.4731 125.505 62.4731 125.385V108.876C62.4731 108.771 62.5109 108.674 62.5864 108.584C62.677 108.509 62.7752 108.472 62.8809 108.472H66.8685C66.9742 108.472 67.0648 108.509 67.1404 108.584C67.231 108.674 67.2763 108.771 67.2763 108.876V110.156C67.2763 110.216 67.299 110.261 67.3443 110.291C67.3745 110.321 67.4047 110.306 67.4349 110.246C68.3714 108.913 69.6175 108.247 71.1732 108.247ZM85.6508 108.449C85.7716 108.449 85.8698 108.487 85.9453 108.561C86.0208 108.636 86.0586 108.734 86.0586 108.853V112.043C86.0586 112.163 86.0208 112.26 85.9453 112.335C85.8698 112.41 85.7716 112.447 85.6508 112.447H82.3656C82.2447 112.447 82.1843 112.5 82.1843 112.604V125.385C82.1843 125.505 82.1465 125.602 82.071 125.677C81.9955 125.752 81.8973 125.789 81.7765 125.789H77.8116C77.6908 125.789 77.5926 125.752 77.5171 125.677C77.4415 125.602 77.4038 125.505 77.4038 125.385V112.604C77.4038 112.5 77.3434 112.447 77.2225 112.447H75.2287C75.1079 112.447 75.0097 112.41 74.9342 112.335C74.8587 112.26 74.8209 112.163 74.8209 112.043V108.853C74.8209 108.734 74.8587 108.636 74.9342 108.561C75.0097 108.487 75.1079 108.449 75.2287 108.449H77.2225C77.3434 108.449 77.4038 108.389 77.4038 108.269V107.528C77.4038 106.136 77.6152 105.05 78.0382 104.271C78.4762 103.508 79.171 102.961 80.1226 102.632C81.0892 102.302 82.426 102.16 84.1328 102.205H85.4242C85.5299 102.205 85.6205 102.242 85.6961 102.317C85.7867 102.407 85.832 102.505 85.832 102.609V105.327C85.832 105.447 85.7867 105.544 85.6961 105.619C85.6205 105.709 85.5299 105.754 85.4242 105.754H84.2914C83.5059 105.769 82.9546 105.926 82.6374 106.226C82.3353 106.54 82.1843 107.102 82.1843 107.91V108.269C82.1843 108.389 82.2447 108.449 82.3656 108.449H85.6508ZM95.5063 126.059C93.6032 126.059 91.9719 125.564 90.6125 124.576C89.2531 123.588 88.3242 122.24 87.8258 120.533C87.5086 119.485 87.35 118.339 87.35 117.097C87.35 115.779 87.5086 114.589 87.8258 113.525C88.3544 111.863 89.2985 110.561 90.6578 109.617C92.0172 108.674 93.6485 108.202 95.5517 108.202C97.3944 108.202 98.9803 108.666 100.31 109.595C101.609 110.538 102.53 111.841 103.074 113.503C103.451 114.626 103.64 115.801 103.64 117.029C103.64 118.242 103.481 119.38 103.164 120.443C102.666 122.195 101.737 123.565 100.377 124.554C99.0332 125.557 97.4095 126.059 95.5063 126.059ZM95.5063 121.993C96.2465 121.993 96.8808 121.769 97.4095 121.319C97.9381 120.87 98.3158 120.249 98.5423 119.455C98.7085 118.736 98.7915 117.95 98.7915 117.097C98.7915 116.153 98.7085 115.36 98.5423 114.716C98.2855 113.952 97.9004 113.353 97.3868 112.919C96.8582 112.5 96.2162 112.29 95.461 112.29C94.7058 112.29 94.0714 112.5 93.5579 112.919C93.0443 113.353 92.6743 113.952 92.4477 114.716C92.2665 115.24 92.1758 116.033 92.1758 117.097C92.1758 118.115 92.2589 118.901 92.425 119.455C92.6516 120.249 93.0292 120.87 93.5579 121.319C94.0865 121.769 94.736 121.993 95.5063 121.993ZM115.421 108.247C116.237 108.247 116.887 108.404 117.37 108.719C117.551 108.809 117.612 108.973 117.551 109.213L116.849 113.054C116.834 113.323 116.675 113.406 116.373 113.301C116.026 113.181 115.633 113.121 115.195 113.121C115.014 113.121 114.764 113.144 114.447 113.188C113.632 113.263 112.937 113.563 112.363 114.087C111.804 114.611 111.525 115.315 111.525 116.198V125.385C111.525 125.505 111.479 125.602 111.389 125.677C111.313 125.752 111.215 125.789 111.094 125.789H107.129C107.023 125.789 106.925 125.752 106.835 125.677C106.759 125.602 106.721 125.505 106.721 125.385V108.876C106.721 108.771 106.759 108.674 106.835 108.584C106.925 108.509 107.023 108.472 107.129 108.472H111.094C111.215 108.472 111.313 108.509 111.389 108.584C111.479 108.674 111.525 108.771 111.525 108.876V110.156C111.525 110.216 111.54 110.261 111.57 110.291C111.63 110.321 111.668 110.306 111.683 110.246C112.62 108.913 113.866 108.247 115.421 108.247ZM139.098 108.202C140.865 108.202 142.247 108.726 143.244 109.774C144.241 110.838 144.739 112.327 144.739 114.244V125.385C144.739 125.505 144.701 125.602 144.626 125.677C144.55 125.752 144.46 125.789 144.354 125.789H140.366C140.261 125.789 140.162 125.752 140.072 125.677C139.996 125.602 139.958 125.505 139.958 125.385V115.277C139.958 114.364 139.724 113.638 139.256 113.099C138.773 112.56 138.131 112.29 137.33 112.29C136.545 112.29 135.903 112.56 135.404 113.099C134.906 113.638 134.657 114.356 134.657 115.255V125.385C134.657 125.505 134.619 125.602 134.544 125.677C134.453 125.752 134.355 125.789 134.249 125.789H130.307C130.186 125.789 130.088 125.752 130.012 125.677C129.937 125.602 129.899 125.505 129.899 125.385V115.277C129.899 114.379 129.65 113.653 129.151 113.099C128.653 112.56 128.003 112.29 127.203 112.29C126.493 112.29 125.889 112.5 125.39 112.919C124.907 113.353 124.62 113.952 124.529 114.716V125.385C124.529 125.505 124.492 125.602 124.416 125.677C124.325 125.752 124.227 125.789 124.122 125.789H120.157C120.036 125.789 119.938 125.752 119.862 125.677C119.787 125.602 119.749 125.505 119.749 125.385V108.876C119.749 108.771 119.787 108.674 119.862 108.584C119.938 108.509 120.036 108.472 120.157 108.472H124.122C124.227 108.472 124.325 108.509 124.416 108.584C124.492 108.674 124.529 108.771 124.529 108.876V110.201C124.529 110.261 124.552 110.306 124.597 110.336C124.643 110.351 124.688 110.321 124.733 110.246C125.67 108.883 127.112 108.202 129.061 108.202C130.193 108.202 131.183 108.442 132.029 108.921C132.875 109.385 133.524 110.059 133.977 110.942C134.038 111.077 134.121 111.077 134.226 110.942C134.71 110.014 135.382 109.325 136.243 108.876C137.089 108.427 138.04 108.202 139.098 108.202ZM163.476 115.345C163.612 116.198 163.657 117.149 163.612 118.197C163.582 118.482 163.431 118.624 163.159 118.624H152.669C152.533 118.624 152.488 118.676 152.533 118.781C152.593 119.23 152.714 119.68 152.895 120.129C153.484 121.387 154.685 122.016 156.498 122.016C157.948 122.001 159.096 121.417 159.941 120.264C160.032 120.129 160.13 120.061 160.236 120.061C160.312 120.061 160.395 120.106 160.485 120.196L162.932 122.577C163.038 122.697 163.091 122.802 163.091 122.892C163.091 122.936 163.045 123.026 162.955 123.161C162.215 124.089 161.256 124.801 160.077 125.295C158.899 125.804 157.608 126.059 156.203 126.059C154.255 126.059 152.608 125.624 151.264 124.756C149.905 123.872 148.93 122.644 148.341 121.072C147.873 119.949 147.639 118.482 147.639 116.67C147.639 115.427 147.805 114.334 148.137 113.391C148.666 111.803 149.58 110.538 150.879 109.595C152.178 108.651 153.726 108.18 155.523 108.18C157.789 108.18 159.609 108.831 160.984 110.134C162.358 111.436 163.189 113.173 163.476 115.345ZM155.546 112.29C154.126 112.29 153.19 112.949 152.737 114.267C152.646 114.566 152.563 114.925 152.488 115.345C152.488 115.449 152.548 115.502 152.669 115.502H158.537C158.673 115.502 158.718 115.449 158.673 115.345C158.567 114.701 158.514 114.386 158.514 114.401C158.303 113.727 157.948 113.203 157.449 112.829C156.936 112.47 156.301 112.29 155.546 112.29ZM175.257 108.247C176.073 108.247 176.722 108.404 177.206 108.719C177.387 108.809 177.455 108.973 177.41 109.213L176.707 113.054C176.677 113.323 176.511 113.406 176.209 113.301C175.877 113.181 175.484 113.121 175.031 113.121C174.85 113.121 174.6 113.144 174.283 113.188C173.467 113.263 172.773 113.563 172.199 114.087C171.64 114.611 171.36 115.315 171.36 116.198V125.385C171.36 125.505 171.323 125.602 171.247 125.677C171.156 125.752 171.058 125.789 170.953 125.789H166.965C166.859 125.789 166.769 125.752 166.693 125.677C166.603 125.602 166.557 125.505 166.557 125.385V108.876C166.557 108.771 166.603 108.674 166.693 108.584C166.769 108.509 166.859 108.472 166.965 108.472H170.953C171.058 108.472 171.156 108.509 171.247 108.584C171.323 108.674 171.36 108.771 171.36 108.876V110.156C171.36 110.216 171.383 110.261 171.428 110.291C171.474 110.321 171.511 110.306 171.542 110.246C172.463 108.913 173.702 108.247 175.257 108.247ZM81.7765 68.918C81.7765 68.8132 81.8142 68.7158 81.8898 68.626C81.9653 68.5511 82.0559 68.5137 82.1616 68.5137H86.1492C86.2549 68.5137 86.3531 68.5511 86.4437 68.626C86.5192 68.7158 86.557 68.8132 86.557 68.918V91.6933C86.557 91.8131 86.5192 91.9105 86.4437 91.9853C86.3531 92.0602 86.2549 92.0976 86.1492 92.0976H82.1616C82.0559 92.0976 81.9653 92.0602 81.8898 91.9853C81.8142 91.9105 81.7765 91.8131 81.7765 91.6933V82.3945C81.7765 82.2897 81.7161 82.2373 81.5952 82.2373H74.0733C73.9675 82.2373 73.9147 82.2897 73.9147 82.3945V91.6933C73.9147 91.8131 73.8769 91.9105 73.8014 91.9853C73.7108 92.0602 73.6126 92.0976 73.5069 92.0976H69.5193C69.4136 92.0976 69.3229 92.0602 69.2474 91.9853C69.1568 91.9105 69.1115 91.8131 69.1115 91.6933V68.918C69.1115 68.8132 69.1568 68.7158 69.2474 68.626C69.3229 68.5511 69.4136 68.5137 69.5193 68.5137H73.5069C73.6126 68.5137 73.7108 68.5511 73.8014 68.626C73.8769 68.7158 73.9147 68.8132 73.9147 68.918V77.9697C73.9147 78.0895 73.9675 78.1494 74.0733 78.1494H81.5952C81.7161 78.1494 81.7765 78.0895 81.7765 77.9697V68.918ZM92.7422 72.8262C91.9719 72.8262 91.33 72.5716 90.8164 72.0625C90.3029 71.5684 90.0461 70.9395 90.0461 70.1758C90.0461 69.3822 90.2953 68.7383 90.7938 68.2441C91.2922 67.75 91.9417 67.5029 92.7422 67.5029C93.5428 67.5029 94.1923 67.75 94.6907 68.2441C95.1891 68.7383 95.4384 69.3822 95.4384 70.1758C95.4384 70.9395 95.1816 71.5684 94.6681 72.0625C94.1545 72.5716 93.5126 72.8262 92.7422 72.8262ZM90.7032 92.0976C90.5974 92.0976 90.4992 92.0602 90.4086 91.9853C90.3331 91.9105 90.2953 91.8131 90.2953 91.6933V75.1621C90.2953 75.0423 90.3331 74.945 90.4086 74.8701C90.4992 74.7952 90.5974 74.7578 90.7032 74.7578H94.6907C94.7964 74.7578 94.8871 74.7952 94.9626 74.8701C95.0532 74.945 95.0985 75.0423 95.0985 75.1621V91.6933C95.0985 91.8131 95.0532 91.9105 94.9626 91.9853C94.8871 92.0602 94.7964 92.0976 94.6907 92.0976H90.7032ZM109.485 75.1846C109.485 75.0797 109.531 74.9824 109.621 74.8926C109.697 74.8177 109.788 74.7803 109.893 74.7803H113.881C113.987 74.7803 114.085 74.8177 114.175 74.8926C114.251 74.9824 114.289 75.0797 114.289 75.1846V90.5478C114.289 93.4827 113.435 95.5791 111.728 96.8369C110.022 98.1097 107.816 98.7461 105.113 98.7461C104.312 98.7461 103.429 98.6862 102.462 98.5664C102.235 98.5364 102.122 98.3942 102.122 98.1396L102.258 94.6582C102.258 94.3587 102.417 94.2314 102.734 94.2763C103.549 94.4111 104.297 94.4785 104.977 94.4785C106.427 94.4785 107.545 94.1715 108.33 93.5576C109.1 92.9137 109.485 91.903 109.485 90.5254C109.485 90.4505 109.463 90.4056 109.417 90.3906C109.372 90.3756 109.327 90.3981 109.282 90.458C108.421 91.3714 107.167 91.8281 105.521 91.8281C104.04 91.8281 102.688 91.4762 101.465 90.7724C100.226 90.0687 99.3428 88.9306 98.8142 87.3584C98.4819 86.3252 98.3158 84.985 98.3158 83.3379C98.3158 81.5859 98.5197 80.1634 98.9275 79.0703C99.3957 77.6927 100.196 76.5921 101.329 75.7685C102.462 74.93 103.784 74.5107 105.294 74.5107C107.031 74.5107 108.36 75.0273 109.282 76.0605C109.327 76.1055 109.372 76.1204 109.417 76.1055C109.463 76.0905 109.485 76.0531 109.485 75.9932V75.1846ZM109.214 86.0557C109.395 85.3968 109.485 84.4759 109.485 83.293C109.485 82.6042 109.463 82.0726 109.417 81.6982C109.372 81.3089 109.297 80.942 109.191 80.5976C108.979 79.9987 108.64 79.512 108.171 79.1377C107.703 78.7783 107.114 78.5986 106.404 78.5986C105.724 78.5986 105.15 78.7783 104.682 79.1377C104.199 79.512 103.844 79.9987 103.617 80.5976C103.3 81.2715 103.142 82.1849 103.142 83.3379C103.142 84.5957 103.278 85.4941 103.549 86.0332C103.746 86.6471 104.101 87.1338 104.614 87.4931C105.128 87.8675 105.732 88.0547 106.427 88.0547C107.152 88.0547 107.756 87.8675 108.239 87.4931C108.708 87.1338 109.032 86.6546 109.214 86.0557ZM126.84 74.5107C128.653 74.5107 130.11 75.0648 131.213 76.1728C132.316 77.2659 132.867 78.7559 132.867 80.6426V91.6933C132.867 91.8131 132.829 91.9105 132.754 91.9853C132.678 92.0602 132.588 92.0976 132.482 92.0976H128.494C128.389 92.0976 128.29 92.0602 128.2 91.9853C128.124 91.9105 128.086 91.8131 128.086 91.6933V81.6084C128.086 80.7249 127.83 79.9987 127.316 79.4297C126.818 78.8756 126.146 78.5986 125.3 78.5986C124.469 78.5986 123.797 78.8756 123.283 79.4297C122.77 79.9987 122.513 80.7249 122.513 81.6084V91.6933C122.513 91.8131 122.475 91.9105 122.4 91.9853C122.324 92.0602 122.226 92.0976 122.105 92.0976H118.14C118.019 92.0976 117.921 92.0602 117.846 91.9853C117.77 91.9105 117.732 91.8131 117.732 91.6933V68.918C117.732 68.8132 117.77 68.7158 117.846 68.626C117.921 68.5511 118.019 68.5137 118.14 68.5137H122.105C122.226 68.5137 122.324 68.5511 122.4 68.626C122.475 68.7158 122.513 68.8132 122.513 68.918V76.375C122.513 76.4349 122.536 76.4798 122.581 76.5098C122.626 76.5247 122.656 76.5098 122.672 76.4648C123.608 75.1621 124.998 74.5107 126.84 74.5107Z" fill="#252530"/>
<path d="M70.6352 160.56C69.4571 160.56 68.43 160.372 67.5539 159.998C66.6779 159.624 65.9982 159.1 65.5149 158.426C65.0466 157.752 64.8125 156.958 64.8125 156.045V155.483C64.8125 155.409 64.8427 155.341 64.9031 155.281C64.9484 155.236 65.0089 155.214 65.0844 155.214H67.1008C67.1763 155.214 67.2443 155.236 67.3047 155.281C67.35 155.341 67.3727 155.409 67.3727 155.483V155.91C67.3727 156.599 67.6823 157.168 68.3016 157.617C68.9209 158.081 69.7667 158.313 70.8391 158.313C71.7605 158.313 72.4553 158.119 72.9235 157.729C73.3918 157.34 73.6259 156.839 73.6259 156.225C73.6259 155.805 73.4975 155.446 73.2407 155.146C72.984 154.862 72.6215 154.6 72.1532 154.36C71.6699 154.121 70.9524 153.821 70.0008 153.462C68.9284 153.073 68.0599 152.706 67.3953 152.361C66.7308 152.017 66.1794 151.545 65.7414 150.946C65.2883 150.362 65.0617 149.629 65.0617 148.745C65.0617 147.427 65.5451 146.387 66.5117 145.623C67.4784 144.859 68.7698 144.478 70.386 144.478C71.5188 144.478 72.5233 144.672 73.3993 145.062C74.2603 145.451 74.9324 145.997 75.4158 146.701C75.8991 147.39 76.1408 148.191 76.1408 149.104V149.486C76.1408 149.561 76.1106 149.629 76.0501 149.688C76.0048 149.733 75.9444 149.756 75.8689 149.756H73.8298C73.7543 149.756 73.6939 149.733 73.6486 149.688C73.5881 149.629 73.5579 149.561 73.5579 149.486V149.239C73.5579 148.535 73.2709 147.944 72.697 147.465C72.1079 146.971 71.2998 146.724 70.2727 146.724C69.442 146.724 68.8001 146.896 68.3469 147.24C67.8787 147.585 67.6446 148.071 67.6446 148.7C67.6446 149.149 67.7654 149.516 68.0071 149.801C68.2487 150.085 68.6112 150.34 69.0946 150.564C69.5779 150.804 70.3256 151.104 71.3376 151.463C72.41 151.867 73.2709 152.234 73.9204 152.563C74.5548 152.893 75.1061 153.35 75.5744 153.934C76.0275 154.533 76.254 155.274 76.254 156.157C76.254 157.505 75.7481 158.576 74.7361 159.369C73.7392 160.163 72.3722 160.56 70.6352 160.56ZM85.2713 144.635C86.2229 144.635 87.0612 144.829 87.7862 145.219C88.5112 145.608 89.0701 146.155 89.4628 146.858C89.8706 147.577 90.0745 148.401 90.0745 149.329C90.0745 150.243 89.8706 151.051 89.4628 151.755C89.055 152.459 88.481 152.998 87.7409 153.372C86.9857 153.761 86.1172 153.956 85.1354 153.956H81.5104C81.4348 153.956 81.3971 153.993 81.3971 154.068V160.11C81.3971 160.185 81.3744 160.245 81.3291 160.29C81.2687 160.35 81.2007 160.38 81.1252 160.38H79.0408C78.9653 160.38 78.9049 160.35 78.8596 160.29C78.7991 160.245 78.7689 160.185 78.7689 160.11V144.904C78.7689 144.829 78.7991 144.762 78.8596 144.702C78.9049 144.657 78.9653 144.635 79.0408 144.635H85.2713ZM84.8862 151.845C85.6565 151.845 86.2758 151.62 86.744 151.171C87.2123 150.722 87.4464 150.13 87.4464 149.396C87.4464 148.648 87.2123 148.041 86.744 147.577C86.2758 147.113 85.6565 146.881 84.8862 146.881H81.5104C81.4348 146.881 81.3971 146.918 81.3971 146.993V151.732C81.3971 151.807 81.4348 151.845 81.5104 151.845H84.8862ZM101.29 160.38C101.138 160.38 101.033 160.312 100.972 160.178L97.9817 153.709C97.9515 153.649 97.9061 153.619 97.8457 153.619H95.1269C95.0514 153.619 95.0137 153.657 95.0137 153.731V160.11C95.0137 160.185 94.9835 160.245 94.923 160.29C94.8777 160.35 94.8173 160.38 94.7418 160.38H92.6574C92.5819 160.38 92.5214 160.35 92.4761 160.29C92.4157 160.245 92.3855 160.185 92.3855 160.11V144.927C92.3855 144.852 92.4157 144.792 92.4761 144.747C92.5214 144.687 92.5819 144.657 92.6574 144.657H98.8879C99.8093 144.657 100.625 144.844 101.335 145.219C102.045 145.608 102.596 146.147 102.989 146.836C103.381 147.54 103.578 148.341 103.578 149.239C103.578 150.272 103.314 151.148 102.785 151.867C102.241 152.601 101.493 153.11 100.542 153.395C100.512 153.395 100.489 153.409 100.474 153.439C100.459 153.469 100.459 153.499 100.474 153.529L103.668 160.065C103.699 160.125 103.714 160.17 103.714 160.2C103.714 160.32 103.631 160.38 103.465 160.38H101.29ZM95.1269 146.903C95.0514 146.903 95.0137 146.941 95.0137 147.016V151.485C95.0137 151.56 95.0514 151.598 95.1269 151.598H98.5254C99.2504 151.598 99.832 151.381 100.27 150.946C100.723 150.527 100.95 149.965 100.95 149.262C100.95 148.558 100.723 147.989 100.27 147.555C99.832 147.12 99.2504 146.903 98.5254 146.903H95.1269ZM106.546 160.38C106.47 160.38 106.402 160.35 106.342 160.29C106.297 160.245 106.274 160.185 106.274 160.11V144.927C106.274 144.852 106.297 144.792 106.342 144.747C106.402 144.687 106.47 144.657 106.546 144.657H108.63C108.706 144.657 108.766 144.687 108.811 144.747C108.872 144.792 108.902 144.852 108.902 144.927V160.11C108.902 160.185 108.872 160.245 108.811 160.29C108.766 160.35 108.706 160.38 108.63 160.38H106.546ZM121.431 144.927C121.431 144.852 121.461 144.792 121.522 144.747C121.567 144.687 121.628 144.657 121.703 144.657H123.787C123.863 144.657 123.931 144.687 123.991 144.747C124.037 144.792 124.059 144.852 124.059 144.927V160.11C124.059 160.185 124.037 160.245 123.991 160.29C123.931 160.35 123.863 160.38 123.787 160.38H121.771C121.62 160.38 121.514 160.32 121.454 160.2L114.929 149.599C114.899 149.554 114.868 149.531 114.838 149.531C114.808 149.546 114.793 149.584 114.793 149.644L114.838 160.11C114.838 160.185 114.808 160.245 114.748 160.29C114.702 160.35 114.642 160.38 114.566 160.38H112.482C112.406 160.38 112.346 160.35 112.301 160.29C112.24 160.245 112.21 160.185 112.21 160.11V144.927C112.21 144.852 112.24 144.792 112.301 144.747C112.346 144.687 112.406 144.657 112.482 144.657H114.498C114.649 144.657 114.755 144.717 114.815 144.837L121.318 155.438C121.348 155.483 121.378 155.498 121.409 155.483C121.439 155.483 121.454 155.453 121.454 155.394L121.431 144.927ZM132.669 160.56C131.536 160.56 130.539 160.342 129.678 159.908C128.817 159.459 128.153 158.83 127.684 158.021C127.216 157.213 126.982 156.284 126.982 155.236V149.801C126.982 148.738 127.216 147.802 127.684 146.993C128.153 146.2 128.817 145.578 129.678 145.129C130.539 144.695 131.536 144.478 132.669 144.478C133.787 144.478 134.776 144.695 135.637 145.129C136.483 145.563 137.14 146.155 137.608 146.903C138.076 147.652 138.31 148.498 138.31 149.441V149.621C138.31 149.696 138.288 149.756 138.242 149.801C138.182 149.861 138.114 149.891 138.038 149.891H135.977C135.901 149.891 135.841 149.861 135.795 149.801C135.735 149.756 135.705 149.696 135.705 149.621V149.509C135.705 148.7 135.425 148.034 134.867 147.51C134.323 146.986 133.59 146.724 132.669 146.724C131.747 146.724 131.007 147.001 130.448 147.555C129.89 148.094 129.61 148.812 129.61 149.711V155.326C129.61 156.225 129.905 156.951 130.494 157.505C131.083 158.044 131.846 158.313 132.782 158.313C133.688 158.313 134.406 158.074 134.934 157.595C135.448 157.131 135.705 156.487 135.705 155.663V154.271C135.705 154.196 135.667 154.158 135.592 154.158H132.805C132.729 154.158 132.661 154.128 132.601 154.068C132.556 154.023 132.533 153.964 132.533 153.889V152.227C132.533 152.152 132.556 152.092 132.601 152.047C132.661 151.987 132.729 151.957 132.805 151.957H138.038C138.114 151.957 138.182 151.987 138.242 152.047C138.288 152.092 138.31 152.152 138.31 152.227V155.102C138.31 156.824 137.804 158.164 136.792 159.122C135.765 160.08 134.391 160.56 132.669 160.56Z" fill="white"/>
<path d="M72.0555 200.946C72.0102 200.991 71.9951 201.036 72.0102 201.081C72.0404 201.126 72.0858 201.148 72.1462 201.148H81.0502C81.1559 201.148 81.2465 201.186 81.3221 201.261C81.4127 201.336 81.458 201.425 81.458 201.53V204.697C81.458 204.802 81.4127 204.892 81.3221 204.967C81.2465 205.042 81.1559 205.079 81.0502 205.079H66.2781C66.1573 205.079 66.0591 205.042 65.9836 204.967C65.9081 204.892 65.8703 204.802 65.8703 204.697V201.687C65.8703 201.493 65.9383 201.328 66.0742 201.193C67.1466 200.16 68.2417 199.03 69.3594 197.802C70.4771 196.574 71.1795 195.81 71.4665 195.511C72.0706 194.792 72.6899 194.103 73.3243 193.444C75.3181 191.258 76.315 189.633 76.315 188.57C76.315 187.807 76.0431 187.178 75.4993 186.684C74.9556 186.204 74.2457 185.965 73.3696 185.965C72.4936 185.965 71.7837 186.204 71.2399 186.684C70.6811 187.178 70.4016 187.829 70.4016 188.638V189.446C70.4016 189.551 70.3639 189.641 70.2883 189.716C70.2128 189.791 70.1222 189.828 70.0165 189.828H66.1422C66.0365 189.828 65.9458 189.791 65.8703 189.716C65.7797 189.641 65.7344 189.551 65.7344 189.446V187.919C65.8099 186.751 66.1875 185.71 66.8672 184.797C67.5469 183.898 68.4456 183.21 69.5633 182.73C70.6962 182.251 71.9649 182.012 73.3696 182.012C74.9254 182.012 76.2772 182.304 77.4251 182.888C78.5731 183.457 79.4567 184.228 80.076 185.201C80.7103 186.189 81.0275 187.275 81.0275 188.458C81.0275 189.371 80.7934 190.307 80.3252 191.266C79.872 192.224 79.1848 193.257 78.2634 194.365C77.5837 195.204 76.8512 196.042 76.0658 196.881C75.2803 197.704 74.1097 198.895 72.554 200.452L72.0555 200.946ZM92.1292 205.438C89.7125 205.438 87.8094 204.772 86.4198 203.439C85.0151 202.107 84.3127 200.287 84.3127 197.981V189.379C84.3127 187.118 85.0151 185.328 86.4198 184.011C87.8094 182.678 89.7125 182.012 92.1292 182.012C94.5308 182.012 96.4415 182.678 97.8613 184.011C99.266 185.328 99.9684 187.118 99.9684 189.379V197.981C99.9684 200.287 99.266 202.107 97.8613 203.439C96.4415 204.772 94.5308 205.438 92.1292 205.438ZM92.1292 201.508C93.111 201.508 93.8889 201.208 94.4629 200.609C95.0519 200.01 95.3465 199.209 95.3465 198.206V189.244C95.3465 188.256 95.0519 187.462 94.4629 186.863C93.8889 186.264 93.111 185.965 92.1292 185.965C91.1626 185.965 90.3922 186.264 89.8183 186.863C89.2292 187.462 88.9347 188.256 88.9347 189.244V198.206C88.9347 199.209 89.2292 200.01 89.8183 200.609C90.3922 201.208 91.1626 201.508 92.1292 201.508ZM109.167 200.946C109.122 200.991 109.114 201.036 109.144 201.081C109.159 201.126 109.205 201.148 109.28 201.148H118.184C118.29 201.148 118.381 201.186 118.456 201.261C118.532 201.336 118.569 201.425 118.569 201.53V204.697C118.569 204.802 118.532 204.892 118.456 204.967C118.381 205.042 118.29 205.079 118.184 205.079H103.39C103.284 205.079 103.193 205.042 103.118 204.967C103.042 204.892 103.004 204.802 103.004 204.697V201.687C103.004 201.493 103.065 201.328 103.186 201.193C104.273 200.16 105.368 199.03 106.471 197.802C107.589 196.574 108.291 195.81 108.578 195.511C109.197 194.792 109.824 194.103 110.458 193.444C112.452 191.258 113.449 189.633 113.449 188.57C113.449 187.807 113.177 187.178 112.633 186.684C112.075 186.204 111.357 185.965 110.481 185.965C109.605 185.965 108.895 186.204 108.351 186.684C107.808 187.178 107.536 187.829 107.536 188.638V189.446C107.536 189.551 107.498 189.641 107.422 189.716C107.347 189.791 107.249 189.828 107.128 189.828H103.254C103.148 189.828 103.057 189.791 102.982 189.716C102.906 189.641 102.868 189.551 102.868 189.446V187.919C102.929 186.751 103.299 185.71 103.979 184.797C104.658 183.898 105.565 183.21 106.697 182.73C107.83 182.251 109.091 182.012 110.481 182.012C112.037 182.012 113.389 182.304 114.537 182.888C115.7 183.457 116.591 184.228 117.21 185.201C117.829 186.189 118.139 187.275 118.139 188.458C118.139 189.371 117.912 190.307 117.459 191.266C116.991 192.224 116.296 193.257 115.375 194.365C114.695 195.204 113.963 196.042 113.177 196.881C112.392 197.704 111.221 198.895 109.665 200.452L109.167 200.946ZM127.564 200.946C127.519 200.991 127.511 201.036 127.541 201.081C127.556 201.126 127.602 201.148 127.677 201.148H136.581C136.687 201.148 136.778 201.186 136.853 201.261C136.929 201.336 136.966 201.425 136.966 201.53V204.697C136.966 204.802 136.929 204.892 136.853 204.967C136.778 205.042 136.687 205.079 136.581 205.079H121.787C121.681 205.079 121.59 205.042 121.515 204.967C121.439 204.892 121.401 204.802 121.401 204.697V201.687C121.401 201.493 121.462 201.328 121.583 201.193C122.67 200.16 123.765 199.03 124.868 197.802C125.986 196.574 126.688 195.81 126.975 195.511C127.594 194.792 128.221 194.103 128.855 193.444C130.849 191.258 131.846 189.633 131.846 188.57C131.846 187.807 131.574 187.178 131.03 186.684C130.472 186.204 129.754 185.965 128.878 185.965C128.002 185.965 127.292 186.204 126.748 186.684C126.205 187.178 125.933 187.829 125.933 188.638V189.446C125.933 189.551 125.895 189.641 125.819 189.716C125.744 189.791 125.646 189.828 125.525 189.828H121.651C121.545 189.828 121.454 189.791 121.379 189.716C121.303 189.641 121.266 189.551 121.266 189.446V187.919C121.326 186.751 121.696 185.71 122.376 184.797C123.055 183.898 123.962 183.21 125.094 182.73C126.227 182.251 127.489 182.012 128.878 182.012C130.434 182.012 131.786 182.304 132.934 182.888C134.097 183.457 134.988 184.228 135.607 185.201C136.226 186.189 136.536 187.275 136.536 188.458C136.536 189.371 136.309 190.307 135.856 191.266C135.388 192.224 134.693 193.257 133.772 194.365C133.092 195.204 132.36 196.042 131.574 196.881C130.789 197.704 129.618 198.895 128.062 200.452L127.564 200.946Z" fill="#252530"/>
<path d="M99.8937 215.353L15.415 193.346L-21.5 234.64L221.788 220.782V181.987L99.8937 215.353Z" fill="#F2F3F2"/>
</g>
</g>
<defs>
<filter id="filter0_d_1_1780" x="0.283051" y="0.962288" width="220.092" height="242.787" filterUnits="userSpaceOnUse" color-interpolation-filters="sRGB">
<feFlood flood-opacity="0" result="BackgroundImageFix"/>
<feColorMatrix in="SourceAlpha" type="matrix" values="0 0 0 0 0 0 0 0 0 0 0 0 0 0 0 0 0 0 127 0" result="hardAlpha"/>
<feOffset dx="9" dy="5.67924"/>
<feGaussianBlur stdDeviation="11.3585"/>
<feComposite in2="hardAlpha" operator="out"/>
<feColorMatrix type="matrix" values="0 0 0 0 0.32549 0 0 0 0 0.32549 0 0 0 0 0.380392 0 0 0 0.15 0"/>
<feBlend mode="normal" in2="BackgroundImageFix" result="effect1_dropShadow_1_1780"/>
<feBlend mode="normal" in="SourceGraphic" in2="effect1_dropShadow_1_1780" result="shape"/>
</filter>
<clipPath id="clip0_1_1780">
<rect x="14" y="18" width="174.658" height="197.354" rx="24.9319" fill="white"/>
</clipPath>
</defs>
</svg>
