<svg width="219" height="243" viewBox="0 0 219 243" fill="none" xmlns="http://www.w3.org/2000/svg">
<g filter="url(#filter0_d_1_1769)">
<g clip-path="url(#clip0_1_1769)">
<rect x="31.0078" y="17" width="174.456" height="196.877" rx="25.2226" fill="#FFDE7B"/>
<path d="M29.2188 189.481L118.97 234.393L205.314 189.481V13.8525H29.2188V189.481Z" fill="white"/>
<path d="M207.129 14.5225L27.3984 192.608L120.558 237.968L207.129 194.396V14.5225Z" fill="#F2F3F2"/>
<path d="M23.3125 72.3972V193.281L26.4936 194.845L116.245 239.758L118.972 241.098L121.698 239.758L208.269 194.845L211.45 193.281V8.04492H23.3125V72.3972ZM29.2202 189.929V13.8545H205.542V189.929L118.972 234.842L29.2202 189.929Z" fill="#DCDEDC"/>
<path d="M117.376 16.7593C118.285 16.7593 119.193 16.7593 120.102 16.9827L117.376 22.122C113.286 21.8985 109.65 25.0268 109.423 29.0488C109.196 33.0708 112.377 36.6459 116.467 36.8694H117.376C119.193 36.8694 121.011 36.199 122.375 35.0818L125.328 39.9976C123.056 41.5617 120.33 42.4555 117.376 42.4555C110.105 42.679 103.97 37.3163 103.743 30.166C103.515 23.0158 108.969 16.9827 116.24 16.7593H117.376ZM126.692 27.7081L130.1 33.2943L126.692 38.6569L123.511 33.2943H116.921L120.33 27.7081H126.692ZM121.238 25.6971C121.238 24.8033 121.466 23.9095 121.92 23.2392C122.375 22.5689 123.283 21.8985 123.965 21.4516L124.42 21.2282C125.328 20.7813 125.556 20.5579 125.556 20.111C125.556 19.6641 124.874 19.2172 124.42 19.2172C123.511 19.2172 122.829 19.6641 122.375 20.5579L121.238 19.4406C121.466 18.9937 121.92 18.5469 122.375 18.1C123.056 17.6531 123.738 17.6531 124.42 17.6531C125.101 17.6531 126.01 17.8765 126.465 18.3234C126.919 18.7703 127.373 19.4406 127.373 20.111C127.373 21.2282 126.692 22.122 125.328 22.5689L124.647 23.0158C123.965 23.4627 123.511 23.6861 123.283 24.3564H127.373V25.9206L121.238 25.6971ZM117.376 53.6278L138.962 41.5617V8.04492H95.5627V41.3383L117.376 53.6278ZM215.762 132.727H18.9898L11.7188 148.369L18.9898 164.01H215.762L222.805 148.369L215.762 132.727Z" fill="#FF492C"/>
<path d="M50.1219 99.1876C51.6216 99.1876 52.9395 99.4855 54.0756 100.081C55.2116 100.677 56.0902 101.534 56.7113 102.651C57.3324 103.753 57.6429 105.02 57.6429 106.45C57.6429 107.865 57.3248 109.109 56.6886 110.181C56.0372 111.239 55.1283 112.065 53.9619 112.661C52.7955 113.257 51.4474 113.555 49.9174 113.555H45.0777C44.9716 113.555 44.9186 113.615 44.9186 113.734V122.27C44.9186 122.389 44.8732 122.486 44.7823 122.56C44.7065 122.634 44.6081 122.672 44.4869 122.672H40.5106C40.3894 122.672 40.2909 122.634 40.2152 122.56C40.1394 122.486 40.1016 122.389 40.1016 122.27V99.5898C40.1016 99.4706 40.1394 99.3738 40.2152 99.2993C40.2909 99.2248 40.3894 99.1876 40.5106 99.1876H50.1219ZM49.3948 109.779C50.4552 109.779 51.2959 109.481 51.917 108.885C52.5532 108.289 52.8713 107.515 52.8713 106.561C52.8713 105.563 52.5532 104.766 51.917 104.17C51.2959 103.56 50.4552 103.254 49.3948 103.254H45.0777C44.9716 103.254 44.9186 103.314 44.9186 103.433V109.6C44.9186 109.719 44.9716 109.779 45.0777 109.779H49.3948ZM74.8434 112.281C74.9646 113.131 75.0025 114.076 74.957 115.119C74.9419 115.402 74.798 115.544 74.5253 115.544H64.005C63.8687 115.544 63.8157 115.596 63.846 115.7C63.9217 116.147 64.0505 116.594 64.2323 117.041C64.823 118.292 66.0273 118.918 67.845 118.918C69.2992 118.903 70.4429 118.322 71.2761 117.175C71.3821 117.041 71.4881 116.974 71.5942 116.974C71.6548 116.974 71.7305 117.019 71.8214 117.108L74.2754 119.476C74.3965 119.596 74.4571 119.7 74.4571 119.789C74.4571 119.834 74.4117 119.923 74.3208 120.057C73.5634 120.981 72.6015 121.689 71.4351 122.18C70.2384 122.687 68.9357 122.94 67.5269 122.94C65.588 122.94 63.9369 122.508 62.5736 121.644C61.2254 120.765 60.2559 119.543 59.6651 117.979C59.1804 116.862 58.938 115.402 58.938 113.6C58.938 112.363 59.1122 111.276 59.4606 110.338C59.9908 108.759 60.9073 107.5 62.21 106.561C63.5127 105.623 65.0578 105.154 66.8453 105.154C69.1175 105.154 70.9428 105.802 72.3213 107.098C73.6997 108.394 74.5404 110.122 74.8434 112.281ZM66.8907 109.243C65.4517 109.243 64.5049 109.898 64.0505 111.209C63.9596 111.507 63.8839 111.864 63.8233 112.281C63.8233 112.386 63.8839 112.438 64.005 112.438H69.89C70.0264 112.438 70.0718 112.386 70.0263 112.281C69.9052 111.641 69.8446 111.328 69.8446 111.343C69.6476 110.673 69.2917 110.151 68.7766 109.779C68.2768 109.421 67.6481 109.243 66.8907 109.243ZM86.6588 105.221C87.4768 105.221 88.1282 105.377 88.6129 105.69C88.7795 105.779 88.8401 105.943 88.7947 106.181L88.0903 110.002C88.0751 110.27 87.9161 110.352 87.6131 110.248C87.2647 110.129 86.8709 110.069 86.4316 110.069C86.2498 110.069 85.9923 110.092 85.659 110.136C84.8562 110.211 84.167 110.509 83.5913 111.03C83.0309 111.552 82.7506 112.252 82.7506 113.131V122.27C82.7506 122.389 82.7052 122.486 82.6143 122.56C82.5386 122.634 82.4477 122.672 82.3416 122.672H78.3426C78.2365 122.672 78.1381 122.634 78.0472 122.56C77.9715 122.486 77.9336 122.389 77.9336 122.27V105.846C77.9336 105.742 77.9715 105.645 78.0472 105.556C78.1381 105.481 78.2365 105.444 78.3426 105.444H82.3416C82.4477 105.444 82.5386 105.481 82.6143 105.556C82.7052 105.645 82.7506 105.742 82.7506 105.846V107.12C82.7506 107.179 82.7734 107.224 82.8188 107.254C82.8491 107.284 82.8794 107.269 82.9097 107.209C83.8489 105.884 85.0986 105.221 86.6588 105.221ZM101.178 105.422C101.299 105.422 101.398 105.459 101.474 105.533C101.549 105.608 101.587 105.705 101.587 105.824V108.997C101.587 109.116 101.549 109.213 101.474 109.287C101.398 109.362 101.299 109.399 101.178 109.399H97.8834C97.7623 109.399 97.7017 109.451 97.7017 109.555V122.27C97.7017 122.389 97.6638 122.486 97.5881 122.56C97.5123 122.634 97.4139 122.672 97.2927 122.672H93.3163C93.1952 122.672 93.0967 122.634 93.021 122.56C92.9452 122.486 92.9073 122.389 92.9073 122.27V109.555C92.9073 109.451 92.8467 109.399 92.7256 109.399H90.726C90.6048 109.399 90.5064 109.362 90.4306 109.287C90.3549 109.213 90.317 109.116 90.317 108.997V105.824C90.317 105.705 90.3549 105.608 90.4306 105.533C90.5064 105.459 90.6048 105.422 90.726 105.422H92.7256C92.8467 105.422 92.9073 105.362 92.9073 105.243V104.506C92.9073 103.12 93.1194 102.04 93.5436 101.266C93.9828 100.506 94.6797 99.9622 95.634 99.6345C96.6034 99.3068 97.944 99.1652 99.6558 99.2099H100.951C101.057 99.2099 101.148 99.2472 101.224 99.3217C101.314 99.411 101.36 99.5079 101.36 99.6121V102.316C101.36 102.435 101.314 102.532 101.224 102.606C101.148 102.696 101.057 102.74 100.951 102.74H99.8148C99.0271 102.755 98.4742 102.912 98.1561 103.21C97.8531 103.522 97.7017 104.081 97.7017 104.885V105.243C97.7017 105.362 97.7623 105.422 97.8834 105.422H101.178ZM111.062 122.94C109.154 122.94 107.518 122.448 106.154 121.465C104.791 120.482 103.859 119.141 103.359 117.443C103.041 116.4 102.882 115.261 102.882 114.024C102.882 112.713 103.041 111.529 103.359 110.472C103.89 108.818 104.836 107.522 106.2 106.584C107.563 105.645 109.199 105.176 111.108 105.176C112.956 105.176 114.546 105.638 115.879 106.561C117.182 107.5 118.106 108.796 118.651 110.449C119.03 111.566 119.219 112.736 119.219 113.957C119.219 115.164 119.06 116.296 118.742 117.354C118.242 119.097 117.311 120.46 115.947 121.443C114.599 122.441 112.971 122.94 111.062 122.94ZM111.062 118.895C111.804 118.895 112.441 118.672 112.971 118.225C113.501 117.778 113.88 117.16 114.107 116.371C114.274 115.656 114.357 114.873 114.357 114.024C114.357 113.086 114.274 112.296 114.107 111.656C113.849 110.896 113.463 110.3 112.948 109.868C112.418 109.451 111.774 109.243 111.017 109.243C110.259 109.243 109.623 109.451 109.108 109.868C108.593 110.3 108.222 110.896 107.995 111.656C107.813 112.177 107.722 112.967 107.722 114.024C107.722 115.037 107.805 115.819 107.972 116.371C108.199 117.16 108.578 117.778 109.108 118.225C109.638 118.672 110.29 118.895 111.062 118.895ZM131.035 105.221C131.853 105.221 132.504 105.377 132.989 105.69C133.171 105.779 133.231 105.943 133.171 106.181L132.466 110.002C132.451 110.27 132.292 110.352 131.989 110.248C131.641 110.129 131.247 110.069 130.808 110.069C130.626 110.069 130.376 110.092 130.058 110.136C129.24 110.211 128.543 110.509 127.967 111.03C127.407 111.552 127.127 112.252 127.127 113.131V122.27C127.127 122.389 127.081 122.486 126.99 122.56C126.915 122.634 126.816 122.672 126.695 122.672H122.719C122.612 122.672 122.514 122.634 122.423 122.56C122.347 122.486 122.31 122.389 122.31 122.27V105.846C122.31 105.742 122.347 105.645 122.423 105.556C122.514 105.481 122.612 105.444 122.719 105.444H126.695C126.816 105.444 126.915 105.481 126.99 105.556C127.081 105.645 127.127 105.742 127.127 105.846V107.12C127.127 107.179 127.142 107.224 127.172 107.254C127.233 107.284 127.27 107.269 127.286 107.209C128.225 105.884 129.475 105.221 131.035 105.221ZM154.779 105.176C156.551 105.176 157.938 105.697 158.937 106.74C159.937 107.798 160.437 109.28 160.437 111.187V122.27C160.437 122.389 160.399 122.486 160.323 122.56C160.248 122.634 160.157 122.672 160.051 122.672H156.052C155.946 122.672 155.847 122.634 155.756 122.56C155.68 122.486 155.643 122.389 155.643 122.27V112.214C155.643 111.306 155.408 110.583 154.938 110.047C154.453 109.511 153.81 109.243 153.007 109.243C152.219 109.243 151.575 109.511 151.075 110.047C150.576 110.583 150.326 111.298 150.326 112.192V122.27C150.326 122.389 150.288 122.486 150.212 122.56C150.121 122.634 150.023 122.672 149.917 122.672H145.963C145.842 122.672 145.743 122.634 145.668 122.56C145.592 122.486 145.554 122.389 145.554 122.27V112.214C145.554 111.321 145.304 110.598 144.804 110.047C144.304 109.511 143.653 109.243 142.85 109.243C142.138 109.243 141.532 109.451 141.032 109.868C140.548 110.3 140.26 110.896 140.169 111.656V122.27C140.169 122.389 140.131 122.486 140.055 122.56C139.964 122.634 139.866 122.672 139.76 122.672H135.784C135.662 122.672 135.564 122.634 135.488 122.56C135.412 122.486 135.375 122.389 135.375 122.27V105.846C135.375 105.742 135.412 105.645 135.488 105.556C135.564 105.481 135.662 105.444 135.784 105.444H139.76C139.866 105.444 139.964 105.481 140.055 105.556C140.131 105.645 140.169 105.742 140.169 105.846V107.165C140.169 107.224 140.192 107.269 140.237 107.299C140.283 107.314 140.328 107.284 140.373 107.209C141.313 105.854 142.759 105.176 144.713 105.176C145.849 105.176 146.842 105.414 147.69 105.891C148.538 106.353 149.19 107.023 149.644 107.902C149.705 108.036 149.788 108.036 149.894 107.902C150.379 106.978 151.053 106.293 151.916 105.846C152.764 105.399 153.719 105.176 154.779 105.176ZM179.228 112.281C179.364 113.131 179.41 114.076 179.364 115.119C179.334 115.402 179.183 115.544 178.91 115.544H168.39C168.253 115.544 168.208 115.596 168.253 115.7C168.314 116.147 168.435 116.594 168.617 117.041C169.208 118.292 170.412 118.918 172.23 118.918C173.684 118.903 174.835 118.322 175.683 117.175C175.774 117.041 175.873 116.974 175.979 116.974C176.054 116.974 176.138 117.019 176.229 117.108L178.683 119.476C178.789 119.596 178.842 119.7 178.842 119.789C178.842 119.834 178.796 119.923 178.705 120.057C177.963 120.981 177.001 121.689 175.82 122.18C174.638 122.687 173.343 122.94 171.934 122.94C169.98 122.94 168.329 122.508 166.981 121.644C165.618 120.765 164.64 119.543 164.05 117.979C163.58 116.862 163.345 115.402 163.345 113.6C163.345 112.363 163.512 111.276 163.845 110.338C164.375 108.759 165.292 107.5 166.595 106.561C167.897 105.623 169.45 105.154 171.253 105.154C173.525 105.154 175.35 105.802 176.729 107.098C178.107 108.394 178.94 110.122 179.228 112.281ZM171.275 109.243C169.851 109.243 168.912 109.898 168.458 111.209C168.367 111.507 168.284 111.864 168.208 112.281C168.208 112.386 168.268 112.438 168.39 112.438H174.275C174.411 112.438 174.456 112.386 174.411 112.281C174.305 111.641 174.252 111.328 174.252 111.343C174.04 110.673 173.684 110.151 173.184 109.779C172.669 109.421 172.033 109.243 171.275 109.243ZM191.043 105.221C191.861 105.221 192.513 105.377 192.997 105.69C193.179 105.779 193.247 105.943 193.202 106.181L192.498 110.002C192.467 110.27 192.301 110.352 191.998 110.248C191.664 110.129 191.271 110.069 190.816 110.069C190.634 110.069 190.384 110.092 190.066 110.136C189.248 110.211 188.552 110.509 187.976 111.03C187.415 111.552 187.135 112.252 187.135 113.131V122.27C187.135 122.389 187.097 122.486 187.022 122.56C186.931 122.634 186.832 122.672 186.726 122.672H182.727C182.621 122.672 182.53 122.634 182.454 122.56C182.364 122.486 182.318 122.389 182.318 122.27V105.846C182.318 105.742 182.364 105.645 182.454 105.556C182.53 105.481 182.621 105.444 182.727 105.444H186.726C186.832 105.444 186.931 105.481 187.022 105.556C187.097 105.645 187.135 105.742 187.135 105.846V107.12C187.135 107.179 187.158 107.224 187.203 107.254C187.249 107.284 187.287 107.269 187.317 107.209C188.241 105.884 189.483 105.221 191.043 105.221ZM97.2927 66.0953C97.2927 65.9911 97.3305 65.8942 97.4063 65.8048C97.482 65.7304 97.5729 65.6931 97.6789 65.6931H101.678C101.784 65.6931 101.882 65.7304 101.973 65.8048C102.049 65.8942 102.087 65.9911 102.087 66.0953V88.7527C102.087 88.8719 102.049 88.9687 101.973 89.0432C101.882 89.1177 101.784 89.1549 101.678 89.1549H97.6789C97.5729 89.1549 97.482 89.1177 97.4063 89.0432C97.3305 88.9687 97.2927 88.8719 97.2927 88.7527V79.5021C97.2927 79.3978 97.2321 79.3456 97.1109 79.3456H89.5672C89.4612 79.3456 89.4082 79.3978 89.4082 79.5021V88.7527C89.4082 88.8719 89.3703 88.9687 89.2946 89.0432C89.2037 89.1177 89.1052 89.1549 88.9992 89.1549H85.0001C84.8941 89.1549 84.8032 89.1177 84.7274 89.0432C84.6366 88.9687 84.5911 88.8719 84.5911 88.7527V66.0953C84.5911 65.9911 84.6366 65.8942 84.7274 65.8048C84.8032 65.7304 84.8941 65.6931 85.0001 65.6931H88.9992C89.1052 65.6931 89.2037 65.7304 89.2946 65.8048C89.3703 65.8942 89.4082 65.9911 89.4082 66.0953V75.1002C89.4082 75.2193 89.4612 75.2789 89.5672 75.2789H97.1109C97.2321 75.2789 97.2927 75.2193 97.2927 75.1002V66.0953ZM108.29 69.9833C107.518 69.9833 106.874 69.73 106.359 69.2236C105.844 68.732 105.586 68.1063 105.586 67.3466C105.586 66.5571 105.836 65.9166 106.336 65.425C106.836 64.9334 107.487 64.6876 108.29 64.6876C109.093 64.6876 109.744 64.9334 110.244 65.425C110.744 65.9166 110.994 66.5571 110.994 67.3466C110.994 68.1063 110.736 68.732 110.221 69.2236C109.706 69.73 109.063 69.9833 108.29 69.9833ZM106.245 89.1549C106.139 89.1549 106.041 89.1177 105.95 89.0432C105.874 88.9687 105.836 88.8719 105.836 88.7527V72.3071C105.836 72.1879 105.874 72.0911 105.95 72.0166C106.041 71.9422 106.139 71.9049 106.245 71.9049H110.244C110.35 71.9049 110.441 71.9422 110.517 72.0166C110.608 72.0911 110.653 72.1879 110.653 72.3071V88.7527C110.653 88.8719 110.608 88.9687 110.517 89.0432C110.441 89.1177 110.35 89.1549 110.244 89.1549H106.245ZM125.082 72.3295C125.082 72.2252 125.127 72.1284 125.218 72.039C125.294 71.9645 125.385 71.9273 125.491 71.9273H129.49C129.596 71.9273 129.694 71.9645 129.785 72.039C129.861 72.1284 129.899 72.2252 129.899 72.3295V87.6131C129.899 90.5328 129.043 92.6183 127.331 93.8696C125.619 95.1358 123.408 95.7689 120.696 95.7689C119.893 95.7689 119.007 95.7093 118.038 95.5901C117.811 95.5603 117.697 95.4188 117.697 95.1656L117.833 91.7022C117.833 91.4042 117.992 91.2776 118.31 91.3223C119.128 91.4564 119.878 91.5234 120.56 91.5234C122.014 91.5234 123.135 91.218 123.923 90.6073C124.695 89.9667 125.082 88.9612 125.082 87.5908C125.082 87.5163 125.059 87.4716 125.013 87.4567C124.968 87.4418 124.923 87.4642 124.877 87.5237C124.014 88.4324 122.756 88.8868 121.105 88.8868C119.621 88.8868 118.265 88.5367 117.038 87.8366C115.796 87.1364 114.91 86.0043 114.38 84.4402C114.046 83.4123 113.88 82.0791 113.88 80.4405C113.88 78.6976 114.084 77.2825 114.493 76.1951C114.963 74.8246 115.766 73.7297 116.902 72.9104C118.038 72.0762 119.363 71.6591 120.878 71.6591C122.62 71.6591 123.953 72.173 124.877 73.2009C124.923 73.2456 124.968 73.2605 125.013 73.2456C125.059 73.2307 125.082 73.1934 125.082 73.1339V72.3295ZM124.809 83.1442C124.991 82.4888 125.082 81.5727 125.082 80.3958C125.082 79.7106 125.059 79.1818 125.013 78.8094C124.968 78.4221 124.892 78.0571 124.786 77.7145C124.574 77.1186 124.233 76.6345 123.764 76.2621C123.294 75.9046 122.703 75.7258 121.991 75.7258C121.31 75.7258 120.734 75.9046 120.265 76.2621C119.78 76.6345 119.424 77.1186 119.197 77.7145C118.879 78.3848 118.719 79.2935 118.719 80.4405C118.719 81.6918 118.856 82.5856 119.128 83.1219C119.325 83.7326 119.681 84.2168 120.196 84.5743C120.711 84.9467 121.317 85.1329 122.014 85.1329C122.741 85.1329 123.347 84.9467 123.832 84.5743C124.301 84.2168 124.627 83.7401 124.809 83.1442ZM142.487 71.6591C144.304 71.6591 145.766 72.2103 146.872 73.3126C147.978 74.4001 148.531 75.8822 148.531 77.7592V88.7527C148.531 88.8719 148.493 88.9687 148.417 89.0432C148.341 89.1177 148.25 89.1549 148.144 89.1549H144.145C144.039 89.1549 143.941 89.1177 143.85 89.0432C143.774 88.9687 143.736 88.8719 143.736 88.7527V78.72C143.736 77.8411 143.479 77.1186 142.964 76.5526C142.464 76.0014 141.79 75.7258 140.942 75.7258C140.108 75.7258 139.434 76.0014 138.919 76.5526C138.404 77.1186 138.147 77.8411 138.147 78.72V88.7527C138.147 88.8719 138.109 88.9687 138.033 89.0432C137.957 89.1177 137.859 89.1549 137.738 89.1549H133.761C133.64 89.1549 133.542 89.1177 133.466 89.0432C133.39 88.9687 133.352 88.8719 133.352 88.7527V66.0953C133.352 65.9911 133.39 65.8942 133.466 65.8048C133.542 65.7304 133.64 65.6931 133.761 65.6931H137.738C137.859 65.6931 137.957 65.7304 138.033 65.8048C138.109 65.8942 138.147 65.9911 138.147 66.0953V73.5137C138.147 73.5733 138.169 73.618 138.215 73.6478C138.26 73.6627 138.291 73.6478 138.306 73.6031C139.245 72.3071 140.639 71.6591 142.487 71.6591Z" fill="#252530"/>
<path d="M81.7106 157.083C81.544 157.083 81.4379 157.008 81.3925 156.859L77.2571 141.732L77.2344 141.642C77.2344 141.508 77.3177 141.441 77.4843 141.441H79.7111C79.8777 141.441 79.9837 141.516 80.0292 141.665L82.6195 151.854C82.6346 151.899 82.6573 151.921 82.6876 151.921C82.7179 151.921 82.7407 151.899 82.7558 151.854L85.2325 141.665C85.2779 141.516 85.3764 141.441 85.5279 141.441H87.7092C87.8758 141.441 87.9818 141.516 88.0273 141.665L90.663 151.876C90.6782 151.921 90.7009 151.943 90.7312 151.943C90.7615 151.943 90.7842 151.921 90.7994 151.876L93.3442 141.665C93.3897 141.516 93.4957 141.441 93.6623 141.441H95.7755C95.9875 141.441 96.0709 141.538 96.0254 141.732L92.0945 156.859C92.0491 157.008 91.943 157.083 91.7764 157.083H89.6633C89.4966 157.083 89.3906 157.008 89.3452 156.859L86.6867 146.201C86.6716 146.156 86.6488 146.126 86.6185 146.111C86.5882 146.111 86.5655 146.141 86.5504 146.201L84.0055 156.859C83.9601 157.008 83.8616 157.083 83.7101 157.083H81.7106ZM98.5476 157.083C98.4718 157.083 98.4036 157.053 98.3431 156.993C98.2976 156.949 98.2749 156.889 98.2749 156.814V141.71C98.2749 141.635 98.2976 141.575 98.3431 141.531C98.4036 141.471 98.4718 141.441 98.5476 141.441H100.638C100.714 141.441 100.774 141.471 100.82 141.531C100.88 141.575 100.911 141.635 100.911 141.71V156.814C100.911 156.889 100.88 156.949 100.82 156.993C100.774 157.053 100.714 157.083 100.638 157.083H98.5476ZM113.476 141.71C113.476 141.635 113.499 141.575 113.544 141.531C113.605 141.471 113.673 141.441 113.749 141.441H115.839C115.915 141.441 115.975 141.471 116.021 141.531C116.081 141.575 116.112 141.635 116.112 141.71V156.814C116.112 156.889 116.081 156.949 116.021 156.993C115.975 157.053 115.915 157.083 115.839 157.083H113.817C113.665 157.083 113.559 157.023 113.499 156.904L106.955 146.357C106.924 146.313 106.894 146.29 106.864 146.29C106.833 146.305 106.818 146.342 106.818 146.402L106.864 156.814C106.864 156.889 106.833 156.949 106.773 156.993C106.727 157.053 106.667 157.083 106.591 157.083H104.501C104.425 157.083 104.357 157.053 104.296 156.993C104.251 156.949 104.228 156.889 104.228 156.814V141.71C104.228 141.635 104.251 141.575 104.296 141.531C104.357 141.471 104.425 141.441 104.501 141.441H106.523C106.674 141.441 106.78 141.501 106.841 141.62L113.362 152.167C113.393 152.211 113.423 152.226 113.453 152.211C113.483 152.211 113.499 152.182 113.499 152.122L113.476 141.71ZM129.881 141.441C129.957 141.441 130.017 141.471 130.063 141.531C130.123 141.575 130.154 141.635 130.154 141.71V143.43C130.154 143.505 130.123 143.564 130.063 143.609C130.017 143.668 129.957 143.698 129.881 143.698H125.7C125.625 143.698 125.587 143.735 125.587 143.81V156.814C125.587 156.889 125.564 156.949 125.518 156.993C125.458 157.053 125.39 157.083 125.314 157.083H123.224C123.148 157.083 123.087 157.053 123.042 156.993C122.981 156.949 122.951 156.889 122.951 156.814V143.81C122.951 143.735 122.913 143.698 122.837 143.698H118.816C118.74 143.698 118.672 143.668 118.611 143.609C118.566 143.564 118.543 143.505 118.543 143.43V141.71C118.543 141.635 118.566 141.575 118.611 141.531C118.672 141.471 118.74 141.441 118.816 141.441H129.881ZM143.355 143.408C143.355 143.482 143.325 143.542 143.264 143.586C143.219 143.646 143.158 143.676 143.083 143.676H135.334C135.259 143.676 135.221 143.713 135.221 143.788V147.966C135.221 148.04 135.259 148.078 135.334 148.078H140.538C140.613 148.078 140.682 148.1 140.742 148.145C140.788 148.204 140.81 148.271 140.81 148.346V150.044C140.81 150.119 140.788 150.186 140.742 150.245C140.682 150.29 140.613 150.312 140.538 150.312H135.334C135.259 150.312 135.221 150.349 135.221 150.424V154.736C135.221 154.811 135.259 154.848 135.334 154.848H143.083C143.158 154.848 143.219 154.878 143.264 154.938C143.325 154.982 143.355 155.042 143.355 155.116V156.814C143.355 156.889 143.325 156.949 143.264 156.993C143.219 157.053 143.158 157.083 143.083 157.083H132.858C132.782 157.083 132.714 157.053 132.653 156.993C132.608 156.949 132.585 156.889 132.585 156.814V141.71C132.585 141.635 132.608 141.575 132.653 141.531C132.714 141.471 132.782 141.441 132.858 141.441H143.083C143.158 141.441 143.219 141.471 143.264 141.531C143.325 141.575 143.355 141.635 143.355 141.71V143.408ZM154.966 157.083C154.815 157.083 154.709 157.016 154.648 156.881L151.649 150.446C151.618 150.387 151.573 150.357 151.512 150.357H148.786C148.71 150.357 148.672 150.394 148.672 150.469V156.814C148.672 156.889 148.642 156.949 148.581 156.993C148.536 157.053 148.475 157.083 148.399 157.083H146.309C146.233 157.083 146.165 157.053 146.105 156.993C146.059 156.949 146.036 156.889 146.036 156.814V141.71C146.036 141.635 146.059 141.575 146.105 141.531C146.165 141.471 146.233 141.441 146.309 141.441H152.558C153.482 141.441 154.3 141.628 155.012 142C155.724 142.387 156.276 142.924 156.67 143.609C157.064 144.309 157.261 145.106 157.261 146C157.261 147.028 156.988 147.899 156.443 148.614C155.913 149.344 155.171 149.85 154.216 150.133C154.186 150.133 154.163 150.148 154.148 150.178C154.133 150.208 154.133 150.238 154.148 150.267L157.352 156.77C157.382 156.829 157.397 156.874 157.397 156.904C157.397 157.023 157.314 157.083 157.147 157.083H154.966ZM148.786 143.676C148.71 143.676 148.672 143.713 148.672 143.788V148.234C148.672 148.309 148.71 148.346 148.786 148.346H152.194C152.921 148.346 153.512 148.13 153.966 147.698C154.406 147.281 154.625 146.722 154.625 146.022C154.625 145.322 154.406 144.756 153.966 144.324C153.512 143.892 152.921 143.676 152.194 143.676H148.786Z" fill="white"/>
<path d="M87.5425 197.436C87.4971 197.481 87.482 197.525 87.4971 197.57C87.5274 197.615 87.5728 197.637 87.6334 197.637H96.5632C96.6692 197.637 96.7601 197.674 96.8358 197.749C96.9267 197.823 96.9721 197.913 96.9721 198.017V201.168C96.9721 201.272 96.9267 201.361 96.8358 201.436C96.7601 201.51 96.6692 201.547 96.5632 201.547H81.7485C81.6273 201.547 81.5288 201.51 81.4531 201.436C81.3773 201.361 81.3395 201.272 81.3395 201.168V198.173C81.3395 197.98 81.4076 197.816 81.544 197.682C82.6195 196.654 83.7177 195.529 84.8386 194.308C85.9596 193.086 86.664 192.327 86.9518 192.029C87.5577 191.314 88.1788 190.628 88.815 189.973C90.8145 187.798 91.8143 186.182 91.8143 185.124C91.8143 184.364 91.5416 183.739 90.9963 183.247C90.451 182.771 89.739 182.532 88.8604 182.532C87.9818 182.532 87.2699 182.771 86.7246 183.247C86.1641 183.739 85.8838 184.387 85.8838 185.191V185.996C85.8838 186.1 85.846 186.189 85.7702 186.264C85.6945 186.338 85.6036 186.376 85.4976 186.376H81.6121C81.5061 186.376 81.4152 186.338 81.3395 186.264C81.2486 186.189 81.2031 186.1 81.2031 185.996V184.476C81.2789 183.314 81.6576 182.279 82.3392 181.37C83.0209 180.477 83.9222 179.791 85.0431 179.315C86.1792 178.838 87.4517 178.6 88.8604 178.6C90.4207 178.6 91.7764 178.89 92.9276 179.471C94.0789 180.037 94.965 180.804 95.5861 181.773C96.2223 182.756 96.5404 183.836 96.5404 185.012C96.5404 185.921 96.3056 186.852 95.836 187.806C95.3816 188.759 94.6924 189.787 93.7684 190.889C93.0867 191.723 92.352 192.558 91.5643 193.392C90.7766 194.211 89.6027 195.395 88.0424 196.944L87.5425 197.436ZM107.674 201.905C105.251 201.905 103.342 201.242 101.948 199.916C100.539 198.591 99.8351 196.781 99.8351 194.487V185.929C99.8351 183.679 100.539 181.899 101.948 180.588C103.342 179.262 105.251 178.6 107.674 178.6C110.083 178.6 111.999 179.262 113.423 180.588C114.832 181.899 115.536 183.679 115.536 185.929V194.487C115.536 196.781 114.832 198.591 113.423 199.916C111.999 201.242 110.083 201.905 107.674 201.905ZM107.674 197.995C108.659 197.995 109.439 197.697 110.015 197.101C110.605 196.505 110.901 195.708 110.901 194.71V185.795C110.901 184.811 110.605 184.022 110.015 183.426C109.439 182.83 108.659 182.532 107.674 182.532C106.705 182.532 105.932 182.83 105.357 183.426C104.766 184.022 104.47 184.811 104.47 185.795V194.71C104.47 195.708 104.766 196.505 105.357 197.101C105.932 197.697 106.705 197.995 107.674 197.995ZM124.761 197.436C124.716 197.481 124.708 197.525 124.738 197.57C124.753 197.615 124.799 197.637 124.875 197.637H133.804C133.91 197.637 134.001 197.674 134.077 197.749C134.153 197.823 134.191 197.913 134.191 198.017V201.168C134.191 201.272 134.153 201.361 134.077 201.436C134.001 201.51 133.91 201.547 133.804 201.547H118.967C118.861 201.547 118.77 201.51 118.694 201.436C118.619 201.361 118.581 201.272 118.581 201.168V198.173C118.581 197.98 118.641 197.816 118.762 197.682C119.853 196.654 120.951 195.529 122.057 194.308C123.178 193.086 123.882 192.327 124.17 192.029C124.791 191.314 125.42 190.628 126.056 189.973C128.056 187.798 129.056 186.182 129.056 185.124C129.056 184.364 128.783 183.739 128.238 183.247C127.677 182.771 126.958 182.532 126.079 182.532C125.2 182.532 124.488 182.771 123.943 183.247C123.398 183.739 123.125 184.387 123.125 185.191V185.996C123.125 186.1 123.087 186.189 123.011 186.264C122.936 186.338 122.837 186.376 122.716 186.376H118.831C118.725 186.376 118.634 186.338 118.558 186.264C118.482 186.189 118.444 186.1 118.444 185.996V184.476C118.505 183.314 118.876 182.279 119.558 181.37C120.239 180.477 121.148 179.791 122.284 179.315C123.42 178.838 124.685 178.6 126.079 178.6C127.639 178.6 128.995 178.89 130.146 179.471C131.313 180.037 132.206 180.804 132.827 181.773C133.448 182.756 133.759 183.836 133.759 185.012C133.759 185.921 133.532 186.852 133.077 187.806C132.608 188.759 131.911 189.787 130.987 190.889C130.305 191.723 129.571 192.558 128.783 193.392C127.995 194.211 126.821 195.395 125.261 196.944L124.761 197.436ZM143.211 197.436C143.166 197.481 143.158 197.525 143.189 197.57C143.204 197.615 143.249 197.637 143.325 197.637H152.255C152.361 197.637 152.452 197.674 152.527 197.749C152.603 197.823 152.641 197.913 152.641 198.017V201.168C152.641 201.272 152.603 201.361 152.527 201.436C152.452 201.51 152.361 201.547 152.255 201.547H137.417C137.311 201.547 137.22 201.51 137.145 201.436C137.069 201.361 137.031 201.272 137.031 201.168V198.173C137.031 197.98 137.092 197.816 137.213 197.682C138.303 196.654 139.402 195.529 140.507 194.308C141.628 193.086 142.333 192.327 142.621 192.029C143.242 191.314 143.87 190.628 144.506 189.973C146.506 187.798 147.506 186.182 147.506 185.124C147.506 184.364 147.233 183.739 146.688 183.247C146.127 182.771 145.408 182.532 144.529 182.532C143.651 182.532 142.939 182.771 142.393 183.247C141.848 183.739 141.575 184.387 141.575 185.191V185.996C141.575 186.1 141.537 186.189 141.462 186.264C141.386 186.338 141.287 186.376 141.166 186.376H137.281C137.175 186.376 137.084 186.338 137.008 186.264C136.932 186.189 136.895 186.1 136.895 185.996V184.476C136.955 183.314 137.326 182.279 138.008 181.37C138.69 180.477 139.598 179.791 140.735 179.315C141.871 178.838 143.136 178.6 144.529 178.6C146.089 178.6 147.445 178.89 148.596 179.471C149.763 180.037 150.656 180.804 151.278 181.773C151.899 182.756 152.209 183.836 152.209 185.012C152.209 185.921 151.982 186.852 151.528 187.806C151.058 188.759 150.361 189.787 149.437 190.889C148.755 191.723 148.021 192.558 147.233 193.392C146.445 194.211 145.271 195.395 143.711 196.944L143.211 197.436Z" fill="#252530"/>
<path d="M118.314 211.514L4.01886 180.988L-4.5 233.641L238.788 219.783V180.988L118.314 211.514Z" fill="#F2F3F2"/>
</g>
</g>
<defs>
<filter id="filter0_d_1_1769" x="0" y="0.679237" width="218.658" height="241.354" filterUnits="userSpaceOnUse" color-interpolation-filters="sRGB">
<feFlood flood-opacity="0" result="BackgroundImageFix"/>
<feColorMatrix in="SourceAlpha" type="matrix" values="0 0 0 0 0 0 0 0 0 0 0 0 0 0 0 0 0 0 127 0" result="hardAlpha"/>
<feOffset dx="-9" dy="5.67924"/>
<feGaussianBlur stdDeviation="11"/>
<feComposite in2="hardAlpha" operator="out"/>
<feColorMatrix type="matrix" values="0 0 0 0 0.32549 0 0 0 0 0.32549 0 0 0 0 0.380392 0 0 0 0.15 0"/>
<feBlend mode="normal" in2="BackgroundImageFix" result="effect1_dropShadow_1_1769"/>
<feBlend mode="normal" in="SourceGraphic" in2="effect1_dropShadow_1_1769" result="shape"/>
</filter>
<clipPath id="clip0_1_1769">
<rect x="31" y="17" width="174.658" height="197.354" rx="24.9319" fill="white"/>
</clipPath>
</defs>
</svg>
