<svg width="174" height="193" viewBox="0 0 174 193" fill="none" xmlns="http://www.w3.org/2000/svg">
<g filter="url(#filter0_d_1_1742)">
<g clip-path="url(#clip0_1_1742)">
<rect x="25" y="11" width="139.548" height="157.482" rx="20.1757" fill="#FFDE7B"/>
<path d="M25.1406 150.146L96.064 186.236L164.294 150.146V9.01758H25.1406V150.146Z" fill="white"/>
<path d="M165.737 9.55859L23.7109 152.662L97.3276 189.112L165.737 154.099V9.55859Z" fill="#F2F3F2"/>
<path d="M20.4766 56.0628V153.201L22.9903 154.458L93.9137 190.548L96.0684 191.625L98.223 190.548L166.633 154.458L169.146 153.201V4.35156H20.4766V56.0628ZM25.1449 150.508V9.01994H164.478V150.508L96.0684 186.598L25.1449 150.508Z" fill="#DCDEDC"/>
<path d="M94.8152 11.3541C95.5334 11.3541 96.2516 11.3541 96.9698 11.5337L94.8152 15.6634C91.5833 15.4838 88.7104 17.9976 88.5309 21.2295C88.3513 24.4615 90.865 27.3343 94.097 27.5139H94.8152C96.2516 27.5139 97.6881 26.9752 98.7654 26.0775L101.1 30.0276C99.304 31.2845 97.1494 32.0027 94.8152 32.0027C89.0695 32.1823 84.2216 27.873 84.042 22.1273C83.8625 16.3816 88.1718 11.5337 93.9174 11.3541H94.8152ZM102.177 20.1522L104.87 24.641L102.177 28.9503L99.6631 24.641H94.4561L97.1494 20.1522H102.177ZM97.8676 18.5362C97.8676 17.818 98.0472 17.0998 98.4063 16.5612C98.7654 16.0225 99.4836 15.4838 100.022 15.1247L100.381 14.9452C101.1 14.5861 101.279 14.4065 101.279 14.0474C101.279 13.6883 100.74 13.3292 100.381 13.3292C99.6631 13.3292 99.1245 13.6883 98.7654 14.4065L97.8676 13.5088C98.0472 13.1497 98.4063 12.7906 98.7654 12.4314C99.304 12.0723 99.8427 12.0723 100.381 12.0723C100.92 12.0723 101.638 12.2519 101.997 12.611C102.356 12.9701 102.716 13.5088 102.716 14.0474C102.716 14.9452 102.177 15.6634 101.1 16.0225L100.561 16.3816C100.022 16.7407 99.6631 16.9203 99.4836 17.4589H102.716V18.7158L97.8676 18.5362ZM94.8152 40.9804L111.873 31.2845V4.35156H77.5781V31.105L94.8152 40.9804Z" fill="#FF492C"/>
<path d="M172.559 104.542H17.066L11.3203 117.111L17.066 129.679H172.559L178.125 117.111L172.559 104.542Z" fill="#FFD200"/>
<path d="M69.8349 77.6084C69.9187 77.6084 69.9965 77.6383 70.0683 77.6982C70.1282 77.77 70.1581 77.8478 70.1581 77.9316V80.571C70.1581 80.6548 70.1282 80.7326 70.0683 80.8044C69.9965 80.8643 69.9187 80.8942 69.8349 80.8942H65.0049C64.9211 80.8942 64.8792 80.9421 64.8792 81.0379V96.1383C64.8792 96.234 64.8493 96.3118 64.7895 96.3717C64.7176 96.4315 64.6398 96.4615 64.556 96.4615H61.3959C61.3121 96.4615 61.2403 96.4315 61.1804 96.3717C61.1086 96.3118 61.0727 96.234 61.0727 96.1383V81.0379C61.0727 80.9421 61.0308 80.8942 60.947 80.8942H56.2607C56.1769 80.8942 56.0991 80.8643 56.0273 80.8044C55.9674 80.7326 55.9375 80.6548 55.9375 80.571V77.9316C55.9375 77.8478 55.9674 77.77 56.0273 77.6982C56.0991 77.6383 56.1769 77.6084 56.2607 77.6084H69.8349ZM76.1911 96.6769C74.6828 96.6769 73.39 96.2819 72.3127 95.4919C71.2354 94.7018 70.4992 93.6245 70.1042 92.2599C69.8529 91.422 69.7272 90.5063 69.7272 89.5128C69.7272 88.4594 69.8529 87.5078 70.1042 86.6579C70.5232 85.3292 71.2653 84.2878 72.3307 83.5336C73.42 82.7795 74.7128 82.4025 76.209 82.4025C77.6933 82.4025 78.9562 82.7735 79.9976 83.5157C81.039 84.2698 81.7692 85.3112 82.1881 86.6399C82.4874 87.5377 82.637 88.4773 82.637 89.4589C82.637 90.4285 82.5054 91.3382 82.242 92.1881C81.859 93.5886 81.1288 94.6839 80.0515 95.4739C78.9861 96.2759 77.6993 96.6769 76.1911 96.6769ZM76.1911 93.427C76.7896 93.427 77.2923 93.2475 77.6993 92.8884C78.1183 92.5293 78.4175 92.0325 78.5971 91.3981C78.7407 90.8235 78.8125 90.1951 78.8125 89.5128C78.8125 88.7586 78.7407 88.1242 78.5971 87.6095C78.3936 86.999 78.0884 86.5202 77.6814 86.1731C77.2624 85.8379 76.7597 85.6703 76.1731 85.6703C75.5626 85.6703 75.0539 85.8379 74.6469 86.1731C74.2399 86.5202 73.9467 86.999 73.7671 87.6095C73.6235 88.0285 73.5516 88.6629 73.5516 89.5128C73.5516 90.3267 73.6175 90.9552 73.7492 91.3981C73.9167 92.0325 74.216 92.5293 74.6469 92.8884C75.0659 93.2475 75.5806 93.427 76.1911 93.427ZM97.5399 96.6769C96.1634 96.6769 94.9484 96.4076 93.895 95.8689C92.8536 95.3303 92.0396 94.5702 91.4531 93.5886C90.8665 92.6071 90.5733 91.4819 90.5733 90.213V77.9316C90.5733 77.8478 90.6032 77.77 90.663 77.6982C90.7349 77.6383 90.8127 77.6084 90.8965 77.6084H94.0386C94.1344 77.6084 94.2122 77.6383 94.2721 77.6982C94.3439 77.77 94.3798 77.8478 94.3798 77.9316V90.2489C94.3798 91.1946 94.6671 91.9607 95.2416 92.5472C95.8282 93.1337 96.5943 93.427 97.5399 93.427C98.4975 93.427 99.2696 93.1337 99.8562 92.5472C100.443 91.9607 100.736 91.1946 100.736 90.2489V77.9316C100.736 77.8478 100.766 77.77 100.826 77.6982C100.886 77.6383 100.963 77.6084 101.059 77.6084H104.201C104.297 77.6084 104.375 77.6383 104.435 77.6982C104.495 77.77 104.525 77.8478 104.525 77.9316V90.213C104.525 91.4819 104.231 92.6071 103.645 93.5886C103.07 94.5702 102.256 95.3303 101.203 95.8689C100.149 96.4076 98.9285 96.6769 97.5399 96.6769ZM112.928 96.641C111.731 96.641 110.683 96.4734 109.785 96.1383C108.888 95.8031 108.187 95.3303 107.685 94.7198C107.194 94.1093 106.948 93.415 106.948 92.637V92.3677C106.948 92.2839 106.978 92.2061 107.038 92.1342C107.098 92.0744 107.176 92.0445 107.272 92.0445H110.27C110.354 92.0445 110.426 92.0744 110.486 92.1342C110.558 92.2061 110.593 92.2839 110.593 92.3677V92.3856C110.593 92.7926 110.809 93.1337 111.24 93.4091C111.683 93.6844 112.233 93.822 112.892 93.822C113.514 93.822 114.011 93.7023 114.382 93.4629C114.753 93.2116 114.939 92.9123 114.939 92.5652C114.939 92.242 114.783 91.9966 114.472 91.829C114.137 91.6734 113.604 91.5058 112.874 91.3262C112.036 91.1108 111.371 90.9013 110.881 90.6978C109.732 90.3028 108.816 89.818 108.134 89.2434C107.451 88.6689 107.11 87.8429 107.11 86.7656C107.11 85.4369 107.625 84.3835 108.654 83.6055C109.684 82.8274 111.054 82.4384 112.766 82.4384C113.915 82.4384 114.921 82.6179 115.783 82.977C116.644 83.3481 117.315 83.8688 117.793 84.5391C118.272 85.1975 118.512 85.9516 118.512 86.8015C118.512 86.8853 118.476 86.9571 118.404 87.017C118.344 87.0768 118.272 87.1068 118.189 87.1068H115.298C115.214 87.1068 115.136 87.0768 115.064 87.017C115.004 86.9571 114.975 86.8853 114.975 86.8015C114.975 86.4065 114.771 86.0713 114.364 85.796C113.969 85.5207 113.436 85.383 112.766 85.383C112.168 85.383 111.683 85.4968 111.312 85.7242C110.941 85.9397 110.755 86.2329 110.755 86.604C110.755 86.9631 110.935 87.2324 111.294 87.412C111.665 87.5915 112.281 87.7831 113.143 87.9866C113.347 88.0344 113.574 88.0883 113.825 88.1482C114.077 88.208 114.34 88.2858 114.615 88.3816C115.896 88.7646 116.902 89.2494 117.632 89.836C118.374 90.4345 118.745 91.2963 118.745 92.4215C118.745 93.7502 118.218 94.7856 117.165 95.5278C116.112 96.2699 114.699 96.641 112.928 96.641ZM133.181 88.1122C133.289 88.7945 133.325 89.5547 133.289 90.3926C133.265 90.62 133.145 90.7337 132.93 90.7337H124.617C124.509 90.7337 124.473 90.7756 124.509 90.8594C124.569 91.2185 124.664 91.5776 124.796 91.9367C125.263 92.9422 126.221 93.445 127.669 93.445C128.818 93.433 129.722 92.9662 130.38 92.0445C130.452 91.9367 130.536 91.8829 130.632 91.8829C130.679 91.8829 130.739 91.9188 130.811 91.9906L132.75 93.8939C132.834 93.9896 132.876 94.0734 132.876 94.1452C132.876 94.1811 132.846 94.253 132.786 94.3607C132.188 95.1028 131.422 95.6714 130.488 96.0664C129.554 96.4734 128.531 96.6769 127.418 96.6769C125.873 96.6769 124.569 96.3298 123.503 95.6355C122.438 94.9293 121.672 93.9477 121.205 92.6908C120.822 91.7931 120.63 90.62 120.63 89.1716C120.63 88.1781 120.768 87.3043 121.043 86.5501C121.45 85.2813 122.169 84.2698 123.198 83.5157C124.227 82.7616 125.454 82.3845 126.879 82.3845C128.674 82.3845 130.117 82.9052 131.206 83.9466C132.295 84.988 132.954 86.3766 133.181 88.1122ZM126.915 85.6703C125.778 85.6703 125.029 86.197 124.67 87.2504C124.599 87.4898 124.533 87.7771 124.473 88.1122C124.473 88.196 124.521 88.2379 124.617 88.2379H129.285C129.393 88.2379 129.429 88.196 129.393 88.1122C129.297 87.5975 129.249 87.3462 129.249 87.3581C129.093 86.8195 128.812 86.4005 128.405 86.1013C127.998 85.814 127.501 85.6703 126.915 85.6703Z" fill="#252530"/>
<path d="M64.2324 53.6029C64.2324 53.6986 64.1965 53.7764 64.1246 53.8363C64.0648 53.8961 63.993 53.9261 63.9092 53.9261H55.0572C54.9734 53.9261 54.9315 53.9739 54.9315 54.0697V58.2353C54.9315 58.3311 54.9734 58.379 55.0572 58.379H60.8568C60.9406 58.379 61.0184 58.4089 61.0902 58.4688C61.15 58.5406 61.18 58.6184 61.18 58.7022V61.3057C61.18 61.4014 61.15 61.4793 61.0902 61.5391C61.0184 61.6109 60.9406 61.6468 60.8568 61.6468H55.0572C54.9734 61.6468 54.9315 61.6887 54.9315 61.7725V66.1357C54.9315 66.2314 54.9734 66.2793 55.0572 66.2793H63.9092C63.993 66.2793 64.0648 66.3092 64.1246 66.3691C64.1965 66.4289 64.2324 66.5008 64.2324 66.5845V69.206C64.2324 69.3018 64.1965 69.3796 64.1246 69.4394C64.0648 69.4993 63.993 69.5292 63.9092 69.5292H51.4482C51.3644 69.5292 51.2926 69.4993 51.2327 69.4394C51.1609 69.3796 51.125 69.3018 51.125 69.206V50.9993C51.125 50.9156 51.1609 50.8378 51.2327 50.7659C51.2926 50.7061 51.3644 50.6762 51.4482 50.6762H63.9092C63.993 50.6762 64.0648 50.7061 64.1246 50.7659C64.1965 50.8378 64.2324 50.9156 64.2324 50.9993V53.6029ZM72.1507 55.4702C73.3118 55.4702 74.3532 55.6737 75.2749 56.0807C76.1846 56.4877 76.8968 57.0383 77.4116 57.7326C77.9143 58.4388 78.1657 59.2229 78.1657 60.0847V69.206C78.1657 69.3018 78.1358 69.3796 78.0759 69.4394C78.0161 69.4993 77.9382 69.5292 77.8425 69.5292H74.7003C74.6045 69.5292 74.5267 69.4993 74.4669 69.4394C74.407 69.3796 74.3771 69.3018 74.3771 69.206V68.3262C74.3771 68.2664 74.3592 68.2304 74.3232 68.2185C74.2873 68.1945 74.2514 68.2125 74.2155 68.2723C73.4614 69.2539 72.2464 69.7447 70.5706 69.7447C69.1701 69.7447 68.0449 69.4035 67.195 68.7212C66.3212 68.0389 65.8843 67.0334 65.8843 65.7047C65.8843 64.3282 66.375 63.2568 67.3566 62.4907C68.3142 61.7246 69.6908 61.3416 71.4863 61.3416H74.2514C74.3352 61.3416 74.3771 61.2997 74.3771 61.2159V60.6234C74.3771 60.0249 74.1976 59.558 73.8385 59.2229C73.4793 58.8997 72.9407 58.7381 72.2225 58.7381C71.6718 58.7381 71.211 58.8338 70.8399 59.0254C70.4688 59.2289 70.2294 59.5102 70.1217 59.8693C70.0738 60.0608 69.9541 60.1506 69.7626 60.1386L66.5127 59.7077C66.2972 59.6718 66.1955 59.588 66.2075 59.4563C66.2912 58.7022 66.5965 58.0199 67.1232 57.4094C67.6499 56.7989 68.3501 56.3261 69.2239 55.9909C70.0858 55.6438 71.0614 55.4702 72.1507 55.4702ZM71.594 66.9257C72.3721 66.9257 73.0305 66.7162 73.5691 66.2973C74.1078 65.8783 74.3771 65.3456 74.3771 64.6992V63.7297C74.3771 63.6459 74.3352 63.604 74.2514 63.604H72.3123C71.4983 63.604 70.8639 63.7596 70.409 64.0708C69.9541 64.3701 69.7267 64.801 69.7267 65.3636C69.7267 65.8424 69.8943 66.2195 70.2294 66.4948C70.5646 66.7821 71.0195 66.9257 71.594 66.9257ZM86.3713 69.7088C85.1623 69.7088 84.1089 69.5412 83.2111 69.206C82.3134 68.8709 81.6191 68.398 81.1283 67.7875C80.6256 67.1771 80.3742 66.4828 80.3742 65.7047V65.4354C80.3742 65.3516 80.4101 65.2738 80.4819 65.202C80.5418 65.1421 80.6136 65.1122 80.6974 65.1122H83.6959C83.7917 65.1122 83.8695 65.1421 83.9293 65.202C83.9892 65.2738 84.0191 65.3516 84.0191 65.4354V65.4534C84.0191 65.8603 84.2406 66.2015 84.6835 66.4768C85.1144 66.7521 85.665 66.8898 86.3353 66.8898C86.9458 66.8898 87.4366 66.7701 87.8077 66.5307C88.1907 66.2793 88.3822 65.98 88.3822 65.6329C88.3822 65.3097 88.2206 65.0643 87.8974 64.8967C87.5743 64.7411 87.0416 64.5736 86.2994 64.394C85.4615 64.1785 84.7972 63.9691 84.3064 63.7656C83.1572 63.3705 82.2415 62.8858 81.5592 62.3112C80.8769 61.7366 80.5358 60.9107 80.5358 59.8334C80.5358 58.5047 81.0565 57.4513 82.0979 56.6732C83.1273 55.8952 84.4979 55.5061 86.2097 55.5061C87.3588 55.5061 88.3643 55.6857 89.2261 56.0448C90.076 56.4159 90.7404 56.9366 91.2192 57.6069C91.698 58.2653 91.9374 59.0194 91.9374 59.8693C91.9374 59.9531 91.9075 60.0249 91.8476 60.0847C91.7878 60.1446 91.71 60.1745 91.6142 60.1745H88.7413C88.6456 60.1745 88.5678 60.1446 88.5079 60.0847C88.4481 60.0249 88.4182 59.9531 88.4182 59.8693C88.4182 59.4742 88.2147 59.1391 87.8077 58.8638C87.4007 58.5885 86.868 58.4508 86.2097 58.4508C85.6111 58.4508 85.1204 58.5645 84.7373 58.7919C84.3662 59.0074 84.1807 59.3007 84.1807 59.6718C84.1807 60.0309 84.3662 60.3002 84.7373 60.4797C85.0964 60.6593 85.7129 60.8508 86.5867 61.0543C86.7782 61.1022 86.9997 61.1561 87.2511 61.2159C87.5024 61.2758 87.7718 61.3536 88.059 61.4493C89.3399 61.8324 90.3454 62.3172 91.0755 62.9037C91.8057 63.5022 92.1708 64.3641 92.1708 65.4893C92.1708 66.818 91.6501 67.8534 90.6087 68.5955C89.5553 69.3377 88.1428 69.7088 86.3713 69.7088ZM96.4083 54.1236C95.7978 54.1236 95.289 53.9201 94.8821 53.5131C94.487 53.1181 94.2895 52.6153 94.2895 52.0048C94.2895 51.3704 94.487 50.8557 94.8821 50.4607C95.2771 50.0657 95.7858 49.8682 96.4083 49.8682C97.0427 49.8682 97.5514 50.0657 97.9345 50.4607C98.3414 50.8557 98.5449 51.3704 98.5449 52.0048C98.5449 52.6153 98.3414 53.1181 97.9345 53.5131C97.5275 53.9201 97.0187 54.1236 96.4083 54.1236ZM94.7923 69.5292C94.7085 69.5292 94.6307 69.4993 94.5589 69.4394C94.499 69.3796 94.4691 69.3018 94.4691 69.206V55.9909C94.4691 55.8952 94.499 55.8174 94.5589 55.7575C94.6307 55.6976 94.7085 55.6677 94.7923 55.6677H97.9345C98.0302 55.6677 98.108 55.6976 98.1679 55.7575C98.2277 55.8174 98.2577 55.8952 98.2577 55.9909V69.206C98.2577 69.3018 98.2277 69.3796 98.1679 69.4394C98.108 69.4993 98.0302 69.5292 97.9345 69.5292H94.7923ZM113.484 61.18C113.591 61.8623 113.627 62.6224 113.591 63.4603C113.58 63.6878 113.466 63.8015 113.25 63.8015H104.919C104.811 63.8015 104.775 63.8434 104.811 63.9272C104.871 64.2863 104.973 64.6454 105.117 65.0045C105.583 66.01 106.529 66.5127 107.954 66.5127C109.103 66.5008 110.012 66.0339 110.683 65.1122C110.755 65.0045 110.838 64.9506 110.934 64.9506C110.982 64.9506 111.042 64.9865 111.114 65.0583L113.053 66.9616C113.149 67.0574 113.196 67.1412 113.196 67.213C113.196 67.2489 113.155 67.3207 113.071 67.4284C112.484 68.1706 111.724 68.7392 110.79 69.1342C109.857 69.5412 108.833 69.7447 107.72 69.7447C106.176 69.7447 104.871 69.3975 103.806 68.7033C102.74 67.997 101.968 67.0155 101.49 65.7586C101.119 64.8608 100.933 63.6878 100.933 62.2394C100.933 61.2458 101.071 60.372 101.346 59.6179C101.753 58.349 102.471 57.3376 103.501 56.5834C104.542 55.8293 105.769 55.4523 107.181 55.4523C108.977 55.4523 110.419 55.973 111.509 57.0144C112.598 58.0558 113.256 59.4443 113.484 61.18ZM107.199 58.7381C106.074 58.7381 105.332 59.2648 104.973 60.3181C104.901 60.5575 104.841 60.8448 104.793 61.18C104.793 61.2638 104.835 61.3057 104.919 61.3057H109.587C109.683 61.3057 109.713 61.2638 109.677 61.18C109.593 60.6653 109.552 60.4139 109.552 60.4259C109.384 59.8872 109.103 59.4683 108.708 59.169C108.301 58.8817 107.798 58.7381 107.199 58.7381ZM121.276 69.7088C120.067 69.7088 119.014 69.5412 118.116 69.206C117.218 68.8709 116.524 68.398 116.033 67.7875C115.543 67.1771 115.297 66.4828 115.297 65.7047V65.4354C115.297 65.3516 115.327 65.2738 115.387 65.202C115.447 65.1421 115.525 65.1122 115.62 65.1122H118.601C118.697 65.1122 118.775 65.1421 118.834 65.202C118.894 65.2738 118.924 65.3516 118.924 65.4354V65.4534C118.924 65.8603 119.146 66.2015 119.589 66.4768C120.031 66.7521 120.582 66.8898 121.24 66.8898C121.851 66.8898 122.348 66.7701 122.731 66.5307C123.102 66.2793 123.287 65.98 123.287 65.6329C123.287 65.3097 123.126 65.0643 122.803 64.8967C122.479 64.7411 121.953 64.5736 121.222 64.394C120.373 64.1785 119.708 63.9691 119.229 63.7656C118.08 63.3705 117.165 62.8858 116.482 62.3112C115.8 61.7366 115.459 60.9107 115.459 59.8334C115.459 58.5047 115.974 57.4513 117.003 56.6732C118.032 55.8952 119.403 55.5061 121.115 55.5061C122.264 55.5061 123.269 55.6857 124.131 56.0448C124.993 56.4159 125.657 56.9366 126.124 57.6069C126.603 58.2653 126.842 59.0194 126.842 59.8693C126.842 59.9531 126.813 60.0249 126.753 60.0847C126.693 60.1446 126.615 60.1745 126.519 60.1745H123.646C123.551 60.1745 123.473 60.1446 123.413 60.0847C123.353 60.0249 123.323 59.9531 123.323 59.8693C123.323 59.4742 123.12 59.1391 122.713 58.8638C122.306 58.5885 121.773 58.4508 121.115 58.4508C120.516 58.4508 120.031 58.5645 119.66 58.7919C119.277 59.0074 119.086 59.3007 119.086 59.6718C119.086 60.0309 119.271 60.3002 119.642 60.4797C120.013 60.6593 120.63 60.8508 121.492 61.0543C121.683 61.1022 121.905 61.1561 122.156 61.2159C122.408 61.2758 122.677 61.3536 122.964 61.4493C124.245 61.8324 125.25 62.3172 125.981 62.9037C126.723 63.5022 127.094 64.3641 127.094 65.4893C127.094 66.818 126.567 67.8534 125.514 68.5955C124.46 69.3377 123.048 69.7088 121.276 69.7088ZM137.185 58.4149C137.185 58.4987 137.155 58.5705 137.095 58.6303C137.035 58.7022 136.957 58.7381 136.862 58.7381H134.276C134.192 58.7381 134.15 58.78 134.15 58.8638V64.5736C134.15 65.1601 134.27 65.603 134.509 65.9022C134.749 66.1895 135.138 66.3332 135.676 66.3332H136.574C136.658 66.3332 136.73 66.3631 136.79 66.4229C136.862 66.4828 136.897 66.5606 136.897 66.6564V69.206C136.897 69.4095 136.79 69.5232 136.574 69.5472C135.82 69.5831 135.281 69.601 134.958 69.601C133.462 69.601 132.349 69.3556 131.619 68.8649C130.876 68.3741 130.499 67.4464 130.487 66.0818V58.8638C130.487 58.78 130.44 58.7381 130.344 58.7381H128.818C128.722 58.7381 128.644 58.7022 128.584 58.6303C128.524 58.5705 128.494 58.4987 128.494 58.4149V56.0089C128.494 55.9251 128.524 55.8473 128.584 55.7755C128.644 55.7156 128.722 55.6857 128.818 55.6857H130.344C130.44 55.6857 130.487 55.6378 130.487 55.542V52.346C130.487 52.2622 130.517 52.1844 130.577 52.1126C130.637 52.0527 130.715 52.0228 130.811 52.0228H133.827C133.911 52.0228 133.983 52.0527 134.043 52.1126C134.114 52.1844 134.15 52.2622 134.15 52.346V55.542C134.15 55.6378 134.192 55.6857 134.276 55.6857H136.862C136.957 55.6857 137.035 55.7156 137.095 55.7755C137.155 55.8473 137.185 55.9251 137.185 56.0089V58.4149Z" fill="#252530"/>
<path d="M83.2507 113.125C83.2507 113.185 83.2267 113.233 83.1788 113.269C83.1429 113.317 83.0951 113.341 83.0352 113.341H76.9304C76.8706 113.341 76.8406 113.37 76.8406 113.43V116.788C76.8406 116.848 76.8706 116.878 76.9304 116.878H81.0422C81.102 116.878 81.1559 116.896 81.2038 116.932C81.2397 116.98 81.2576 117.033 81.2576 117.093V118.458C81.2576 118.518 81.2397 118.572 81.2038 118.619C81.1559 118.655 81.102 118.673 81.0422 118.673H76.9304C76.8706 118.673 76.8406 118.703 76.8406 118.763V123.898C76.8406 123.958 76.8167 124.006 76.7688 124.042C76.7329 124.09 76.685 124.114 76.6252 124.114H74.9733C74.9134 124.114 74.8655 124.09 74.8296 124.042C74.7818 124.006 74.7578 123.958 74.7578 123.898V111.761C74.7578 111.701 74.7818 111.653 74.8296 111.617C74.8655 111.569 74.9134 111.545 74.9733 111.545H83.0352C83.0951 111.545 83.1429 111.569 83.1788 111.617C83.2267 111.653 83.2507 111.701 83.2507 111.761V113.125ZM91.4383 124.114C91.3186 124.114 91.2408 124.054 91.2049 123.934L90.6123 122.013C90.5884 121.965 90.5585 121.941 90.5226 121.941H85.7824C85.7465 121.941 85.7165 121.965 85.6926 122.013L85.1001 123.934C85.0642 124.054 84.9863 124.114 84.8666 124.114H83.0711C82.9993 124.114 82.9454 124.09 82.9095 124.042C82.8736 124.006 82.8676 123.946 82.8916 123.862L86.7879 111.725C86.8238 111.605 86.9016 111.545 87.0213 111.545H89.2657C89.3854 111.545 89.4632 111.605 89.4991 111.725L93.4134 123.862C93.4253 123.886 93.4313 123.916 93.4313 123.952C93.4313 124.06 93.3655 124.114 93.2338 124.114H91.4383ZM86.2492 120.199C86.2372 120.271 86.2612 120.307 86.321 120.307H89.9659C90.0378 120.307 90.0617 120.271 90.0378 120.199L88.1884 114.184C88.1764 114.137 88.1584 114.113 88.1345 114.113C88.1106 114.113 88.0926 114.137 88.0806 114.184L86.2492 120.199ZM95.4962 124.114C95.4363 124.114 95.3884 124.09 95.3525 124.042C95.3047 124.006 95.2807 123.958 95.2807 123.898V111.761C95.2807 111.701 95.3047 111.653 95.3525 111.617C95.3884 111.569 95.4363 111.545 95.4962 111.545H97.1481C97.2079 111.545 97.2618 111.569 97.3097 111.617C97.3456 111.653 97.3635 111.701 97.3635 111.761V122.228C97.3635 122.288 97.3935 122.318 97.4533 122.318H103.468C103.528 122.318 103.576 122.342 103.612 122.39C103.66 122.426 103.684 122.474 103.684 122.534V123.898C103.684 123.958 103.66 124.006 103.612 124.042C103.576 124.09 103.528 124.114 103.468 124.114H95.4962ZM105.749 124.114C105.689 124.114 105.641 124.09 105.605 124.042C105.557 124.006 105.533 123.958 105.533 123.898V111.761C105.533 111.701 105.557 111.653 105.605 111.617C105.641 111.569 105.689 111.545 105.749 111.545H107.401C107.46 111.545 107.514 111.569 107.562 111.617C107.598 111.653 107.616 111.701 107.616 111.761V122.228C107.616 122.288 107.646 122.318 107.706 122.318H113.721C113.781 122.318 113.835 122.342 113.882 122.39C113.918 122.426 113.936 122.474 113.936 122.534V123.898C113.936 123.958 113.918 124.006 113.882 124.042C113.835 124.09 113.781 124.114 113.721 124.114H105.749Z" fill="#242530"/>
<path d="M74.197 156.542C74.1611 156.578 74.1491 156.613 74.1611 156.649C74.1851 156.685 74.221 156.703 74.2688 156.703H81.3253C81.4091 156.703 81.4809 156.733 81.5407 156.793C81.6126 156.853 81.6485 156.925 81.6485 157.008V159.54C81.6485 159.624 81.6126 159.696 81.5407 159.756C81.4809 159.815 81.4091 159.845 81.3253 159.845H69.6184C69.5227 159.845 69.4449 159.815 69.385 159.756C69.3252 159.696 69.2952 159.624 69.2952 159.54V157.134C69.2952 156.979 69.3491 156.847 69.4568 156.739C70.3067 155.913 71.1746 155.009 72.0603 154.028C72.9461 153.046 73.5028 152.436 73.7302 152.196C74.209 151.622 74.6998 151.071 75.2025 150.545C76.7826 148.797 77.5726 147.498 77.5726 146.648C77.5726 146.038 77.3572 145.535 76.9262 145.14C76.4953 144.757 75.9327 144.565 75.2384 144.565C74.5442 144.565 73.9816 144.757 73.5506 145.14C73.1077 145.535 72.8863 146.056 72.8863 146.702V147.348C72.8863 147.432 72.8564 147.504 72.7965 147.564C72.7367 147.624 72.6648 147.654 72.5811 147.654H69.5107C69.4269 147.654 69.3551 147.624 69.2952 147.564C69.2234 147.504 69.1875 147.432 69.1875 147.348V146.128C69.2474 145.194 69.5466 144.362 70.0853 143.632C70.6239 142.914 71.3362 142.363 72.2219 141.98C73.1197 141.597 74.1252 141.405 75.2384 141.405C76.4714 141.405 77.5427 141.639 78.4524 142.106C79.3622 142.56 80.0624 143.177 80.5532 143.955C81.056 144.745 81.3073 145.613 81.3073 146.558C81.3073 147.289 81.1218 148.037 80.7507 148.803C80.3916 149.569 79.847 150.395 79.1168 151.281C78.5781 151.951 77.9976 152.621 77.3751 153.292C76.7527 153.95 75.825 154.902 74.592 156.147L74.197 156.542ZM90.1054 160.133C88.1902 160.133 86.6819 159.6 85.5807 158.535C84.4675 157.469 83.9108 156.015 83.9108 154.171V147.295C83.9108 145.487 84.4675 144.057 85.5807 143.003C86.6819 141.938 88.1902 141.405 90.1054 141.405C92.0087 141.405 93.5229 141.938 94.6481 143.003C95.7613 144.057 96.318 145.487 96.318 147.295V154.171C96.318 156.015 95.7613 157.469 94.6481 158.535C93.5229 159.6 92.0087 160.133 90.1054 160.133ZM90.1054 156.99C90.8835 156.99 91.5 156.751 91.9548 156.272C92.4217 155.793 92.6551 155.153 92.6551 154.351V147.187C92.6551 146.397 92.4217 145.762 91.9548 145.284C91.5 144.805 90.8835 144.565 90.1054 144.565C89.3393 144.565 88.7288 144.805 88.274 145.284C87.8071 145.762 87.5737 146.397 87.5737 147.187V154.351C87.5737 155.153 87.8071 155.793 88.274 156.272C88.7288 156.751 89.3393 156.99 90.1054 156.99ZM103.608 156.542C103.572 156.578 103.566 156.613 103.59 156.649C103.602 156.685 103.638 156.703 103.698 156.703H110.754C110.838 156.703 110.91 156.733 110.969 156.793C111.029 156.853 111.059 156.925 111.059 157.008V159.54C111.059 159.624 111.029 159.696 110.969 159.756C110.91 159.815 110.838 159.845 110.754 159.845H99.0292C98.9454 159.845 98.8736 159.815 98.8137 159.756C98.7539 159.696 98.724 159.624 98.724 159.54V157.134C98.724 156.979 98.7718 156.847 98.8676 156.739C99.7295 155.913 100.597 155.009 101.471 154.028C102.357 153.046 102.914 152.436 103.141 152.196C103.632 151.622 104.129 151.071 104.631 150.545C106.211 148.797 107.001 147.498 107.001 146.648C107.001 146.038 106.786 145.535 106.355 145.14C105.912 144.757 105.343 144.565 104.649 144.565C103.955 144.565 103.392 144.757 102.961 145.14C102.53 145.535 102.315 146.056 102.315 146.702V147.348C102.315 147.432 102.285 147.504 102.225 147.564C102.165 147.624 102.088 147.654 101.992 147.654H98.9215C98.8377 147.654 98.7659 147.624 98.706 147.564C98.6462 147.504 98.6162 147.432 98.6162 147.348V146.128C98.6641 145.194 98.9574 144.362 99.496 143.632C100.035 142.914 100.753 142.363 101.651 141.98C102.548 141.597 103.548 141.405 104.649 141.405C105.882 141.405 106.953 141.639 107.863 142.106C108.785 142.56 109.491 143.177 109.982 143.955C110.473 144.745 110.718 145.613 110.718 146.558C110.718 147.289 110.539 148.037 110.179 148.803C109.808 149.569 109.258 150.395 108.528 151.281C107.989 151.951 107.408 152.621 106.786 153.292C106.163 153.95 105.236 154.902 104.003 156.147L103.608 156.542ZM115.871 141.693C115.967 141.645 116.099 141.621 116.266 141.621H119.426C119.51 141.621 119.582 141.651 119.642 141.711C119.702 141.77 119.732 141.842 119.732 141.926V159.54C119.732 159.624 119.702 159.696 119.642 159.756C119.582 159.815 119.51 159.845 119.426 159.845H116.374C116.29 159.845 116.218 159.815 116.159 159.756C116.087 159.696 116.051 159.624 116.051 159.54V145.266C116.051 145.23 116.039 145.194 116.015 145.158C115.979 145.122 115.943 145.116 115.907 145.14L113.322 145.84L113.214 145.858C113.058 145.858 112.98 145.762 112.98 145.571L112.909 143.344C112.909 143.165 112.986 143.039 113.142 142.967L115.871 141.693Z" fill="#252530"/>
<path d="M94.8484 166.593L3.42364 142.175L-3.39062 184.292L191.216 173.207V142.175L94.8484 166.593Z" fill="#F2F3F2"/>
</g>
</g>
<defs>
<filter id="filter0_d_1_1742" x="0" y="0" width="174" height="193" filterUnits="userSpaceOnUse" color-interpolation-filters="sRGB">
<feFlood flood-opacity="0" result="BackgroundImageFix"/>
<feColorMatrix in="SourceAlpha" type="matrix" values="0 0 0 0 0 0 0 0 0 0 0 0 0 0 0 0 0 0 127 0" result="hardAlpha"/>
<feOffset dx="-8" dy="6"/>
<feGaussianBlur stdDeviation="8.5"/>
<feColorMatrix type="matrix" values="0 0 0 0 0.32549 0 0 0 0 0.32549 0 0 0 0 0.380392 0 0 0 0.13 0"/>
<feBlend mode="normal" in2="BackgroundImageFix" result="effect1_dropShadow_1_1742"/>
<feBlend mode="normal" in="SourceGraphic" in2="effect1_dropShadow_1_1742" result="shape"/>
</filter>
<clipPath id="clip0_1_1742">
<rect x="25" y="11" width="140" height="159" rx="19.9431" fill="white"/>
</clipPath>
</defs>
</svg>
