<svg width="142" height="156" viewBox="0 0 142 156" fill="none" xmlns="http://www.w3.org/2000/svg">
<g filter="url(#filter0_d_1_1690)">
<g clip-path="url(#clip0_1_1690)">
<rect x="12" y="10" width="111.381" height="125.696" rx="16.1033" fill="#FFDE7B"/>
<path d="M12.25 120.538L69.5631 148.83L124.7 120.538V9.90515H12.25V120.538Z" fill="white"/>
<path d="M125.865 10.3281L11.0938 122.51L70.5833 151.083L125.865 123.636V10.3281Z" fill="#F2F3F2"/>
<path d="M8.47656 46.7834V122.932L10.5079 123.917L67.821 152.209L69.5622 153.053L71.3034 152.209L126.585 123.917L128.616 122.932V6.24597H8.47656V46.7834ZM12.2491 120.82V9.9056H124.844V120.82L69.5622 149.112L12.2491 120.82Z" fill="#DCDEDC"/>
<path d="M68.5465 11.7354C69.1268 11.7354 69.7072 11.7354 70.2876 11.8762L68.5465 15.1135C65.9347 14.9728 63.6132 16.9433 63.4681 19.4769C63.323 22.0105 65.3543 24.2626 67.9661 24.4033H68.5465C69.7072 24.4033 70.868 23.9811 71.7386 23.2773L73.6248 26.3739C72.1739 27.3592 70.4327 27.9222 68.5465 27.9222C63.9034 28.063 59.9858 24.6849 59.8407 20.1807C59.6956 15.6765 63.1779 11.8762 67.821 11.7354H68.5465ZM74.4954 18.6324L76.6719 22.1513L74.4954 25.5294L72.4641 22.1513H68.2563L70.4327 18.6324H74.4954ZM71.0131 17.3656C71.0131 16.8026 71.1582 16.2396 71.4484 15.8173C71.7386 15.395 72.319 14.9728 72.7543 14.6913L73.0445 14.5505C73.6248 14.269 73.7699 14.1282 73.7699 13.8467C73.7699 13.5652 73.3346 13.2837 73.0445 13.2837C72.4641 13.2837 72.0288 13.5652 71.7386 14.1282L71.0131 13.4245C71.1582 13.143 71.4484 12.8614 71.7386 12.5799C72.1739 12.2984 72.6092 12.2984 73.0445 12.2984C73.4797 12.2984 74.0601 12.4392 74.3503 12.7207C74.6405 13.0022 74.9307 13.4245 74.9307 13.8467C74.9307 14.5505 74.4954 15.1135 73.6248 15.395L73.1895 15.6765C72.7543 15.9581 72.4641 16.0988 72.319 16.5211H74.9307V17.5064L71.0131 17.3656ZM68.5465 34.96L82.3306 27.3592V6.24597H54.6172V27.2184L68.5465 34.96Z" fill="#FF492C"/>
<path d="M131.375 84.7862H5.72115L1.07806 94.639L5.72115 104.492H131.375L135.873 94.639L131.375 84.7862Z" fill="#FF492C"/>
<path d="M25.6019 63.6592C26.5595 63.6592 27.4011 63.8469 28.1266 64.2222C28.852 64.5975 29.4131 65.1371 29.8097 65.8409C30.2063 66.5353 30.4046 67.3329 30.4046 68.2337C30.4046 69.1252 30.2014 69.9087 29.7952 70.5843C29.3792 71.2506 28.7988 71.7713 28.054 72.1467C27.3092 72.522 26.4483 72.7097 25.4713 72.7097H22.3807C22.313 72.7097 22.2792 72.7473 22.2792 72.8223V78.1992C22.2792 78.2742 22.2502 78.3352 22.1921 78.3821C22.1437 78.4291 22.0809 78.4525 22.0035 78.4525H19.4643C19.3869 78.4525 19.324 78.4291 19.2757 78.3821C19.2273 78.3352 19.2031 78.2742 19.2031 78.1992V63.9125C19.2031 63.8375 19.2273 63.7765 19.2757 63.7296C19.324 63.6826 19.3869 63.6592 19.4643 63.6592H25.6019ZM25.1376 70.331C25.8147 70.331 26.3515 70.1433 26.7481 69.7679C27.1544 69.3926 27.3576 68.9046 27.3576 68.3041C27.3576 67.6754 27.1544 67.1734 26.7481 66.798C26.3515 66.4133 25.8147 66.2209 25.1376 66.2209H22.3807C22.313 66.2209 22.2792 66.2585 22.2792 66.3335V70.2184C22.2792 70.2934 22.313 70.331 22.3807 70.331H25.1376ZM41.3884 71.9074C41.4658 72.4423 41.49 73.0381 41.4609 73.695C41.4513 73.8733 41.3594 73.9624 41.1853 73.9624H34.4673C34.3802 73.9624 34.3464 73.9953 34.3657 74.061C34.4141 74.3425 34.4963 74.624 34.6124 74.9055C34.9896 75.6937 35.7586 76.0878 36.9194 76.0878C37.848 76.0784 38.5784 75.7125 39.1104 74.9899C39.1781 74.9055 39.2458 74.8633 39.3135 74.8633C39.3522 74.8633 39.4006 74.8914 39.4586 74.9477L41.0256 76.4397C41.103 76.5148 41.1417 76.5805 41.1417 76.6368C41.1417 76.6649 41.1127 76.7212 41.0547 76.8057C40.571 77.3875 39.9568 77.8332 39.2119 78.1429C38.4478 78.4619 37.6159 78.6214 36.7163 78.6214C35.4781 78.6214 34.4238 78.3493 33.5532 77.805C32.6923 77.2514 32.0732 76.4819 31.6959 75.4967C31.3864 74.7929 31.2316 73.8733 31.2316 72.7379C31.2316 71.959 31.3429 71.274 31.5653 70.6828C31.9039 69.6882 32.4891 68.8953 33.321 68.3041C34.1529 67.7129 35.1396 67.4173 36.281 67.4173C37.732 67.4173 38.8976 67.8255 39.7778 68.6419C40.6581 69.4583 41.1949 70.5468 41.3884 71.9074ZM36.31 69.9931C35.3911 69.9931 34.7865 70.406 34.4963 71.2318C34.4383 71.4195 34.3899 71.6447 34.3512 71.9074C34.3512 71.9731 34.3899 72.0059 34.4673 72.0059H38.2253C38.3123 72.0059 38.3414 71.9731 38.3123 71.9074C38.235 71.5039 38.1963 71.3069 38.1963 71.3162C38.0705 70.894 37.8432 70.5656 37.5143 70.331C37.1951 70.1058 36.7937 69.9931 36.31 69.9931ZM48.9334 67.4596C49.4558 67.4596 49.8717 67.5581 50.1812 67.7551C50.2876 67.8114 50.3263 67.9147 50.2973 68.0648L49.8475 70.4717C49.8378 70.6406 49.7363 70.6922 49.5428 70.6265C49.3203 70.5515 49.0688 70.5139 48.7883 70.5139C48.6722 70.5139 48.5078 70.528 48.295 70.5562C47.7823 70.6031 47.3422 70.7908 46.9746 71.1192C46.6167 71.4476 46.4377 71.8886 46.4377 72.4423V78.1992C46.4377 78.2742 46.4087 78.3352 46.3507 78.3821C46.3023 78.4291 46.2443 78.4525 46.1766 78.4525H43.6229C43.5552 78.4525 43.4923 78.4291 43.4342 78.3821C43.3859 78.3352 43.3617 78.2742 43.3617 78.1992V67.8537C43.3617 67.788 43.3859 67.727 43.4342 67.6707C43.4923 67.6238 43.5552 67.6003 43.6229 67.6003H46.1766C46.2443 67.6003 46.3023 67.6238 46.3507 67.6707C46.4087 67.727 46.4377 67.788 46.4377 67.8537V68.656C46.4377 68.6935 46.4523 68.7217 46.4813 68.7404C46.5006 68.7592 46.52 68.7498 46.5393 68.7123C47.139 67.8771 47.9371 67.4596 48.9334 67.4596ZM58.2051 67.5862C58.2825 67.5862 58.3453 67.6097 58.3937 67.6566C58.4421 67.7035 58.4662 67.7645 58.4662 67.8396V69.8383C58.4662 69.9134 58.4421 69.9744 58.3937 70.0213C58.3453 70.0682 58.2825 70.0917 58.2051 70.0917H56.1012C56.0238 70.0917 55.9851 70.1245 55.9851 70.1902V78.1992C55.9851 78.2742 55.9609 78.3352 55.9125 78.3821C55.8642 78.4291 55.8013 78.4525 55.7239 78.4525H53.1847C53.1073 78.4525 53.0445 78.4291 52.9961 78.3821C52.9477 78.3352 52.9236 78.2742 52.9236 78.1992V70.1902C52.9236 70.1245 52.8849 70.0917 52.8075 70.0917H51.5306C51.4533 70.0917 51.3904 70.0682 51.342 70.0213C51.2936 69.9744 51.2695 69.9134 51.2695 69.8383V67.8396C51.2695 67.7645 51.2936 67.7035 51.342 67.6566C51.3904 67.6097 51.4533 67.5862 51.5306 67.5862H52.8075C52.8849 67.5862 52.9236 67.5487 52.9236 67.4736V67.0091C52.9236 66.1365 53.059 65.4562 53.3298 64.9682C53.6104 64.4896 54.0553 64.1471 54.6647 63.9407C55.2838 63.7342 56.1399 63.6451 57.2329 63.6733H58.06C58.1277 63.6733 58.1857 63.6967 58.2341 63.7436C58.2921 63.7999 58.3212 63.8609 58.3212 63.9266V65.6297C58.3212 65.7048 58.2921 65.7658 58.2341 65.8127C58.1857 65.869 58.1277 65.8972 58.06 65.8972H57.3345C56.8315 65.9066 56.4784 66.0051 56.2753 66.1928C56.0818 66.3898 55.9851 66.7417 55.9851 67.2484V67.4736C55.9851 67.5487 56.0238 67.5862 56.1012 67.5862H58.2051ZM64.5168 78.6214C63.298 78.6214 62.2533 78.3118 61.3827 77.6924C60.5121 77.0731 59.9172 76.2286 59.598 75.1588C59.3949 74.502 59.2933 73.7841 59.2933 73.0053C59.2933 72.1795 59.3949 71.4335 59.598 70.7673C59.9366 69.7257 60.5411 68.9093 61.4117 68.3182C62.2823 67.727 63.327 67.4314 64.5458 67.4314C65.7259 67.4314 66.7416 67.7223 67.5928 68.3041C68.4247 68.8953 69.0148 69.7116 69.363 70.7532C69.6048 71.457 69.7257 72.1936 69.7257 72.9631C69.7257 73.7232 69.6242 74.4363 69.421 75.1025C69.1018 76.2004 68.5069 77.059 67.6364 77.6784C66.7754 78.3071 65.7356 78.6214 64.5168 78.6214ZM64.5168 76.0738C64.9908 76.0738 65.397 75.933 65.7356 75.6515C66.0741 75.37 66.316 74.9806 66.4611 74.4832C66.5675 74.0328 66.6207 73.5402 66.6207 73.0053C66.6207 72.4141 66.5675 71.9168 66.4611 71.5133C66.2966 71.0347 66.05 70.6594 65.7211 70.3873C65.3825 70.1245 64.9714 69.9931 64.4878 69.9931C64.0041 69.9931 63.5978 70.1245 63.2689 70.3873C62.9401 70.6594 62.7031 71.0347 62.558 71.5133C62.4419 71.8417 62.3839 72.3391 62.3839 73.0053C62.3839 73.6434 62.4371 74.136 62.5435 74.4832C62.6886 74.9806 62.9304 75.37 63.2689 75.6515C63.6075 75.933 64.0234 76.0738 64.5168 76.0738ZM77.2708 67.4596C77.7931 67.4596 78.2091 67.5581 78.5186 67.7551C78.6347 67.8114 78.6734 67.9147 78.6347 68.0648L78.1849 70.4717C78.1752 70.6406 78.0736 70.6922 77.8802 70.6265C77.6577 70.5515 77.4062 70.5139 77.1257 70.5139C77.0096 70.5139 76.85 70.528 76.6468 70.5562C76.1245 70.6031 75.6795 70.7908 75.312 71.1192C74.954 71.4476 74.7751 71.8886 74.7751 72.4423V78.1992C74.7751 78.2742 74.7461 78.3352 74.688 78.3821C74.6397 78.4291 74.5768 78.4525 74.4994 78.4525H71.9602C71.8925 78.4525 71.8296 78.4291 71.7716 78.3821C71.7232 78.3352 71.6991 78.2742 71.6991 78.1992V67.8537C71.6991 67.788 71.7232 67.727 71.7716 67.6707C71.8296 67.6238 71.8925 67.6003 71.9602 67.6003H74.4994C74.5768 67.6003 74.6397 67.6238 74.688 67.6707C74.7461 67.727 74.7751 67.788 74.7751 67.8537V68.656C74.7751 68.6935 74.7848 68.7217 74.8041 68.7404C74.8428 68.7592 74.867 68.7498 74.8767 68.7123C75.4764 67.8771 76.2744 67.4596 77.2708 67.4596ZM92.4333 67.4314C93.5651 67.4314 94.4502 67.7598 95.0886 68.4167C95.727 69.0829 96.0462 70.0166 96.0462 71.2177V78.1992C96.0462 78.2742 96.0221 78.3352 95.9737 78.3821C95.9253 78.4291 95.8673 78.4525 95.7996 78.4525H93.2459C93.1782 78.4525 93.1153 78.4291 93.0573 78.3821C93.0089 78.3352 92.9847 78.2742 92.9847 78.1992V71.8652C92.9847 71.2928 92.8348 70.8377 92.5349 70.4999C92.2254 70.1621 91.8143 69.9931 91.3016 69.9931C90.7986 69.9931 90.3875 70.1621 90.0683 70.4999C89.7491 70.8377 89.5895 71.2881 89.5895 71.8511V78.1992C89.5895 78.2742 89.5653 78.3352 89.5169 78.3821C89.4589 78.4291 89.396 78.4525 89.3283 78.4525H86.8036C86.7262 78.4525 86.6633 78.4291 86.615 78.3821C86.5666 78.3352 86.5424 78.2742 86.5424 78.1992V71.8652C86.5424 71.3022 86.3828 70.8471 86.0636 70.4999C85.7444 70.1621 85.3285 69.9931 84.8158 69.9931C84.3611 69.9931 83.9742 70.1245 83.655 70.3873C83.3455 70.6594 83.1617 71.0347 83.1036 71.5133V78.1992C83.1036 78.2742 83.0795 78.3352 83.0311 78.3821C82.9731 78.4291 82.9102 78.4525 82.8425 78.4525H80.3033C80.2259 78.4525 80.163 78.4291 80.1147 78.3821C80.0663 78.3352 80.0421 78.2742 80.0421 78.1992V67.8537C80.0421 67.788 80.0663 67.727 80.1147 67.6707C80.163 67.6238 80.2259 67.6003 80.3033 67.6003H82.8425C82.9102 67.6003 82.9731 67.6238 83.0311 67.6707C83.0795 67.727 83.1036 67.788 83.1036 67.8537V68.6841C83.1036 68.7217 83.1181 68.7498 83.1472 68.7686C83.1762 68.778 83.2052 68.7592 83.2342 68.7123C83.834 67.8584 84.7577 67.4314 86.0056 67.4314C86.7311 67.4314 87.3646 67.5815 87.9063 67.8818C88.448 68.1727 88.864 68.595 89.1542 69.1486C89.1929 69.2331 89.2461 69.2331 89.3138 69.1486C89.6233 68.5668 90.0538 68.1352 90.6051 67.8537C91.1468 67.5722 91.7562 67.4314 92.4333 67.4314ZM108.046 71.9074C108.133 72.4423 108.162 73.0381 108.133 73.695C108.113 73.8733 108.017 73.9624 107.843 73.9624H101.125C101.038 73.9624 101.009 73.9953 101.038 74.061C101.076 74.3425 101.154 74.624 101.27 74.9055C101.647 75.6937 102.416 76.0878 103.577 76.0878C104.505 76.0784 105.241 75.7125 105.782 74.9899C105.84 74.9055 105.903 74.8633 105.971 74.8633C106.019 74.8633 106.072 74.8914 106.13 74.9477L107.698 76.4397C107.765 76.5148 107.799 76.5805 107.799 76.6368C107.799 76.6649 107.77 76.7212 107.712 76.8057C107.238 77.3875 106.624 77.8332 105.869 78.1429C105.115 78.4619 104.288 78.6214 103.388 78.6214C102.14 78.6214 101.086 78.3493 100.225 77.805C99.3545 77.2514 98.7305 76.4819 98.3533 75.4967C98.0534 74.7929 97.9035 73.8733 97.9035 72.7379C97.9035 71.959 98.0099 71.274 98.2227 70.6828C98.5613 69.6882 99.1465 68.8953 99.9784 68.3041C100.81 67.7129 101.802 67.4173 102.953 67.4173C104.404 67.4173 105.569 67.8255 106.45 68.6419C107.33 69.4583 107.862 70.5468 108.046 71.9074ZM102.967 69.9931C102.058 69.9931 101.458 70.406 101.168 71.2318C101.11 71.4195 101.057 71.6447 101.009 71.9074C101.009 71.9731 101.047 72.0059 101.125 72.0059H104.883C104.97 72.0059 104.999 71.9731 104.97 71.9074C104.902 71.5039 104.868 71.3069 104.868 71.3162C104.733 70.894 104.505 70.5656 104.186 70.331C103.857 70.1058 103.451 69.9931 102.967 69.9931ZM115.591 67.4596C116.113 67.4596 116.529 67.5581 116.839 67.7551C116.955 67.8114 116.998 67.9147 116.969 68.0648L116.519 70.4717C116.5 70.6406 116.394 70.6922 116.2 70.6265C115.987 70.5515 115.736 70.5139 115.446 70.5139C115.33 70.5139 115.17 70.528 114.967 70.5562C114.444 70.6031 114 70.7908 113.632 71.1192C113.274 71.4476 113.095 71.8886 113.095 72.4423V78.1992C113.095 78.2742 113.071 78.3352 113.023 78.3821C112.965 78.4291 112.902 78.4525 112.834 78.4525H110.28C110.213 78.4525 110.154 78.4291 110.106 78.3821C110.048 78.3352 110.019 78.2742 110.019 78.1992V67.8537C110.019 67.788 110.048 67.727 110.106 67.6707C110.154 67.6238 110.213 67.6003 110.28 67.6003H112.834C112.902 67.6003 112.965 67.6238 113.023 67.6707C113.071 67.727 113.095 67.788 113.095 67.8537V68.656C113.095 68.6935 113.11 68.7217 113.139 68.7404C113.168 68.7592 113.192 68.7498 113.211 68.7123C113.801 67.8771 114.594 67.4596 115.591 67.4596Z" fill="#252530"/>
<path d="M55.7203 42.8135C55.7203 42.7478 55.7445 42.6868 55.7928 42.6305C55.8412 42.5836 55.8992 42.5602 55.9669 42.5602H58.5206C58.5883 42.5602 58.6512 42.5836 58.7093 42.6305C58.7576 42.6868 58.7818 42.7478 58.7818 42.8135V57.0861C58.7818 57.1611 58.7576 57.2221 58.7093 57.269C58.6512 57.316 58.5883 57.3394 58.5206 57.3394H55.9669C55.8992 57.3394 55.8412 57.316 55.7928 57.269C55.7445 57.2221 55.7203 57.1611 55.7203 57.0861V51.2588C55.7203 51.1931 55.6816 51.1603 55.6042 51.1603H50.787C50.7193 51.1603 50.6854 51.1931 50.6854 51.2588V57.0861C50.6854 57.1611 50.6612 57.2221 50.6129 57.269C50.5548 57.316 50.492 57.3394 50.4242 57.3394H47.8705C47.8028 57.3394 47.7448 57.316 47.6964 57.269C47.6384 57.2221 47.6094 57.1611 47.6094 57.0861V42.8135C47.6094 42.7478 47.6384 42.6868 47.6964 42.6305C47.7448 42.5836 47.8028 42.5602 47.8705 42.5602H50.4242C50.492 42.5602 50.5548 42.5836 50.6129 42.6305C50.6612 42.6868 50.6854 42.7478 50.6854 42.8135V48.4859C50.6854 48.561 50.7193 48.5985 50.787 48.5985H55.6042C55.6816 48.5985 55.7203 48.561 55.7203 48.4859V42.8135ZM62.7429 45.2626C62.2496 45.2626 61.8385 45.1031 61.5096 44.7841C61.1807 44.4744 61.0163 44.0803 61.0163 43.6017C61.0163 43.1044 61.1759 42.7009 61.4951 42.3912C61.8143 42.0816 62.2303 41.9268 62.7429 41.9268C63.2556 41.9268 63.6716 42.0816 63.9908 42.3912C64.31 42.7009 64.4696 43.1044 64.4696 43.6017C64.4696 44.0803 64.3051 44.4744 63.9763 44.7841C63.6474 45.1031 63.2363 45.2626 62.7429 45.2626ZM61.4371 57.3394C61.3694 57.3394 61.3065 57.316 61.2485 57.269C61.2001 57.2221 61.1759 57.1611 61.1759 57.0861V46.7265C61.1759 46.6514 61.2001 46.5904 61.2485 46.5435C61.3065 46.4966 61.3694 46.4731 61.4371 46.4731H63.9908C64.0585 46.4731 64.1165 46.4966 64.1649 46.5435C64.2229 46.5904 64.2519 46.6514 64.2519 46.7265V57.0861C64.2519 57.1611 64.2229 57.2221 64.1649 57.269C64.1165 57.316 64.0585 57.3394 63.9908 57.3394H61.4371ZM73.4656 46.7406C73.4656 46.6749 73.4946 46.6139 73.5526 46.5576C73.601 46.5107 73.659 46.4872 73.7268 46.4872H76.2805C76.3482 46.4872 76.411 46.5107 76.4691 46.5576C76.5174 46.6139 76.5416 46.6749 76.5416 46.7406V56.3682C76.5416 58.2074 75.9951 59.5211 74.902 60.3093C73.809 61.107 72.3967 61.5058 70.6652 61.5058C70.1525 61.5058 69.5867 61.4682 68.9676 61.3932C68.8225 61.3744 68.7499 61.2852 68.7499 61.1257L68.837 58.944C68.837 58.7563 68.9386 58.6766 69.1417 58.7047C69.664 58.7892 70.1429 58.8314 70.5782 58.8314C71.5068 58.8314 72.2226 58.639 72.7256 58.2543C73.2189 57.8508 73.4656 57.2174 73.4656 56.3541C73.4656 56.3072 73.4511 56.2791 73.4221 56.2697C73.393 56.2603 73.364 56.2744 73.335 56.3119C72.7836 56.8843 71.9808 57.1705 70.9264 57.1705C69.9784 57.1705 69.1127 56.95 68.3292 56.509C67.536 56.0679 66.9701 55.3548 66.6315 54.3695C66.4187 53.722 66.3123 52.8822 66.3123 51.85C66.3123 50.7521 66.4429 49.8606 66.7041 49.1756C67.0039 48.3123 67.5166 47.6226 68.2421 47.1065C68.9676 46.5811 69.814 46.3183 70.7813 46.3183C71.8937 46.3183 72.7449 46.642 73.335 47.2895C73.364 47.3177 73.393 47.3271 73.4221 47.3177C73.4511 47.3083 73.4656 47.2848 73.4656 47.2473V46.7406ZM73.2915 53.5531C73.4075 53.1402 73.4656 52.5631 73.4656 51.8218C73.4656 51.3902 73.4511 51.0571 73.4221 50.8225C73.393 50.5785 73.3447 50.3486 73.277 50.1328C73.1415 49.7574 72.9239 49.4524 72.624 49.2179C72.3242 48.9927 71.9469 48.88 71.4923 48.88C71.057 48.88 70.6894 48.9927 70.3895 49.2179C70.08 49.4524 69.8527 49.7574 69.7076 50.1328C69.5044 50.555 69.4029 51.1274 69.4029 51.85C69.4029 52.6382 69.4899 53.2012 69.6641 53.539C69.7898 53.9238 70.0171 54.2287 70.346 54.4539C70.6749 54.6885 71.0618 54.8058 71.5068 54.8058C71.9711 54.8058 72.358 54.6885 72.6675 54.4539C72.9674 54.2287 73.1754 53.9285 73.2915 53.5531ZM84.58 46.3183C85.7407 46.3183 86.6742 46.6655 87.3803 47.3599C88.0865 48.0449 88.4395 48.9786 88.4395 50.1609V57.0861C88.4395 57.1611 88.4154 57.2221 88.367 57.269C88.3186 57.316 88.2606 57.3394 88.1929 57.3394H85.6392C85.5715 57.3394 85.5086 57.316 85.4506 57.269C85.4022 57.2221 85.378 57.1611 85.378 57.0861V50.7662C85.378 50.2125 85.2136 49.7574 84.8847 49.4008C84.5655 49.0536 84.135 48.88 83.5933 48.88C83.0613 48.88 82.6308 49.0536 82.302 49.4008C81.9731 49.7574 81.8086 50.2125 81.8086 50.7662V57.0861C81.8086 57.1611 81.7844 57.2221 81.7361 57.269C81.6877 57.316 81.6248 57.3394 81.5475 57.3394H79.0083C78.9309 57.3394 78.868 57.316 78.8196 57.269C78.7713 57.2221 78.7471 57.1611 78.7471 57.0861V42.8135C78.7471 42.7478 78.7713 42.6868 78.8196 42.6305C78.868 42.5836 78.9309 42.5602 79.0083 42.5602H81.5475C81.6248 42.5602 81.6877 42.5836 81.7361 42.6305C81.7844 42.6868 81.8086 42.7478 81.8086 42.8135V47.4866C81.8086 47.5241 81.8231 47.5523 81.8522 47.571C81.8812 47.5804 81.9005 47.571 81.9102 47.5429C82.5099 46.7265 83.3999 46.3183 84.58 46.3183Z" fill="#252530"/>
<path d="M44.6977 100.242C43.9432 100.242 43.2855 100.125 42.7244 99.8902C42.1634 99.6556 41.7281 99.3272 41.4185 98.9049C41.1187 98.4827 40.9688 97.9853 40.9688 97.4129V97.061C40.9688 97.0141 40.9881 96.9719 41.0268 96.9344C41.0558 96.9062 41.0945 96.8921 41.1429 96.8921H42.4342C42.4826 96.8921 42.5261 96.9062 42.5648 96.9344C42.5938 96.9719 42.6083 97.0141 42.6083 97.061V97.3285C42.6083 97.7601 42.8066 98.1167 43.2032 98.3982C43.5998 98.6891 44.1415 98.8346 44.8283 98.8346C45.4184 98.8346 45.8633 98.7126 46.1632 98.4686C46.4631 98.2246 46.613 97.9103 46.613 97.5255C46.613 97.2628 46.5308 97.0376 46.3663 96.8499C46.2019 96.6716 45.9697 96.5074 45.6699 96.3573C45.3603 96.2071 44.9009 96.0195 44.2915 95.7943C43.6047 95.5503 43.0485 95.3204 42.6229 95.1046C42.1972 94.8887 41.8442 94.5931 41.5636 94.2178C41.2735 93.8518 41.1284 93.392 41.1284 92.8384C41.1284 92.0126 41.4379 91.3605 42.057 90.8819C42.6761 90.4033 43.5031 90.1641 44.5381 90.1641C45.2636 90.1641 45.9069 90.286 46.4679 90.53C47.0193 90.774 47.4497 91.1165 47.7593 91.5575C48.0688 91.9892 48.2236 92.4912 48.2236 93.0636V93.3029C48.2236 93.3498 48.2042 93.392 48.1655 93.4296C48.1365 93.4577 48.0978 93.4718 48.0495 93.4718H46.7436C46.6952 93.4718 46.6565 93.4577 46.6275 93.4296C46.5888 93.392 46.5695 93.3498 46.5695 93.3029V93.1481C46.5695 92.707 46.3857 92.3364 46.0181 92.0361C45.6409 91.7264 45.1233 91.5716 44.4656 91.5716C43.9336 91.5716 43.5224 91.6795 43.2323 91.8953C42.9324 92.1112 42.7825 92.4161 42.7825 92.8103C42.7825 93.0918 42.8598 93.3217 43.0146 93.5C43.1694 93.6782 43.4015 93.8378 43.7111 93.9785C44.0206 94.1287 44.4994 94.3163 45.1475 94.5415C45.8343 94.7949 46.3857 95.0248 46.8016 95.2312C47.2079 95.4377 47.561 95.7239 47.8608 96.0898C48.151 96.4652 48.2961 96.9297 48.2961 97.4833C48.2961 98.3278 47.9721 98.9988 47.324 99.4961C46.6856 99.9934 45.8101 100.242 44.6977 100.242ZM53.5486 100.242C52.8328 100.242 52.1992 100.106 51.6479 99.8339C51.0965 99.5618 50.6709 99.1771 50.371 98.6797C50.0615 98.173 49.9067 97.5912 49.9067 96.9344V90.4456C49.9067 90.3987 49.926 90.3611 49.9647 90.333C49.9938 90.2954 50.0324 90.2767 50.0808 90.2767H51.4157C51.4641 90.2767 51.5076 90.2954 51.5463 90.333C51.5753 90.3611 51.5898 90.3987 51.5898 90.4456V96.9625C51.5898 97.5162 51.7688 97.9666 52.1267 98.3138C52.4846 98.661 52.9586 98.8346 53.5486 98.8346C54.1387 98.8346 54.6127 98.661 54.9706 98.3138C55.3285 97.9666 55.5074 97.5162 55.5074 96.9625V90.4456C55.5074 90.3987 55.5268 90.3611 55.5655 90.333C55.5945 90.2954 55.6332 90.2767 55.6815 90.2767H57.0164C57.0648 90.2767 57.1083 90.2954 57.147 90.333C57.176 90.3611 57.1905 90.3987 57.1905 90.4456V96.9344C57.1905 97.5912 57.0406 98.173 56.7407 98.6797C56.4409 99.1771 56.0153 99.5618 55.4639 99.8339C54.9125 100.106 54.2741 100.242 53.5486 100.242ZM65.7657 90.3893C65.8141 90.3142 65.8818 90.2767 65.9689 90.2767H67.3038C67.3521 90.2767 67.3957 90.2954 67.4344 90.333C67.4634 90.3611 67.4779 90.3987 67.4779 90.4456V99.9606C67.4779 100.008 67.4634 100.045 67.4344 100.073C67.3957 100.111 67.3521 100.13 67.3038 100.13H65.9689C65.9205 100.13 65.877 100.111 65.8383 100.073C65.8093 100.045 65.7948 100.008 65.7948 99.9606V93.2466C65.7948 93.2184 65.7803 93.1997 65.7512 93.1903C65.7319 93.1809 65.7174 93.1903 65.7077 93.2184L63.894 95.9209C63.8456 95.996 63.7779 96.0335 63.6909 96.0335H63.0234C62.9364 96.0335 62.8687 95.996 62.8203 95.9209L60.9921 93.2325C60.9824 93.2044 60.9631 93.195 60.934 93.2044C60.9147 93.2138 60.905 93.2325 60.905 93.2607V99.9606C60.905 100.008 60.8905 100.045 60.8615 100.073C60.8228 100.111 60.7793 100.13 60.7309 100.13H59.396C59.3476 100.13 59.309 100.111 59.2799 100.073C59.2412 100.045 59.2219 100.008 59.2219 99.9606V90.4456C59.2219 90.3987 59.2412 90.3611 59.2799 90.333C59.309 90.2954 59.3476 90.2767 59.396 90.2767H60.7309C60.818 90.2767 60.8857 90.3142 60.934 90.3893L63.2991 93.8659C63.3185 93.8847 63.3378 93.8941 63.3571 93.8941C63.3765 93.8941 63.391 93.8847 63.4007 93.8659L65.7657 90.3893ZM76.1402 90.3893C76.1885 90.3142 76.2562 90.2767 76.3433 90.2767H77.6782C77.7265 90.2767 77.7652 90.2954 77.7943 90.333C77.8329 90.3611 77.8523 90.3987 77.8523 90.4456V99.9606C77.8523 100.008 77.8329 100.045 77.7943 100.073C77.7652 100.111 77.7265 100.13 77.6782 100.13H76.3433C76.2949 100.13 76.2562 100.111 76.2272 100.073C76.1885 100.045 76.1692 100.008 76.1692 99.9606V93.2466C76.1692 93.2184 76.1595 93.1997 76.1402 93.1903C76.1111 93.1809 76.0918 93.1903 76.0821 93.2184L74.2684 95.9209C74.22 95.996 74.1523 96.0335 74.0653 96.0335H73.3978C73.3108 96.0335 73.2431 95.996 73.1947 95.9209L71.3665 93.2325C71.3568 93.2044 71.3423 93.195 71.3229 93.2044C71.2939 93.2138 71.2794 93.2325 71.2794 93.2607V99.9606C71.2794 100.008 71.2649 100.045 71.2359 100.073C71.1972 100.111 71.1537 100.13 71.1053 100.13H69.7704C69.722 100.13 69.6834 100.111 69.6543 100.073C69.6156 100.045 69.5963 100.008 69.5963 99.9606V90.4456C69.5963 90.3987 69.6156 90.3611 69.6543 90.333C69.6834 90.2954 69.722 90.2767 69.7704 90.2767H71.1053C71.1924 90.2767 71.2601 90.3142 71.3084 90.3893L73.6735 93.8659C73.6929 93.8847 73.7122 93.8941 73.7315 93.8941C73.7509 93.8941 73.7654 93.8847 73.7751 93.8659L76.1402 90.3893ZM86.8483 91.5153C86.8483 91.5622 86.8338 91.5998 86.8047 91.6279C86.7661 91.6654 86.7225 91.6842 86.6742 91.6842H81.7264C81.678 91.6842 81.6538 91.7077 81.6538 91.7546V94.3867C81.6538 94.4336 81.678 94.4571 81.7264 94.4571H85.0491C85.0974 94.4571 85.141 94.4712 85.1797 94.4993C85.2087 94.5368 85.2232 94.5791 85.2232 94.626V95.6957C85.2232 95.7426 85.2087 95.7849 85.1797 95.8224C85.141 95.8506 85.0974 95.8646 85.0491 95.8646H81.7264C81.678 95.8646 81.6538 95.8881 81.6538 95.935V98.6516C81.6538 98.6985 81.678 98.722 81.7264 98.722H86.6742C86.7225 98.722 86.7661 98.7407 86.8047 98.7783C86.8338 98.8064 86.8483 98.8439 86.8483 98.8909V99.9606C86.8483 100.008 86.8338 100.045 86.8047 100.073C86.7661 100.111 86.7225 100.13 86.6742 100.13H80.1448C80.0965 100.13 80.0578 100.111 80.0287 100.073C79.99 100.045 79.9707 100.008 79.9707 99.9606V90.4456C79.9707 90.3987 79.99 90.3611 80.0287 90.333C80.0578 90.2954 80.0965 90.2767 80.1448 90.2767H86.6742C86.7225 90.2767 86.7661 90.2954 86.8047 90.333C86.8338 90.3611 86.8483 90.3987 86.8483 90.4456V91.5153ZM94.2627 100.13C94.166 100.13 94.0983 100.087 94.0596 100.003L92.1443 95.9491C92.125 95.9116 92.0959 95.8928 92.0572 95.8928H90.3161C90.2677 95.8928 90.2435 95.9162 90.2435 95.9632V99.9606C90.2435 100.008 90.2242 100.045 90.1855 100.073C90.1565 100.111 90.1178 100.13 90.0694 100.13H88.7345C88.6862 100.13 88.6475 100.111 88.6185 100.073C88.5798 100.045 88.5604 100.008 88.5604 99.9606V90.4456C88.5604 90.3987 88.5798 90.3611 88.6185 90.333C88.6475 90.2954 88.6862 90.2767 88.7345 90.2767H92.7247C93.3147 90.2767 93.8371 90.394 94.2917 90.6286C94.7464 90.8725 95.0994 91.2103 95.3509 91.642C95.6024 92.083 95.7282 92.585 95.7282 93.1481C95.7282 93.7955 95.5541 94.3445 95.2058 94.7949C94.8673 95.2547 94.3933 95.5737 93.7839 95.752C93.7645 95.752 93.75 95.7614 93.7404 95.7802C93.7307 95.7989 93.7307 95.8177 93.7404 95.8365L95.7862 99.9324C95.8056 99.97 95.8152 99.9981 95.8152 100.017C95.8152 100.092 95.762 100.13 95.6556 100.13H94.2627ZM90.3161 91.6842C90.2677 91.6842 90.2435 91.7077 90.2435 91.7546V94.5556C90.2435 94.6025 90.2677 94.626 90.3161 94.626H92.4925C92.9568 94.626 93.3293 94.4899 93.6098 94.2178C93.9 93.9551 94.0451 93.6032 94.0451 93.1621C94.0451 92.7211 93.9 92.3645 93.6098 92.0924C93.3293 91.8203 92.9568 91.6842 92.4925 91.6842H90.3161Z" fill="white"/>
<path d="M51.8919 125.549C51.8629 125.577 51.8533 125.606 51.8629 125.634C51.8823 125.662 51.9113 125.676 51.95 125.676H57.6523C57.72 125.676 57.778 125.699 57.8264 125.746C57.8844 125.793 57.9135 125.85 57.9135 125.915V127.9C57.9135 127.966 57.8844 128.022 57.8264 128.069C57.778 128.116 57.72 128.139 57.6523 128.139H48.192C48.1146 128.139 48.0517 128.116 48.0034 128.069C47.955 128.022 47.9308 127.966 47.9308 127.9V126.014C47.9308 125.892 47.9743 125.789 48.0614 125.704C48.7482 125.057 49.4495 124.348 50.1653 123.579C50.8811 122.809 51.3309 122.331 51.5147 122.143C51.9016 121.693 52.2982 121.261 52.7045 120.848C53.9813 119.478 54.6198 118.46 54.6198 117.794C54.6198 117.315 54.4456 116.921 54.0974 116.611C53.7492 116.311 53.2945 116.161 52.7335 116.161C52.1725 116.161 51.7178 116.311 51.3696 116.611C51.0117 116.921 50.8327 117.329 50.8327 117.836V118.343C50.8327 118.408 50.8086 118.465 50.7602 118.511C50.7118 118.558 50.6538 118.582 50.5861 118.582H48.1049C48.0372 118.582 47.9792 118.558 47.9308 118.511C47.8728 118.465 47.8438 118.408 47.8438 118.343V117.385C47.8921 116.654 48.1339 116.001 48.5692 115.429C49.0045 114.866 49.5801 114.434 50.2959 114.134C51.0214 113.834 51.8339 113.684 52.7335 113.684C53.7298 113.684 54.5956 113.867 55.3307 114.233C56.0659 114.589 56.6318 115.072 57.0284 115.682C57.4346 116.302 57.6378 116.982 57.6378 117.723C57.6378 118.296 57.4878 118.882 57.188 119.483C56.8978 120.083 56.4576 120.731 55.8676 121.425C55.4323 121.951 54.9632 122.476 54.4602 123.002C53.9572 123.518 53.2075 124.264 52.2112 125.24L51.8919 125.549ZM64.7475 128.364C63.1998 128.364 61.981 127.947 61.0911 127.112C60.1915 126.276 59.7417 125.136 59.7417 123.691V118.3C59.7417 116.883 60.1915 115.762 61.0911 114.936C61.981 114.101 63.1998 113.684 64.7475 113.684C66.2855 113.684 67.5092 114.101 68.4184 114.936C69.318 115.762 69.7678 116.883 69.7678 118.3V123.691C69.7678 125.136 69.318 126.276 68.4184 127.112C67.5092 127.947 66.2855 128.364 64.7475 128.364ZM64.7475 125.901C65.3762 125.901 65.8744 125.713 66.242 125.338C66.6192 124.963 66.8079 124.461 66.8079 123.832V118.216C66.8079 117.597 66.6192 117.099 66.242 116.724C65.8744 116.349 65.3762 116.161 64.7475 116.161C64.1284 116.161 63.6351 116.349 63.2675 116.724C62.8903 117.099 62.7016 117.597 62.7016 118.216V123.832C62.7016 124.461 62.8903 124.963 63.2675 125.338C63.6351 125.713 64.1284 125.901 64.7475 125.901ZM75.6588 125.549C75.6297 125.577 75.6249 125.606 75.6442 125.634C75.6539 125.662 75.6829 125.676 75.7313 125.676H81.4336C81.5013 125.676 81.5593 125.699 81.6077 125.746C81.6561 125.793 81.6803 125.85 81.6803 125.915V127.9C81.6803 127.966 81.6561 128.022 81.6077 128.069C81.5593 128.116 81.5013 128.139 81.4336 128.139H71.9588C71.8911 128.139 71.833 128.116 71.7847 128.069C71.7363 128.022 71.7121 127.966 71.7121 127.9V126.014C71.7121 125.892 71.7508 125.789 71.8282 125.704C72.5247 125.057 73.226 124.348 73.9321 123.579C74.6479 122.809 75.0977 122.331 75.2815 122.143C75.6781 121.693 76.0795 121.261 76.4858 120.848C77.7627 119.478 78.4011 118.46 78.4011 117.794C78.4011 117.315 78.227 116.921 77.8787 116.611C77.5208 116.311 77.0614 116.161 76.5003 116.161C75.9393 116.161 75.4846 116.311 75.1364 116.611C74.7882 116.921 74.6141 117.329 74.6141 117.836V118.343C74.6141 118.408 74.5899 118.465 74.5415 118.511C74.4931 118.558 74.4303 118.582 74.3529 118.582H71.8717C71.804 118.582 71.746 118.558 71.6976 118.511C71.6493 118.465 71.6251 118.408 71.6251 118.343V117.385C71.6638 116.654 71.9008 116.001 72.336 115.429C72.7713 114.866 73.3517 114.434 74.0772 114.134C74.8027 113.834 75.6104 113.684 76.5003 113.684C77.4966 113.684 78.3624 113.867 79.0975 114.233C79.8424 114.589 80.4131 115.072 80.8097 115.682C81.2063 116.302 81.4046 116.982 81.4046 117.723C81.4046 118.296 81.2595 118.882 80.9693 119.483C80.6694 120.083 80.2245 120.731 79.6344 121.425C79.1991 121.951 78.73 122.476 78.227 123.002C77.724 123.518 76.9743 124.264 75.978 125.24L75.6588 125.549ZM85.5689 113.909C85.6462 113.871 85.7526 113.853 85.8881 113.853H88.4418C88.5095 113.853 88.5675 113.876 88.6159 113.923C88.6642 113.97 88.6884 114.026 88.6884 114.092V127.9C88.6884 127.966 88.6642 128.022 88.6159 128.069C88.5675 128.116 88.5095 128.139 88.4418 128.139H85.9751C85.9074 128.139 85.8494 128.116 85.801 128.069C85.743 128.022 85.7139 127.966 85.7139 127.9V116.71C85.7139 116.682 85.7043 116.654 85.6849 116.625C85.6559 116.597 85.6269 116.593 85.5979 116.611L83.5085 117.16L83.4214 117.174C83.2957 117.174 83.2328 117.099 83.2328 116.949L83.1748 115.204C83.1748 115.063 83.2376 114.964 83.3634 114.908L85.5689 113.909Z" fill="#252530"/>
<path d="M67.7538 134.186L-5.2174 114.697L-10.6562 148.313L144.67 139.466V114.697L67.7538 134.186Z" fill="#F2F3F2"/>
</g>
</g>
<defs>
<filter id="filter0_d_1_1690" x="0.496403" y="0.496403" width="141.007" height="155.007" filterUnits="userSpaceOnUse" color-interpolation-filters="sRGB">
<feFlood flood-opacity="0" result="BackgroundImageFix"/>
<feColorMatrix in="SourceAlpha" type="matrix" values="0 0 0 0 0 0 0 0 0 0 0 0 0 0 0 0 0 0 127 0" result="hardAlpha"/>
<feOffset dx="3" dy="5"/>
<feGaussianBlur stdDeviation="7.2518"/>
<feComposite in2="hardAlpha" operator="out"/>
<feColorMatrix type="matrix" values="0 0 0 0 0.32549 0 0 0 0 0.32549 0 0 0 0 0.380392 0 0 0 0.1 0"/>
<feBlend mode="normal" in2="BackgroundImageFix" result="effect1_dropShadow_1_1690"/>
<feBlend mode="normal" in="SourceGraphic" in2="effect1_dropShadow_1_1690" result="shape"/>
</filter>
<clipPath id="clip0_1_1690">
<rect x="12" y="10" width="112" height="126" rx="15.9177" fill="white"/>
</clipPath>
</defs>
</svg>
