<svg width="223" height="269" viewBox="0 0 223 269" fill="none" xmlns="http://www.w3.org/2000/svg">
<g filter="url(#filter0_d_1_1791)">
<rect x="20.5764" y="13.5764" width="181.271" height="227.847" rx="22.4811" fill="white" stroke="#FFC107" stroke-width="1.15288"/>
<rect x="81" y="106.697" width="58.7967" height="58.7967" rx="9" fill="#FFC107"/>
<path d="M126.789 130.956C126.789 133.572 125.784 136.085 123.99 137.944C119.861 142.224 115.855 146.688 111.572 150.813C110.59 151.745 109.032 151.711 108.092 150.737L95.7509 137.944C92.0205 134.077 92.0205 127.834 95.7509 123.968C99.5179 120.063 105.655 120.063 109.422 123.968L109.87 124.432L110.319 123.968C112.125 122.095 114.585 121.038 117.154 121.038C119.724 121.038 122.184 122.094 123.99 123.968C125.784 125.827 126.789 128.339 126.789 130.956Z" stroke="white" stroke-width="3.28985" stroke-linejoin="round"/>
<path d="M49.436 68.336C47.8493 68.336 46.4493 67.9533 45.236 67.188C44.0227 66.404 43.0707 65.3027 42.38 63.884C41.708 62.4467 41.372 60.7387 41.372 58.76C41.372 56.7813 41.708 55.092 42.38 53.692C43.0707 52.292 44.0227 51.2187 45.236 50.472C46.4493 49.7253 47.8493 49.352 49.436 49.352C51.0413 49.352 52.4507 49.7253 53.664 50.472C54.8773 51.2187 55.82 52.292 56.492 53.692C57.1827 55.092 57.528 56.7813 57.528 58.76C57.528 60.7387 57.1827 62.4467 56.492 63.884C55.82 65.3027 54.8773 66.404 53.664 67.188C52.4507 67.9533 51.0413 68.336 49.436 68.336ZM49.436 65.508C50.8733 65.508 52.0213 64.9013 52.88 63.688C53.7387 62.456 54.168 60.8133 54.168 58.76C54.168 56.7067 53.7387 55.1013 52.88 53.944C52.0213 52.768 50.8733 52.18 49.436 52.18C47.9987 52.18 46.8507 52.768 45.992 53.944C45.1333 55.1013 44.704 56.7067 44.704 58.76C44.704 60.8133 45.1333 62.456 45.992 63.688C46.8507 64.9013 47.9987 65.508 49.436 65.508ZM65.1952 68.336C63.7205 68.336 62.6472 67.86 61.9752 66.908C61.3032 65.956 60.9672 64.612 60.9672 62.876V54.252H64.1872V62.456C64.1872 63.5947 64.3552 64.3973 64.6912 64.864C65.0272 65.3307 65.5685 65.564 66.3152 65.564C66.9125 65.564 67.4352 65.4147 67.8832 65.116C68.3499 64.8173 68.8445 64.332 69.3672 63.66V54.252H72.5872V68H69.9552L69.7032 65.984H69.6192C69.0219 66.6933 68.3685 67.2627 67.6592 67.692C66.9499 68.1213 66.1285 68.336 65.1952 68.336ZM76.8618 68V54.252H79.5218L79.7458 56.688H79.8578C80.3431 55.792 80.9311 55.1107 81.6218 54.644C82.3124 54.1587 83.0218 53.916 83.7498 53.916C84.4031 53.916 84.9258 54.0093 85.3178 54.196L84.7578 56.996C84.5151 56.9213 84.2911 56.8653 84.0858 56.828C83.8804 56.7907 83.6284 56.772 83.3298 56.772C82.7884 56.772 82.2191 56.9867 81.6218 57.416C81.0244 57.8267 80.5111 58.5547 80.0818 59.6V68H76.8618ZM97.3366 58.256L96.6926 60.496H101.369L100.725 58.256C100.426 57.2853 100.137 56.2867 99.8566 55.26C99.5952 54.2333 99.3339 53.216 99.0726 52.208H98.9606C98.7179 53.2347 98.4566 54.2613 98.1766 55.288C97.9152 56.296 97.6352 57.2853 97.3366 58.256ZM91.2046 68L97.1686 49.688H100.977L106.941 68H103.525L102.097 63.044H95.9366L94.5086 68H91.2046ZM111.218 68L107.578 54.252H110.826L112.478 61.392C112.627 62.0453 112.748 62.6987 112.842 63.352C112.954 64.0053 113.075 64.668 113.206 65.34H113.318C113.448 64.668 113.579 64.0053 113.71 63.352C113.859 62.68 114.018 62.0267 114.186 61.392L115.978 54.252H118.918L120.738 61.392C120.906 62.0453 121.064 62.6987 121.214 63.352C121.363 64.0053 121.512 64.668 121.662 65.34H121.774C121.904 64.668 122.026 64.0053 122.138 63.352C122.25 62.6987 122.371 62.0453 122.502 61.392L124.154 54.252H127.178L123.678 68H119.842L118.246 61.588C118.096 60.9347 117.956 60.2907 117.826 59.656C117.695 59.0027 117.555 58.312 117.406 57.584H117.294C117.163 58.312 117.032 59.0027 116.902 59.656C116.771 60.3093 116.631 60.9627 116.482 61.616L114.914 68H111.218ZM133.15 68.336C131.955 68.336 130.975 67.9627 130.21 67.216C129.463 66.4693 129.09 65.4987 129.09 64.304C129.09 62.8293 129.734 61.6907 131.022 60.888C132.31 60.0667 134.363 59.5067 137.182 59.208C137.163 58.48 136.967 57.8547 136.594 57.332C136.239 56.7907 135.595 56.52 134.662 56.52C133.99 56.52 133.327 56.6507 132.674 56.912C132.039 57.1733 131.414 57.4907 130.798 57.864L129.622 55.708C130.387 55.2227 131.246 54.8027 132.198 54.448C133.168 54.0933 134.195 53.916 135.278 53.916C136.995 53.916 138.274 54.4293 139.114 55.456C139.972 56.464 140.402 57.9293 140.402 59.852V68H137.742L137.518 66.488H137.406C136.79 67.0107 136.127 67.4493 135.418 67.804C134.727 68.1587 133.971 68.336 133.15 68.336ZM134.186 65.816C134.746 65.816 135.25 65.6853 135.698 65.424C136.164 65.144 136.659 64.7707 137.182 64.304V61.224C135.315 61.4667 134.018 61.8307 133.29 62.316C132.562 62.7827 132.198 63.3613 132.198 64.052C132.198 64.668 132.384 65.116 132.758 65.396C133.131 65.676 133.607 65.816 134.186 65.816ZM144.451 68V54.252H147.111L147.335 56.688H147.447C147.932 55.792 148.52 55.1107 149.211 54.644C149.902 54.1587 150.611 53.916 151.339 53.916C151.992 53.916 152.515 54.0093 152.907 54.196L152.347 56.996C152.104 56.9213 151.88 56.8653 151.675 56.828C151.47 56.7907 151.218 56.772 150.919 56.772C150.378 56.772 149.808 56.9867 149.211 57.416C148.614 57.8267 148.1 58.5547 147.671 59.6V68H144.451ZM159.635 68.336C157.918 68.336 156.546 67.7013 155.519 66.432C154.492 65.1627 153.979 63.3987 153.979 61.14C153.979 59.6467 154.25 58.3587 154.791 57.276C155.351 56.1933 156.079 55.3627 156.975 54.784C157.871 54.2053 158.814 53.916 159.803 53.916C160.587 53.916 161.25 54.056 161.791 54.336C162.351 54.5973 162.892 54.9613 163.415 55.428L163.303 53.216V48.232H166.523V68H163.863L163.639 66.516H163.527C163.023 67.02 162.435 67.4493 161.763 67.804C161.091 68.1587 160.382 68.336 159.635 68.336ZM160.419 65.676C161.446 65.676 162.407 65.1627 163.303 64.136V57.724C162.836 57.2947 162.37 56.996 161.903 56.828C161.436 56.66 160.97 56.576 160.503 56.576C159.626 56.576 158.87 56.9773 158.235 57.78C157.619 58.564 157.311 59.6747 157.311 61.112C157.311 62.5867 157.582 63.716 158.123 64.5C158.664 65.284 159.43 65.676 160.419 65.676ZM174.656 68.336C173.722 68.336 172.789 68.1587 171.856 67.804C170.922 67.4307 170.12 66.9733 169.448 66.432L170.96 64.36C171.576 64.8267 172.192 65.2 172.808 65.48C173.424 65.76 174.077 65.9 174.768 65.9C175.514 65.9 176.065 65.7413 176.42 65.424C176.774 65.1067 176.952 64.7147 176.952 64.248C176.952 63.856 176.802 63.5387 176.504 63.296C176.224 63.0347 175.86 62.8107 175.412 62.624C174.964 62.4187 174.497 62.2227 174.012 62.036C173.414 61.812 172.817 61.5413 172.22 61.224C171.641 60.888 171.165 60.468 170.792 59.964C170.418 59.4413 170.232 58.7973 170.232 58.032C170.232 56.8187 170.68 55.8293 171.576 55.064C172.472 54.2987 173.685 53.916 175.216 53.916C176.186 53.916 177.054 54.084 177.82 54.42C178.585 54.756 179.248 55.1387 179.808 55.568L178.324 57.528C177.838 57.1733 177.344 56.8933 176.84 56.688C176.354 56.464 175.841 56.352 175.3 56.352C174.609 56.352 174.096 56.5013 173.76 56.8C173.424 57.08 173.256 57.4347 173.256 57.864C173.256 58.4053 173.536 58.816 174.096 59.096C174.656 59.376 175.309 59.6467 176.056 59.908C176.69 60.132 177.306 60.412 177.904 60.748C178.501 61.0653 178.996 61.4853 179.388 62.008C179.798 62.5307 180.004 63.2213 180.004 64.08C180.004 65.256 179.546 66.264 178.632 67.104C177.717 67.9253 176.392 68.336 174.656 68.336Z" fill="#3B3C4E"/>
<path d="M61.7367 199.573C60.8759 199.573 60.052 199.179 59.2649 198.392H59.2096L59.0251 199.352H57.3466V186.329H59.4679V189.686L59.4125 191.198C59.7937 190.866 60.2118 190.596 60.6668 190.387C61.1218 190.178 61.5768 190.073 62.0318 190.073C63.1632 190.073 64.0425 190.491 64.6696 191.328C65.2968 192.164 65.6104 193.277 65.6104 194.666C65.6104 195.699 65.4259 196.585 65.057 197.323C64.6881 198.048 64.2085 198.608 63.6182 199.001C63.0402 199.382 62.4131 199.573 61.7367 199.573ZM61.294 197.821C61.8966 197.821 62.4008 197.556 62.8066 197.027C63.2124 196.499 63.4153 195.724 63.4153 194.703C63.4153 193.793 63.2616 193.086 62.9541 192.582C62.6467 192.078 62.1487 191.826 61.46 191.826C60.8206 191.826 60.1565 192.164 59.4679 192.84V197.064C59.7876 197.335 60.1012 197.532 60.4086 197.655C60.7283 197.765 61.0235 197.821 61.294 197.821ZM68.3702 203.078C68.1243 203.078 67.9091 203.059 67.7246 203.022C67.5401 202.985 67.3618 202.942 67.1897 202.893L67.577 201.233C67.6631 201.258 67.7615 201.282 67.8722 201.307C67.9951 201.344 68.112 201.362 68.2226 201.362C68.7022 201.362 69.0835 201.215 69.3663 200.919C69.6614 200.637 69.8828 200.268 70.0304 199.813L70.1964 199.241L66.6363 190.295H68.7945L70.3624 194.74C70.4977 195.134 70.6268 195.552 70.7497 195.994C70.885 196.425 71.0203 196.855 71.1556 197.286H71.2293C71.34 196.867 71.4507 196.443 71.5614 196.013C71.6843 195.57 71.8012 195.146 71.9118 194.74L73.2769 190.295H75.3244L72.041 199.757C71.6598 200.778 71.1986 201.584 70.6575 202.174C70.1164 202.776 69.354 203.078 68.3702 203.078ZM85.8443 199.573C84.836 199.573 83.9198 199.333 83.0959 198.854C82.272 198.374 81.6141 197.673 81.1222 196.751C80.6426 195.816 80.4028 194.685 80.4028 193.357C80.4028 192.041 80.6487 190.916 81.1406 189.981C81.6448 189.034 82.315 188.315 83.1512 187.823C83.9874 187.319 84.9098 187.067 85.9181 187.067C86.6806 187.067 87.3569 187.22 87.9472 187.528C88.5375 187.835 89.0232 188.192 89.4044 188.598L88.2608 189.981C87.9533 189.661 87.609 189.409 87.2278 189.225C86.8589 189.028 86.4408 188.93 85.9735 188.93C85.3217 188.93 84.7376 189.108 84.2211 189.465C83.7169 189.809 83.3172 190.307 83.0221 190.959C82.7393 191.61 82.5979 192.391 82.5979 193.301C82.5979 194.679 82.8991 195.761 83.5017 196.548C84.1043 197.323 84.9098 197.71 85.9181 197.71C86.4592 197.71 86.9388 197.599 87.3569 197.378C87.775 197.144 88.1562 196.843 88.5006 196.474L89.6442 197.821C89.1523 198.386 88.5867 198.823 87.9472 199.13C87.32 199.425 86.6191 199.573 85.8443 199.573ZM94.1157 199.573C93.1442 199.573 92.4371 199.259 91.9944 198.632C91.5517 198.005 91.3303 197.12 91.3303 195.976V190.295H93.4516V195.699C93.4516 196.449 93.5623 196.978 93.7836 197.286C94.005 197.593 94.3616 197.747 94.8535 197.747C95.247 197.747 95.5913 197.648 95.8865 197.452C96.1939 197.255 96.5198 196.935 96.8641 196.492V190.295H98.9854V199.352H97.2515L97.0855 198.023H97.0301C96.6366 198.491 96.2062 198.866 95.7389 199.149C95.2716 199.431 94.7305 199.573 94.1157 199.573ZM104.329 199.573C103.714 199.573 103.099 199.456 102.484 199.222C101.869 198.976 101.34 198.675 100.898 198.319L101.894 196.954C102.299 197.261 102.705 197.507 103.111 197.691C103.517 197.876 103.947 197.968 104.402 197.968C104.894 197.968 105.257 197.864 105.491 197.655C105.724 197.445 105.841 197.187 105.841 196.88C105.841 196.622 105.743 196.412 105.546 196.253C105.362 196.08 105.122 195.933 104.827 195.81C104.531 195.675 104.224 195.546 103.904 195.423C103.511 195.275 103.117 195.097 102.724 194.888C102.343 194.666 102.029 194.39 101.783 194.058C101.537 193.713 101.414 193.289 101.414 192.785C101.414 191.985 101.709 191.334 102.299 190.83C102.89 190.325 103.689 190.073 104.697 190.073C105.337 190.073 105.909 190.184 106.413 190.405C106.917 190.627 107.354 190.879 107.723 191.162L106.745 192.453C106.425 192.219 106.099 192.035 105.767 191.899C105.448 191.752 105.109 191.678 104.753 191.678C104.298 191.678 103.96 191.776 103.738 191.973C103.517 192.158 103.406 192.391 103.406 192.674C103.406 193.031 103.591 193.301 103.96 193.486C104.329 193.67 104.759 193.849 105.251 194.021C105.669 194.168 106.075 194.353 106.468 194.574C106.862 194.783 107.188 195.06 107.446 195.404C107.716 195.748 107.852 196.203 107.852 196.769C107.852 197.544 107.55 198.208 106.948 198.761C106.345 199.302 105.472 199.573 104.329 199.573ZM112.705 199.573C111.66 199.573 110.916 199.272 110.474 198.669C110.043 198.054 109.828 197.261 109.828 196.29V191.973H108.537V190.387L109.939 190.295L110.197 187.823H111.968V190.295H114.273V191.973H111.968V196.29C111.968 197.347 112.392 197.876 113.24 197.876C113.4 197.876 113.566 197.857 113.738 197.821C113.911 197.771 114.058 197.722 114.181 197.673L114.55 199.241C114.304 199.327 114.021 199.401 113.702 199.462C113.394 199.536 113.062 199.573 112.705 199.573ZM119.728 199.573C118.978 199.573 118.277 199.388 117.625 199.02C116.973 198.638 116.445 198.097 116.039 197.396C115.633 196.683 115.43 195.828 115.43 194.832C115.43 193.824 115.633 192.969 116.039 192.268C116.445 191.555 116.973 191.014 117.625 190.645C118.277 190.264 118.978 190.073 119.728 190.073C120.49 190.073 121.197 190.264 121.849 190.645C122.501 191.014 123.03 191.555 123.436 192.268C123.841 192.969 124.044 193.824 124.044 194.832C124.044 195.828 123.841 196.683 123.436 197.396C123.03 198.097 122.501 198.638 121.849 199.02C121.197 199.388 120.49 199.573 119.728 199.573ZM119.728 197.839C120.392 197.839 120.915 197.562 121.296 197.009C121.677 196.456 121.868 195.73 121.868 194.832C121.868 193.922 121.677 193.191 121.296 192.637C120.915 192.084 120.392 191.807 119.728 191.807C119.064 191.807 118.541 192.084 118.16 192.637C117.791 193.191 117.607 193.922 117.607 194.832C117.607 195.73 117.791 196.456 118.16 197.009C118.541 197.562 119.064 197.839 119.728 197.839ZM126.273 199.352V190.295H128.025L128.173 191.53H128.247C128.628 191.125 129.04 190.78 129.483 190.497C129.938 190.215 130.448 190.073 131.014 190.073C131.678 190.073 132.207 190.221 132.6 190.516C133.006 190.799 133.313 191.192 133.522 191.696C133.953 191.229 134.402 190.842 134.869 190.534C135.349 190.227 135.871 190.073 136.437 190.073C137.396 190.073 138.103 190.387 138.558 191.014C139.013 191.641 139.241 192.527 139.241 193.67V199.352H137.101V193.947C137.101 193.197 136.984 192.668 136.75 192.361C136.529 192.053 136.185 191.899 135.717 191.899C135.152 191.899 134.518 192.274 133.818 193.025V199.352H131.696V193.947C131.696 193.197 131.579 192.668 131.346 192.361C131.124 192.053 130.774 191.899 130.294 191.899C129.729 191.899 129.095 192.274 128.394 193.025V199.352H126.273ZM145.822 199.573C144.985 199.573 144.229 199.388 143.553 199.02C142.876 198.638 142.342 198.097 141.948 197.396C141.555 196.683 141.358 195.828 141.358 194.832C141.358 193.849 141.555 193 141.948 192.287C142.354 191.573 142.876 191.026 143.516 190.645C144.155 190.264 144.826 190.073 145.527 190.073C146.35 190.073 147.039 190.258 147.593 190.627C148.146 190.983 148.564 191.487 148.847 192.139C149.13 192.779 149.271 193.523 149.271 194.371C149.271 194.814 149.24 195.158 149.179 195.404H143.424C143.522 196.203 143.811 196.824 144.291 197.267C144.77 197.71 145.373 197.931 146.098 197.931C146.492 197.931 146.855 197.876 147.187 197.765C147.531 197.642 147.869 197.476 148.201 197.267L148.921 198.595C148.49 198.878 148.011 199.112 147.482 199.296C146.953 199.481 146.4 199.573 145.822 199.573ZM143.405 193.965H147.427C147.427 193.264 147.273 192.717 146.965 192.324C146.658 191.918 146.197 191.715 145.582 191.715C145.053 191.715 144.58 191.912 144.162 192.305C143.756 192.686 143.504 193.24 143.405 193.965ZM151.426 199.352V190.295H153.179L153.326 191.899H153.4C153.72 191.309 154.107 190.86 154.562 190.553C155.017 190.233 155.484 190.073 155.964 190.073C156.394 190.073 156.739 190.135 156.997 190.258L156.628 192.102C156.468 192.053 156.321 192.016 156.185 191.992C156.05 191.967 155.884 191.955 155.687 191.955C155.331 191.955 154.956 192.096 154.562 192.379C154.169 192.65 153.83 193.129 153.548 193.818V199.352H151.426ZM160.856 199.573C160.241 199.573 159.626 199.456 159.011 199.222C158.396 198.976 157.867 198.675 157.425 198.319L158.421 196.954C158.827 197.261 159.232 197.507 159.638 197.691C160.044 197.876 160.474 197.968 160.929 197.968C161.421 197.968 161.784 197.864 162.018 197.655C162.251 197.445 162.368 197.187 162.368 196.88C162.368 196.622 162.27 196.412 162.073 196.253C161.889 196.08 161.649 195.933 161.354 195.81C161.059 195.675 160.751 195.546 160.431 195.423C160.038 195.275 159.644 195.097 159.251 194.888C158.87 194.666 158.556 194.39 158.31 194.058C158.064 193.713 157.941 193.289 157.941 192.785C157.941 191.985 158.236 191.334 158.827 190.83C159.417 190.325 160.216 190.073 161.225 190.073C161.864 190.073 162.436 190.184 162.94 190.405C163.444 190.627 163.881 190.879 164.25 191.162L163.272 192.453C162.952 192.219 162.626 192.035 162.294 191.899C161.975 191.752 161.637 191.678 161.28 191.678C160.825 191.678 160.487 191.776 160.265 191.973C160.044 192.158 159.933 192.391 159.933 192.674C159.933 193.031 160.118 193.301 160.487 193.486C160.856 193.67 161.286 193.849 161.778 194.021C162.196 194.168 162.602 194.353 162.995 194.574C163.389 194.783 163.715 195.06 163.973 195.404C164.244 195.748 164.379 196.203 164.379 196.769C164.379 197.544 164.078 198.208 163.475 198.761C162.872 199.302 161.999 199.573 160.856 199.573Z" fill="#3B3C4E"/>
</g>
<defs>
<filter id="filter0_d_1_1791" x="0" y="0" width="222.424" height="269" filterUnits="userSpaceOnUse" color-interpolation-filters="sRGB">
<feFlood flood-opacity="0" result="BackgroundImageFix"/>
<feColorMatrix in="SourceAlpha" type="matrix" values="0 0 0 0 0 0 0 0 0 0 0 0 0 0 0 0 0 0 127 0" result="hardAlpha"/>
<feOffset dy="7"/>
<feGaussianBlur stdDeviation="10"/>
<feComposite in2="hardAlpha" operator="out"/>
<feColorMatrix type="matrix" values="0 0 0 0 0.313593 0 0 0 0 0.300382 0 0 0 0 0.341667 0 0 0 0.12 0"/>
<feBlend mode="normal" in2="BackgroundImageFix" result="effect1_dropShadow_1_1791"/>
<feBlend mode="normal" in="SourceGraphic" in2="effect1_dropShadow_1_1791" result="shape"/>
</filter>
</defs>
</svg>
