<svg width="622" height="105" viewBox="0 0 622 105" fill="none" xmlns="http://www.w3.org/2000/svg">
<path d="M9.183 35H28.195C29.273 35 30.302 34.167 30.449 33.138L31.38 27.944C31.576 26.915 30.89 26.033 29.812 26.033H13.299C12.662 26.033 12.221 25.543 12.368 24.906L14.916 10.696C15.063 10.059 15.651 9.52 16.288 9.52H32.801C33.879 9.52 34.908 8.687 35.104 7.658L35.986 2.562C36.182 1.533 35.496 0.650998 34.418 0.650998H15.455C10.457 0.650998 5.655 4.669 4.724 9.569L1.686 26.082C0.804 31.031 4.136 35 9.183 35ZM72.1702 0.748997H63.9382C63.2522 0.748997 62.5662 1.092 62.1252 1.68L54.0892 11.921C53.8932 12.215 53.4032 12.117 53.2562 11.774L49.0422 1.68C48.7972 1.092 48.2092 0.748997 47.5232 0.748997H39.3402C38.4092 0.748997 37.7232 1.68 38.0172 2.464L46.3472 22.358C46.3962 22.701 46.4452 23.044 46.4942 23.387L44.7302 33.138C44.5342 34.167 45.2202 35 46.2982 35H52.7662C53.8442 35 54.8732 34.167 55.0692 33.138L56.8332 23.387C56.9802 23.044 57.0782 22.75 57.2252 22.456L72.8562 2.464C73.4442 1.68 73.0522 0.748997 72.1702 0.748997ZM72.1602 35.049H97.9342C102.687 35.049 107.195 31.276 108.028 26.621L108.567 23.583C108.714 22.897 108.763 22.211 108.812 21.574C108.812 20.839 108.714 20.104 108.371 19.32C108.322 19.124 107.195 17.115 107.097 17.262C108.42 16.037 109.4 14.42 109.743 12.656C109.743 12.558 109.743 12.46 109.792 12.411L110.282 9.667C111.164 4.718 107.832 0.699998 102.785 0.699998H78.3342C77.2562 0.699998 76.2762 1.582 76.0802 2.611L70.5432 33.138C70.3472 34.167 71.0822 35 72.1602 35.049ZM82.8912 22.162C82.8912 21.966 83.1362 21.77 83.3322 21.77H96.8562C97.7872 21.77 98.4242 22.554 98.2772 23.485L98.0812 24.416C97.9342 25.347 97.0032 26.131 96.0722 26.131H82.5482C82.3032 26.131 82.2052 25.935 82.2052 25.739L82.8912 22.162ZM85.1452 9.667C85.1452 9.471 85.3902 9.275 85.5862 9.275H98.2282C99.2082 9.275 99.8452 10.059 99.6492 10.99L99.5022 11.921C99.3062 12.852 98.4242 13.636 97.4442 13.636H84.8022C84.5572 13.636 84.4592 13.44 84.4592 13.244L85.1452 9.667ZM113.368 35H142.229C142.866 35 143.503 34.51 143.601 33.873L144.826 27.16C144.924 26.523 144.532 26.033 143.846 26.033H123.805C123.56 26.033 123.413 25.837 123.462 25.641L124.05 22.358C124.099 22.113 124.295 21.966 124.54 21.966H140.661C141.298 21.966 141.935 21.427 142.033 20.839L143.111 14.861C143.209 14.224 142.817 13.734 142.18 13.734H126.01C125.814 13.734 125.667 13.538 125.667 13.342L126.353 9.814C126.353 9.618 126.549 9.422 126.794 9.422H146.884C147.521 9.422 148.109 8.932 148.256 8.295L149.383 1.827C149.53 1.19 149.089 0.650998 148.452 0.650998H119.542C118.513 0.650998 117.484 1.533 117.288 2.562L111.751 33.138C111.555 34.167 112.29 35 113.368 35ZM150.222 35.049H156.69C157.719 35.049 158.748 34.167 158.944 33.138L160.071 26.817C160.12 26.572 160.316 26.425 160.561 26.425H168.352C168.744 26.425 169.087 26.572 169.234 26.915L172.909 34.118C173.35 34.951 174.134 35.049 176.486 35C177.858 35.049 179.965 34.951 183.346 34.951C184.424 34.951 185.061 33.775 184.522 32.844L180.504 25.837C180.406 25.641 180.504 25.396 180.749 25.298C183.836 23.779 186.335 20.839 186.923 17.458L188.344 9.667C189.226 4.718 185.894 0.699998 180.847 0.699998H156.396C155.318 0.699998 154.338 1.582 154.142 2.611L148.605 33.138C148.409 34.167 149.144 35 150.222 35V35.049ZM163.207 9.667C163.207 9.471 163.452 9.275 163.648 9.275H176.29C177.27 9.275 177.907 10.059 177.711 10.99L176.78 16.135C176.633 17.066 175.702 17.801 174.771 17.801H162.129C161.884 17.801 161.737 17.654 161.786 17.409L163.207 9.667ZM219.384 0.748997C218.306 0.748997 217.277 1.631 217.081 2.66L211.593 33.138C211.397 34.167 212.132 35 213.21 35H219.041C220.119 35 221.148 34.167 221.295 33.138L223.5 20.986L227.518 33.922C227.714 34.608 228.302 35 229.086 35H236.779C237.563 35 238.347 34.608 238.739 33.922L247.461 20.937L245.256 33.138C245.06 34.167 245.746 35 246.824 35H252.655C253.733 35 254.762 34.167 254.958 33.138L260.446 2.66C260.642 1.631 259.956 0.748997 258.878 0.748997H251.381C250.597 0.748997 249.862 1.19 249.421 1.876L235.162 23.24C234.966 23.583 234.427 23.485 234.28 23.093L228.449 1.876C228.253 1.19 227.616 0.748997 226.881 0.748997H219.384ZM295.046 0.650998H275.25C270.203 0.650998 265.45 4.62 264.519 9.569L261.53 26.082C260.648 31.031 264.029 35 269.027 35H288.823C293.821 35 298.623 31.031 299.554 26.082L302.494 9.569C303.425 4.62 300.044 0.650998 295.046 0.650998ZM289.362 24.906C289.264 25.543 288.627 26.033 287.99 26.033H273.094C272.457 26.033 272.016 25.543 272.114 24.906L274.711 10.647C274.809 10.01 275.446 9.471 276.083 9.471H290.979C291.616 9.471 292.057 10.01 291.959 10.647L289.362 24.906ZM317.889 15.792L328.424 34.363C328.718 34.755 329.208 35 329.796 35H336.901C337.93 35 338.959 34.167 339.155 33.138L344.692 2.66C344.839 1.582 344.153 0.748997 343.075 0.748997H336.656C335.578 0.748997 334.549 1.582 334.353 2.66L331.511 18.536C331.413 18.928 330.874 19.026 330.629 18.683L320.927 1.435C320.633 0.994 320.143 0.748997 319.555 0.748997H311.372C310.294 0.748997 309.265 1.582 309.069 2.66L303.581 33.138C303.385 34.167 304.12 35 305.198 35H311.617C312.695 35 313.675 34.167 313.871 33.138L317.007 15.939C317.056 15.547 317.644 15.449 317.889 15.792ZM346.55 35H369.531C374.529 35 379.331 31.031 380.213 26.082L383.202 9.569C384.084 4.62 380.752 0.601999 375.705 0.601999H352.724C351.695 0.601999 350.666 1.484 350.47 2.513L344.933 33.138C344.737 34.167 345.472 35 346.55 35ZM359.388 10.598C359.486 10.01 360.123 9.471 360.76 9.471H371.687C372.324 9.471 372.765 10.01 372.618 10.598L370.07 24.906C369.923 25.543 369.335 26.033 368.698 26.033H357.771C357.134 26.033 356.693 25.543 356.791 24.906L359.388 10.598ZM381.248 34.216C381.444 34.706 381.934 35 382.522 35H390.754C391.391 35 391.979 34.706 392.371 34.167L393.645 32.354L394.331 31.325H410.893L411.775 34.167C411.922 34.706 412.363 35 412.902 35H420.742C421.232 35 421.771 34.706 422.114 34.216C422.457 33.726 422.555 33.138 422.359 32.648L412.559 2.562C411.922 0.748997 410.256 0.797999 410.256 0.797999C409.325 0.797999 408.541 0.797999 407.806 0.797999C407.61 0.797999 407.414 0.797999 407.218 0.797999C407.169 0.797999 407.071 0.797999 406.973 0.797999C406.434 0.797999 405.895 0.748997 405.405 0.797999C403.641 0.846999 402.367 1.19 401.338 2.562L381.493 32.648C381.101 33.138 381.003 33.726 381.248 34.216ZM405.552 14.224L408.345 23.142H399.672L405.552 14.224ZM458.078 0.748997H449.846C449.16 0.748997 448.474 1.092 448.033 1.68L439.997 11.921C439.801 12.215 439.311 12.117 439.164 11.774L434.95 1.68C434.705 1.092 434.117 0.748997 433.431 0.748997H425.248C424.317 0.748997 423.631 1.68 423.925 2.464L432.255 22.358C432.304 22.701 432.353 23.044 432.402 23.387L430.638 33.138C430.442 34.167 431.128 35 432.206 35H438.674C439.752 35 440.781 34.167 440.977 33.138L442.741 23.387C442.888 23.044 442.986 22.75 443.133 22.456L458.764 2.464C459.352 1.68 458.96 0.748997 458.078 0.748997ZM210.435 72.542H188.434C187.356 72.542 186.327 73.375 186.082 74.502L181.133 101.942C180.937 103.069 181.721 104 182.848 104H206.074C210.484 104 214.698 100.521 215.433 96.209C215.972 93.269 216.119 92.583 216.168 91.652C216.168 90.476 215.874 89.202 214.747 87.732C215.923 86.556 216.756 85.135 217.001 83.616C217.001 83.616 217.001 83.567 217.001 83.518L217.491 80.97C218.324 76.315 215.188 72.542 210.435 72.542ZM205.633 84.155L194.265 84.204C194.265 84.204 194.265 84.204 194.265 84.155L194.853 80.97C194.853 80.921 194.902 80.872 194.951 80.872H206.368C208.132 80.872 207.348 84.155 205.633 84.155ZM204.408 95.425H192.256L192.844 92.191C192.844 92.142 192.893 92.093 192.942 92.093H205.094C206.858 92.093 206.074 95.425 204.408 95.425ZM232.459 72.542H226.628C225.501 72.542 224.472 73.424 224.276 74.502L219.327 101.942C219.229 102.481 219.376 103.02 219.67 103.412C220.013 103.804 220.503 104 221.042 104H226.873C228 104 229.029 103.167 229.225 102.089L234.174 74.649C234.419 73.522 233.635 72.542 232.459 72.542ZM270.655 72.64H248.213C243.558 72.64 239.05 76.364 238.217 80.921L235.571 95.621C234.738 100.227 237.874 104 242.627 104C266.637 104.098 263.795 104.049 265.069 104.049C266.147 104.049 267.225 103.216 267.421 102.089L270.263 86.36C270.361 85.772 270.214 85.282 269.92 84.89C269.577 84.498 269.087 84.253 268.548 84.253H254.044C253.309 84.253 252.623 84.841 252.525 85.527L251.545 90.868C251.496 91.26 251.594 91.603 251.79 91.848C252.035 92.093 252.329 92.24 252.721 92.24H259.336L258.797 95.229C258.797 95.278 258.748 95.327 258.699 95.327H246.302C246.155 95.327 245.959 95.278 245.861 95.131C245.763 95.033 245.714 94.837 245.763 94.641L248.066 81.852C248.164 81.46 248.556 81.068 248.997 81.068H269.234C270.312 81.068 271.341 80.186 271.537 79.108L272.37 74.698C272.566 73.571 271.782 72.64 270.655 72.64ZM308.658 72.64H286.216C281.561 72.64 277.053 76.364 276.22 80.921L273.574 95.621C272.741 100.227 275.877 104 280.63 104C304.64 104.098 301.798 104.049 303.072 104.049C304.15 104.049 305.228 103.216 305.424 102.089L308.266 86.36C308.364 85.772 308.217 85.282 307.923 84.89C307.58 84.498 307.09 84.253 306.551 84.253H292.047C291.312 84.253 290.626 84.841 290.528 85.527L289.548 90.868C289.499 91.26 289.597 91.603 289.793 91.848C290.038 92.093 290.332 92.24 290.724 92.24H297.339L296.8 95.229C296.8 95.278 296.751 95.327 296.702 95.327H284.305C284.158 95.327 283.962 95.278 283.864 95.131C283.766 95.033 283.717 94.837 283.766 94.641L286.069 81.852C286.167 81.46 286.559 81.068 287 81.068H307.237C308.315 81.068 309.344 80.186 309.54 79.108L310.373 74.698C310.569 73.571 309.785 72.64 308.658 72.64ZM344.259 72.493H318.289C317.162 72.493 316.133 73.375 315.937 74.453L310.939 101.942C310.841 102.53 310.988 103.02 311.331 103.412C311.625 103.804 312.115 104.049 312.703 104.049H338.673C339.408 104.049 340.094 103.461 340.192 102.775L341.319 96.699C341.368 96.356 341.27 96.013 341.074 95.719C340.829 95.474 340.535 95.327 340.143 95.327H322.062L322.601 92.387C322.601 92.338 322.699 92.289 322.748 92.289H337.252C337.987 92.289 338.673 91.701 338.771 91.015L339.751 85.625C339.849 85.282 339.751 84.939 339.506 84.694C339.31 84.4 338.967 84.253 338.624 84.253H324.071L324.659 81.068C324.659 81.068 324.708 81.019 324.757 81.019H342.838C343.573 81.019 344.259 80.431 344.357 79.696L345.435 73.914C345.533 73.13 345.043 72.493 344.259 72.493ZM374.463 72.542H352.462C351.384 72.542 350.306 73.424 350.11 74.502L345.161 101.942C344.965 103.069 345.749 104 346.876 104H352.707C353.834 104 354.863 103.167 355.059 102.089L356.088 96.356C356.088 96.307 356.186 96.258 356.186 96.258H363.242C363.487 96.258 363.683 96.356 363.781 96.552L367.064 103.02C367.456 103.853 368.191 104 369.857 104C372.503 104 373.532 103.902 376.668 103.902C377.207 103.902 377.746 103.657 377.991 103.167C378.285 102.677 378.285 102.089 378.04 101.599L374.414 95.327C374.414 95.327 374.463 95.278 374.512 95.229C377.501 93.759 379.706 91.015 380.245 87.977L381.519 80.97C382.352 76.315 379.216 72.542 374.463 72.542ZM371.376 82.048L370.543 86.654C370.396 87.34 369.71 87.928 369.024 87.928H357.607L358.881 80.97C358.881 80.921 358.93 80.872 358.979 80.872H370.396C370.69 80.872 370.984 80.97 371.18 81.215C371.376 81.411 371.425 81.705 371.376 82.048ZM438.65 72.591H418.07C413.415 72.591 408.956 76.315 408.123 80.872L407.584 84.008C407.143 86.262 407.682 88.369 409.005 89.937C410.328 91.554 412.337 92.436 414.591 92.436H428.507C428.703 92.436 428.899 92.485 428.997 92.632C429.095 92.73 429.144 92.926 429.095 93.122L428.85 94.543C428.752 94.984 428.311 95.327 427.87 95.327H408.515C407.388 95.327 406.359 96.209 406.163 97.287L405.33 101.942C405.134 103.069 405.918 104 407.045 104L428.164 104.049C432.819 104.049 437.278 100.325 438.111 95.719L438.65 92.828C439.042 90.623 438.552 88.516 437.229 86.899C435.857 85.331 433.897 84.449 431.594 84.449H417.678C417.482 84.449 417.335 84.351 417.237 84.253C417.139 84.106 417.09 83.959 417.139 83.763L417.482 81.803C417.531 81.411 417.972 81.019 418.413 81.019H437.229C438.356 81.019 439.385 80.186 439.581 79.059L440.414 74.649C440.61 73.522 439.826 72.591 438.65 72.591ZM468.066 74.404C467.576 72.983 466.351 72.64 465.714 72.64C465.273 72.64 462.186 72.591 461.598 72.591C460.079 72.64 458.56 72.787 457.433 74.355L439.548 101.403C438.715 102.579 439.352 104.049 440.724 104.049H448.172C448.809 104.049 449.446 103.706 449.838 103.118L451.014 101.452L451.504 100.668H466.057L466.743 103.02C466.939 103.608 467.478 104.049 468.066 104.049H475.122C476.298 104.049 477.278 102.677 476.886 101.501L468.066 74.404ZM463.607 92.73H456.747L461.353 85.674L463.607 92.73ZM506.248 95.327H492.087C491.891 95.327 491.744 95.278 491.646 95.131C491.548 95.033 491.499 94.837 491.499 94.641L495.125 74.649C495.37 73.522 494.586 72.591 493.41 72.591H487.579C486.452 72.591 485.423 73.424 485.227 74.551L480.278 101.942C480.18 102.481 480.327 103.02 480.621 103.412C480.964 103.804 481.454 104.049 481.993 104.049H504.827C505.905 104.049 506.934 103.167 507.13 102.089L508.012 97.385C508.208 96.258 507.424 95.327 506.248 95.327ZM544.087 72.493H518.117C516.99 72.493 515.961 73.375 515.765 74.453L510.767 101.942C510.669 102.53 510.816 103.02 511.159 103.412C511.453 103.804 511.943 104.049 512.531 104.049H538.501C539.236 104.049 539.922 103.461 540.02 102.775L541.147 96.699C541.196 96.356 541.098 96.013 540.902 95.719C540.657 95.474 540.363 95.327 539.971 95.327H521.89L522.429 92.387C522.429 92.338 522.527 92.289 522.576 92.289H537.08C537.815 92.289 538.501 91.701 538.599 91.015L539.579 85.625C539.677 85.282 539.579 84.939 539.334 84.694C539.138 84.4 538.795 84.253 538.452 84.253H523.899L524.487 81.068C524.487 81.068 524.536 81.019 524.585 81.019H542.666C543.401 81.019 544.087 80.431 544.185 79.696L545.263 73.914C545.361 73.13 544.871 72.493 544.087 72.493Z" fill="#FFC759"/>
<path d="M481.848 35V10.696H487.728L488.218 13.832H488.414C489.427 12.8193 490.505 11.9537 491.648 11.235C492.791 10.4837 494.163 10.108 495.764 10.108C497.495 10.108 498.884 10.4673 499.929 11.186C501.007 11.872 501.856 12.8683 502.477 14.175C503.555 13.0643 504.698 12.117 505.907 11.333C507.116 10.5163 508.52 10.108 510.121 10.108C512.734 10.108 514.645 10.99 515.854 12.754C517.095 14.4853 517.716 16.87 517.716 19.908V35H510.513V20.839C510.513 19.075 510.268 17.8663 509.778 17.213C509.321 16.5597 508.569 16.233 507.524 16.233C506.315 16.233 504.927 17.017 503.359 18.585V35H496.156V20.839C496.156 19.075 495.911 17.8663 495.421 17.213C494.964 16.5597 494.212 16.233 493.167 16.233C491.958 16.233 490.586 17.017 489.051 18.585V35H481.848ZM535.083 35.588C532.763 35.588 530.673 35.0817 528.811 34.069C526.949 33.0563 525.479 31.6027 524.401 29.708C523.323 27.8133 522.784 25.5267 522.784 22.848C522.784 20.202 523.323 17.9317 524.401 16.037C525.511 14.1423 526.949 12.6887 528.713 11.676C530.477 10.6307 532.322 10.108 534.25 10.108C536.569 10.108 538.48 10.6307 539.983 11.676C541.518 12.6887 542.661 14.077 543.413 15.841C544.197 17.5723 544.589 19.5487 544.589 21.77C544.589 22.3907 544.556 23.0113 544.491 23.632C544.425 24.22 544.36 24.661 544.295 24.955H529.742C530.068 26.719 530.803 28.0257 531.947 28.875C533.09 29.6917 534.462 30.1 536.063 30.1C537.794 30.1 539.542 29.561 541.306 28.483L543.707 32.844C542.465 33.6933 541.077 34.363 539.542 34.853C538.006 35.343 536.52 35.588 535.083 35.588ZM529.693 20.202H538.464C538.464 18.8627 538.137 17.7683 537.484 16.919C536.863 16.037 535.834 15.596 534.397 15.596C533.286 15.596 532.29 15.988 531.408 16.772C530.526 17.5233 529.954 18.6667 529.693 20.202ZM555.508 35.588C553.286 35.588 551.522 34.8857 550.216 33.481C548.909 32.0437 548.256 30.296 548.256 28.238C548.256 25.69 549.334 23.6973 551.49 22.26C553.646 20.8227 557.125 19.859 561.927 19.369C561.861 18.291 561.535 17.4417 560.947 16.821C560.391 16.1677 559.444 15.841 558.105 15.841C557.092 15.841 556.063 16.037 555.018 16.429C553.972 16.821 552.862 17.36 551.686 18.046L549.089 13.293C550.624 12.3457 552.257 11.578 553.989 10.99C555.753 10.402 557.582 10.108 559.477 10.108C562.58 10.108 564.965 11.0063 566.631 12.803C568.297 14.5997 569.13 17.36 569.13 21.084V35H563.25L562.76 32.501H562.564C561.551 33.4157 560.457 34.167 559.281 34.755C558.137 35.3103 556.88 35.588 555.508 35.588ZM557.958 30.002C558.774 30.002 559.477 29.8223 560.065 29.463C560.685 29.071 561.306 28.5647 561.927 27.944V23.681C559.379 24.0077 557.615 24.5303 556.635 25.249C555.655 25.935 555.165 26.7517 555.165 27.699C555.165 28.483 555.41 29.071 555.9 29.463C556.422 29.8223 557.108 30.002 557.958 30.002ZM575.566 35V10.696H581.446L581.936 13.783H582.132C583.177 12.803 584.32 11.9537 585.562 11.235C586.836 10.4837 588.289 10.108 589.923 10.108C592.569 10.108 594.48 10.99 595.656 12.754C596.864 14.4853 597.469 16.87 597.469 19.908V35H590.266V20.839C590.266 19.075 590.021 17.8663 589.531 17.213C589.073 16.5597 588.322 16.233 587.277 16.233C586.362 16.233 585.578 16.4453 584.925 16.87C584.271 17.262 583.553 17.8337 582.769 18.585V35H575.566ZM611.104 35.588C609.503 35.588 607.853 35.2777 606.155 34.657C604.489 34.0363 603.035 33.2197 601.794 32.207L605.028 27.699C606.138 28.5157 607.2 29.1527 608.213 29.61C609.258 30.0347 610.287 30.247 611.3 30.247C612.378 30.247 613.162 30.0673 613.652 29.708C614.142 29.316 614.387 28.8097 614.387 28.189C614.387 27.6337 614.142 27.1763 613.652 26.817C613.194 26.4577 612.59 26.131 611.839 25.837C611.087 25.5103 610.287 25.1837 609.438 24.857C608.458 24.465 607.478 23.975 606.498 23.387C605.55 22.799 604.75 22.0477 604.097 21.133C603.443 20.1857 603.117 19.0423 603.117 17.703C603.117 15.449 603.966 13.6197 605.665 12.215C607.396 10.8103 609.65 10.108 612.427 10.108C614.289 10.108 615.922 10.4347 617.327 11.088C618.764 11.7087 619.989 12.411 621.002 13.195L617.768 17.507C616.918 16.8537 616.069 16.3473 615.22 15.988C614.37 15.6287 613.521 15.449 612.672 15.449C610.81 15.449 609.879 16.086 609.879 17.36C609.879 18.144 610.336 18.7483 611.251 19.173C612.198 19.565 613.292 19.9897 614.534 20.447C615.579 20.8063 616.592 21.28 617.572 21.868C618.584 22.4233 619.417 23.1747 620.071 24.122C620.757 25.0367 621.1 26.2453 621.1 27.748C621.1 29.9367 620.25 31.7987 618.552 33.334C616.853 34.8367 614.37 35.588 611.104 35.588ZM10.31 104.588C8.08867 104.588 6.32467 103.886 5.018 102.481C3.71133 101.044 3.058 99.296 3.058 97.238C3.058 94.69 4.136 92.6973 6.292 91.26C8.448 89.8227 11.927 88.859 16.729 88.369C16.6637 87.291 16.337 86.4417 15.749 85.821C15.1937 85.1677 14.2463 84.841 12.907 84.841C11.8943 84.841 10.8653 85.037 9.82 85.429C8.77467 85.821 7.664 86.36 6.488 87.046L3.891 82.293C5.42633 81.3457 7.05967 80.578 8.791 79.99C10.555 79.402 12.3843 79.108 14.279 79.108C17.3823 79.108 19.767 80.0063 21.433 81.803C23.099 83.5997 23.932 86.36 23.932 90.084V104H18.052L17.562 101.501H17.366C16.3533 102.416 15.259 103.167 14.083 103.755C12.9397 104.31 11.682 104.588 10.31 104.588ZM12.76 99.002C13.5767 99.002 14.279 98.8223 14.867 98.463C15.4877 98.071 16.1083 97.5647 16.729 96.944V92.681C14.181 93.0077 12.417 93.5303 11.437 94.249C10.457 94.935 9.967 95.7517 9.967 96.699C9.967 97.483 10.212 98.071 10.702 98.463C11.2247 98.8223 11.9107 99.002 12.76 99.002ZM30.3678 104V79.696H36.2478L36.7378 82.783H36.9338C37.9792 81.803 39.1225 80.9537 40.3638 80.235C41.6378 79.4837 43.0915 79.108 44.7248 79.108C47.3708 79.108 49.2818 79.99 50.4578 81.754C51.6665 83.4853 52.2708 85.87 52.2708 88.908V104H45.0678V89.839C45.0678 88.075 44.8228 86.8663 44.3328 86.213C43.8755 85.5597 43.1242 85.233 42.0788 85.233C41.1642 85.233 40.3802 85.4453 39.7268 85.87C39.0735 86.262 38.3548 86.8337 37.5708 87.585V104H30.3678ZM79.7824 104.588C77.4631 104.588 75.3724 104.082 73.5104 103.069C71.6484 102.056 70.1784 100.603 69.1004 98.708C68.0224 96.8133 67.4834 94.5267 67.4834 91.848C67.4834 89.202 68.0224 86.9317 69.1004 85.037C70.2111 83.1423 71.6484 81.6887 73.4124 80.676C75.1764 79.6307 77.0221 79.108 78.9494 79.108C81.2688 79.108 83.1798 79.6307 84.6824 80.676C86.2178 81.6887 87.3611 83.077 88.1124 84.841C88.8964 86.5723 89.2884 88.5487 89.2884 90.77C89.2884 91.3907 89.2558 92.0113 89.1904 92.632C89.1251 93.22 89.0598 93.661 88.9944 93.955H74.4414C74.7681 95.719 75.5031 97.0257 76.6464 97.875C77.7898 98.6917 79.1618 99.1 80.7624 99.1C82.4938 99.1 84.2414 98.561 86.0054 97.483L88.4064 101.844C87.1651 102.693 85.7768 103.363 84.2414 103.853C82.7061 104.343 81.2198 104.588 79.7824 104.588ZM74.3924 89.202H83.1634C83.1634 87.8627 82.8368 86.7683 82.1834 85.919C81.5628 85.037 80.5338 84.596 79.0964 84.596C77.9858 84.596 76.9894 84.988 76.1074 85.772C75.2254 86.5233 74.6538 87.6667 74.3924 89.202ZM99.9077 104L91.7247 79.696H98.9767L102.113 91.162C102.439 92.3707 102.75 93.612 103.044 94.886C103.37 96.1273 103.697 97.385 104.024 98.659H104.22C104.514 97.385 104.808 96.1273 105.102 94.886C105.428 93.612 105.755 92.3707 106.082 91.162L109.267 79.696H116.176L108.238 104H99.9077ZM130.808 104.588C128.489 104.588 126.398 104.082 124.536 103.069C122.674 102.056 121.204 100.603 120.126 98.708C119.048 96.8133 118.509 94.5267 118.509 91.848C118.509 89.202 119.048 86.9317 120.126 85.037C121.237 83.1423 122.674 81.6887 124.438 80.676C126.202 79.6307 128.048 79.108 129.975 79.108C132.295 79.108 134.206 79.6307 135.708 80.676C137.244 81.6887 138.387 83.077 139.138 84.841C139.922 86.5723 140.314 88.5487 140.314 90.77C140.314 91.3907 140.282 92.0113 140.216 92.632C140.151 93.22 140.086 93.661 140.02 93.955H125.467C125.794 95.719 126.529 97.0257 127.672 97.875C128.816 98.6917 130.188 99.1 131.788 99.1C133.52 99.1 135.267 98.561 137.031 97.483L139.432 101.844C138.191 102.693 136.803 103.363 135.267 103.853C133.732 104.343 132.246 104.588 130.808 104.588ZM125.418 89.202H134.189C134.189 87.8627 133.863 86.7683 133.209 85.919C132.589 85.037 131.56 84.596 130.122 84.596C129.012 84.596 128.015 84.988 127.133 85.772C126.251 86.5233 125.68 87.6667 125.418 89.202ZM145.635 104V79.696H151.515L152.005 82.783H152.201C153.246 81.803 154.389 80.9537 155.631 80.235C156.905 79.4837 158.358 79.108 159.992 79.108C162.638 79.108 164.549 79.99 165.725 81.754C166.933 83.4853 167.538 85.87 167.538 88.908V104H160.335V89.839C160.335 88.075 160.09 86.8663 159.6 86.213C159.142 85.5597 158.391 85.233 157.346 85.233C156.431 85.233 155.647 85.4453 154.994 85.87C154.34 86.262 153.622 86.8337 152.838 87.585V104H145.635Z" fill="white"/>
</svg>
