<svg width="41" height="39" viewBox="0 0 41 39" fill="none" xmlns="http://www.w3.org/2000/svg">
<path d="M30.1489 4.03348L26.5572 4.03367H10.0971M0.995605 15.9135V34.0757C0.995605 36.3048 2.90299 38.1118 5.25586 38.1118H35.0777C37.4306 38.1118 39.3379 36.3048 39.3379 34.0757V15.9135" stroke="#FFBE5B" stroke-width="1.58095" stroke-linecap="round" stroke-linejoin="round"/>
<path d="M20.281 27.2122L25.1436 32.0747M15.4185 32.0747L20.281 27.2122L15.4185 32.0747ZM25.1436 22.3496L20.281 27.2122L25.1436 22.3496ZM20.281 27.2122L15.4185 22.3496L20.281 27.2122Z" stroke="#FFBE5B" stroke-width="1.05396" stroke-linecap="round" stroke-linejoin="round"/>
<path d="M0.995605 16.8027V8.2822C0.995605 5.92933 2.90299 4.02194 5.25587 4.02194H9.51613" stroke="#FFBE5B" stroke-width="1.58095" stroke-linecap="round" stroke-linejoin="round"/>
<path d="M10.9822 1.22455V8.52785" stroke="#FFBE5B" stroke-width="1.58095" stroke-linecap="round" stroke-linejoin="round"/>
<path d="M29.4227 1.22455V8.52785" stroke="#FFBE5B" stroke-width="1.58095" stroke-linecap="round" stroke-linejoin="round"/>
<path d="M39.3461 16.8027V8.2822C39.3461 5.92933 37.4388 4.02194 35.0858 4.02194H26.5059" stroke="#FFBE5B" stroke-width="1.58095" stroke-linecap="round" stroke-linejoin="round"/>
<path d="M1.17688 15.055H39.1541" stroke="#FFBE5B" stroke-width="1.58095"/>
</svg>
