<svg width="118" height="25" viewBox="0 0 118 25" fill="none" xmlns="http://www.w3.org/2000/svg">
<path d="M40.9604 18.671C40.8671 18.7625 40.7123 18.8761 40.4954 19.0127C40.2784 19.1492 39.9954 19.2858 39.6534 19.423C39.3114 19.5601 38.8782 19.677 38.3749 19.7761C37.8717 19.8752 37.2933 19.9241 36.6431 19.9241C35.3879 19.9241 34.3031 19.7272 33.3893 19.3315C32.4754 18.9358 31.7196 18.3789 31.1225 17.679C30.5253 16.9791 30.0882 16.137 29.809 15.1716C29.5299 14.2063 29.3906 13.1469 29.3906 11.9923C29.3906 10.8377 29.5415 9.76945 29.844 8.79013C30.1464 7.81081 30.5992 6.96295 31.2041 6.24846C31.809 5.53398 32.5641 4.97572 33.4709 4.57307C34.3776 4.17042 35.4423 3.96973 36.6664 3.96973C37.2707 3.96973 37.8173 4.02307 38.305 4.1285C38.7927 4.23393 39.2182 4.36031 39.5835 4.50448C39.9487 4.64865 40.2505 4.80044 40.4902 4.96048L41.0362 5.35932C41.1754 5.48126 41.2952 5.62606 41.3963 5.79246C41.4973 5.95886 41.5472 6.14177 41.5472 6.33865C41.5472 6.64349 41.4306 6.94643 41.1987 7.25065C40.9682 7.55279 40.7116 7.83496 40.4319 8.09406L39.8037 7.53518C39.5705 7.34465 39.3114 7.17825 39.0252 7.02709C38.7389 6.87594 38.4131 6.76162 38.0492 6.66255C37.6852 6.56347 37.272 6.51457 36.829 6.51457C36.0388 6.51457 35.3763 6.6708 34.842 6.982C34.3076 7.2932 33.877 7.69966 33.5518 8.20139C33.2267 8.70312 32.9948 9.27661 32.8543 9.92251C32.7138 10.5684 32.6451 11.2257 32.6451 11.8939C32.6451 12.6083 32.7151 13.2911 32.8543 13.9452C32.9935 14.5994 33.2338 15.1761 33.5751 15.6771C33.9165 16.1782 34.3614 16.5815 34.9113 16.8851C35.4611 17.1887 36.147 17.3411 36.9682 17.3411C37.4022 17.3411 37.8011 17.2878 38.1651 17.1823C38.5 17.0877 38.8233 16.9576 39.1295 16.7943C39.3874 16.6565 39.6323 16.4964 39.8613 16.3161L40.3846 15.8829L40.7097 16.264C40.8346 16.4174 40.9509 16.5772 41.0582 16.7428C41.1628 16.9034 41.2561 17.0708 41.3373 17.2439C41.415 17.4116 41.4539 17.5634 41.4539 17.6999C41.4539 17.8968 41.415 18.0645 41.3373 18.208C41.2596 18.3516 41.1365 18.497 40.9656 18.664L40.9604 18.671ZM52.9382 16.9232C52.9382 18.1312 53.1169 19.0101 53.4757 19.5601C53.1953 19.6668 52.9343 19.7443 52.6921 19.7888C52.4416 19.8354 52.1872 19.8584 51.9324 19.8574C51.3715 19.8574 50.946 19.7507 50.6578 19.5366C50.3696 19.3226 50.1863 19.0171 50.1085 18.6196C49.7653 18.9714 49.3132 19.2693 48.7524 19.5151C48.1915 19.7608 47.505 19.8815 46.6947 19.8815C46.2678 19.8807 45.843 19.8233 45.4318 19.7107C45.0108 19.5963 44.6287 19.4096 44.2855 19.1505C43.9422 18.8914 43.6618 18.5446 43.4435 18.1102C43.2252 17.6758 43.1164 17.1468 43.1164 16.5225C43.1164 15.7451 43.3075 15.1125 43.6896 14.6254C44.0719 14.1372 44.564 13.7421 45.1274 13.4708C45.7103 13.1888 46.3275 12.9945 46.9979 12.8884L48.845 12.6827L49.3955 12.6598H49.8981V12.2425C49.8981 11.6551 49.7381 11.2378 49.4188 10.9901C49.0995 10.7424 48.5807 10.6186 47.8644 10.6186C47.1941 10.6186 46.5976 10.7265 46.0756 10.9393C45.5536 11.1521 45.0426 11.3978 44.5439 11.6728C44.3256 11.4125 44.1501 11.1267 44.018 10.8129C43.8859 10.4992 43.8191 10.2667 43.8191 10.1143C43.8191 9.90028 43.9396 9.69388 44.1818 9.49509C44.4241 9.2963 44.755 9.11657 45.1753 8.95653C45.5957 8.79648 46.0795 8.66628 46.6261 8.56657C47.1727 8.46686 47.7485 8.41733 48.3566 8.41733C49.1986 8.41733 49.911 8.50179 50.4958 8.66946C51.0807 8.83713 51.5561 9.09752 51.922 9.44873C52.2879 9.79993 52.5502 10.2401 52.7057 10.7672C52.8611 11.2943 52.9388 11.9104 52.9388 12.6128V16.9232H52.9382ZM49.946 14.2634H49.6189C49.5088 14.2634 49.4 14.2717 49.2919 14.2863L48.1345 14.4235C47.7459 14.4851 47.413 14.5918 47.1177 14.7448C46.8223 14.8979 46.5801 15.0967 46.3923 15.3418C46.2045 15.587 46.1119 15.9007 46.1119 16.2818C46.1119 16.7098 46.2362 17.0725 46.4862 17.371C46.7362 17.6695 47.1565 17.8181 47.7491 17.8181C48.034 17.8198 48.3176 17.781 48.5911 17.7031C48.8374 17.6349 49.0733 17.5347 49.2925 17.4052C49.4952 17.2827 49.6552 17.1493 49.7718 17.0039C49.8883 16.8584 49.9466 16.7244 49.9466 16.6025V14.2634H49.946ZM58.7606 9.74659C59.0093 9.45635 59.3979 9.1623 59.9264 8.85745C60.4549 8.5526 61.1226 8.41034 61.9309 8.41034C62.506 8.41034 63.0539 8.5056 63.5746 8.69613C64.0954 8.88666 64.5571 9.19786 64.9606 9.62465C65.3641 10.0514 65.6873 10.6186 65.9282 11.3216C66.1692 12.0247 66.2896 12.8891 66.2896 13.9128C66.2896 15.1049 66.1497 16.0874 65.8699 16.8597C65.5902 17.632 65.2223 18.2442 64.7864 18.6939C64.3505 19.1435 63.8499 19.456 63.3065 19.6452C62.7631 19.8345 62.2184 19.9202 61.6744 19.9202C61.2236 19.9202 60.8312 19.8707 60.4976 19.771C60.1641 19.6713 59.8798 19.5614 59.6466 19.4382C59.4134 19.315 59.2347 19.1937 59.111 19.0711L58.8778 18.819V24.4555H55.7043V8.73043L55.9867 8.6847C56.0962 8.66811 56.2064 8.65666 56.317 8.65041L56.7639 8.63898C57.282 8.63898 57.7224 8.72344 58.0832 8.89111C58.4439 9.05877 58.666 9.33568 58.7664 9.7396L58.7606 9.74659ZM62.9704 13.9891C62.9704 13.5305 62.9315 13.1031 62.8538 12.7049C62.7761 12.3067 62.6485 11.9637 62.4704 11.6728C62.2972 11.3874 62.048 11.1536 61.7495 10.9965C61.4471 10.8358 61.0792 10.7551 60.6453 10.7551C59.9944 10.7551 59.541 10.8777 59.2852 11.1222C59.0294 11.3667 58.9018 11.6347 58.9018 11.925V16.786C59.0249 16.9086 59.2464 17.0528 59.5644 17.2217C59.8824 17.3906 60.2509 17.4738 60.6686 17.4738C61.4587 17.4738 62.0403 17.169 62.4127 16.5568C62.7852 15.9445 62.971 15.0897 62.971 13.9884L62.9704 13.9891ZM68.7449 17.9267C68.6361 17.6218 68.5655 17.2998 68.5344 16.9632L68.4878 15.9534V5.32058L68.8388 5.27485L69.1885 5.24056L69.5629 5.22913C69.8139 5.22927 70.0643 5.25224 70.3109 5.29772C70.5543 5.34114 70.7855 5.43488 70.989 5.57272C71.1976 5.71729 71.3663 5.91043 71.48 6.13478C71.605 6.37167 71.6678 6.68096 71.6678 7.06329V8.69106H74.9417V11.0073H71.6678V15.8975C71.6678 16.9645 72.1121 17.4967 73.0007 17.4967C73.2189 17.4967 73.4249 17.4624 73.6205 17.3938C73.8161 17.3252 73.9896 17.249 74.1464 17.1652C74.2902 17.089 74.4272 17.0008 74.5557 16.9016L74.8018 16.6952C75.035 17.0318 75.2143 17.3227 75.3393 17.5685C75.4643 17.8143 75.5272 18.0448 75.5272 18.2607C75.5272 18.4614 75.4456 18.6583 75.2811 18.8514C75.1166 19.0444 74.8873 19.2216 74.5913 19.3836C74.2953 19.5455 73.9372 19.6757 73.5162 19.7773C73.0641 19.8812 72.601 19.9317 72.1367 19.9279C71.1697 19.9279 70.4178 19.7437 69.8802 19.3772C69.355 19.0263 68.9577 18.5201 68.7462 17.9324L68.7449 17.9267ZM82.9953 17.6282C83.3865 17.6282 83.7304 17.5863 84.0283 17.5011C84.3262 17.416 84.5918 17.3144 84.8249 17.1919C85.0581 17.0693 85.2628 16.9359 85.435 16.7905L85.9046 16.3891C86.1244 16.6671 86.3204 16.9623 86.4907 17.2719C86.6941 17.6313 86.7951 17.926 86.7951 18.161C86.7951 18.4976 86.6008 18.8025 86.2109 19.0781C85.8839 19.3226 85.4195 19.5328 84.8198 19.7088C84.22 19.8847 83.5141 19.9723 82.7039 19.9723C81.9707 19.9723 81.2499 19.8809 80.5407 19.6973C79.8315 19.5138 79.2 19.1931 78.6469 18.7345C78.0938 18.276 77.645 17.6548 77.3018 16.8889C76.9585 16.123 76.7875 15.1424 76.7875 13.9656C76.7875 13.0027 76.9397 12.1733 77.2435 11.4779C77.5472 10.7824 77.9526 10.2051 78.4598 9.74659C78.9669 9.28805 79.5388 8.95272 80.178 8.73678C80.8172 8.52085 81.472 8.41605 82.1423 8.41605C83.0154 8.41605 83.755 8.54943 84.3638 8.81744C84.9726 9.08545 85.4661 9.44428 85.8482 9.8952C86.2304 10.3461 86.5069 10.8618 86.6785 11.4429C86.8502 12.0241 86.9357 12.635 86.9357 13.2771V13.5978L86.924 13.9878L86.9007 14.3892C86.8957 14.4931 86.884 14.5966 86.8657 14.6991H79.9682C80.031 15.54 80.2965 16.2392 80.7661 16.7975C81.2356 17.3557 81.9772 17.6339 82.994 17.6339L82.9953 17.6282ZM84.0607 12.9729C84.0607 12.2394 83.9156 11.643 83.6255 11.1845C83.3353 10.7259 82.814 10.4966 82.062 10.4966C81.4189 10.4966 80.9053 10.7145 80.5219 11.1508C80.1385 11.5871 79.939 12.1943 79.939 12.9735H84.0542L84.0607 12.9729ZM92.4712 9.7974C92.5645 9.66085 92.6888 9.50969 92.8449 9.34266C93.0136 9.16581 93.2065 9.01277 93.4181 8.88794C93.6435 8.75139 93.8934 8.6377 94.1661 8.54689C94.4487 8.45424 94.745 8.4081 95.043 8.41034C95.2309 8.41034 95.429 8.42558 95.6389 8.45607C95.8487 8.48655 96.0437 8.54371 96.2231 8.62754C96.4025 8.71138 96.5469 8.81807 96.6557 8.96859C96.7645 9.11911 96.8196 9.29059 96.8196 9.50208C96.8196 9.83551 96.7334 10.2185 96.5624 10.6516C96.3915 11.0847 96.2192 11.4531 96.0482 11.7592C95.7891 11.5452 95.5171 11.3807 95.2529 11.2664C94.9886 11.1521 94.6765 11.0949 94.3177 11.0949C93.8345 11.0949 93.4291 11.2327 93.102 11.5077C92.7749 11.7827 92.6098 12.113 92.6098 12.4966V19.9183H89.4363V8.73742L89.7167 8.69169C89.8253 8.67511 89.9347 8.66366 90.0444 8.65739L90.4887 8.64596C90.9874 8.64596 91.42 8.74123 91.7866 8.92985C92.1532 9.11848 92.3825 9.41062 92.4764 9.80438L92.4712 9.7974ZM101.512 9.7974C101.606 9.66085 101.731 9.50969 101.887 9.34266C102.056 9.16581 102.248 9.01277 102.46 8.88794C102.685 8.75139 102.935 8.6377 103.208 8.54689C103.491 8.45424 103.787 8.4081 104.085 8.41034C104.284 8.4115 104.484 8.42678 104.681 8.45607C104.891 8.48655 105.086 8.54371 105.266 8.62754C105.436 8.7043 105.585 8.8215 105.698 8.96859C105.807 9.11276 105.862 9.29059 105.862 9.50208C105.862 9.83551 105.776 10.2185 105.605 10.6516C105.434 11.0847 105.262 11.4531 105.09 11.7592C104.825 11.5452 104.559 11.3807 104.295 11.2664C104.032 11.1521 103.719 11.0949 103.36 11.0949C102.876 11.0949 102.472 11.2327 102.144 11.5077C101.816 11.7827 101.653 12.113 101.653 12.4966V19.9183H98.4795V8.73742L98.7599 8.69169C98.8686 8.67511 98.9779 8.66366 99.0877 8.65739L99.532 8.64596C100.031 8.64596 100.463 8.74123 100.829 8.92985C101.004 9.01523 101.157 9.13823 101.276 9.28967C101.396 9.44111 101.479 9.61706 101.519 9.80438L101.512 9.7974ZM116.688 16.9169C116.688 18.1248 116.867 19.0038 117.226 19.5538C116.946 19.6605 116.685 19.738 116.442 19.7824C116.2 19.8269 115.947 19.851 115.682 19.851C115.121 19.851 114.696 19.7443 114.408 19.5303C114.12 19.3163 113.935 19.0108 113.857 18.6132C113.514 18.9651 113.063 19.2629 112.501 19.5087C111.94 19.7545 111.254 19.8752 110.444 19.8752C110.023 19.8752 109.602 19.8116 109.181 19.7037C108.765 19.5917 108.376 19.4014 108.035 19.1435C107.692 18.8844 107.411 18.5376 107.193 18.1032C106.975 17.6688 106.866 17.1398 106.866 16.5155C106.866 15.7381 107.056 15.1056 107.439 14.6184C107.821 14.1313 108.3 13.7458 108.876 13.4638C109.453 13.1818 110.076 12.9875 110.748 12.8814L112.595 12.6757L113.144 12.6528H113.647V12.2355C113.647 11.6481 113.487 11.2308 113.168 10.9831C112.848 10.7354 112.33 10.6116 111.613 10.6116C110.943 10.6116 110.347 10.7196 109.826 10.9323C109.301 11.1474 108.79 11.3923 108.294 11.6659C108.076 11.4055 107.899 11.1197 107.768 10.8059C107.636 10.4922 107.569 10.2597 107.569 10.1073C107.569 9.8933 107.69 9.68689 107.932 9.4881C108.174 9.28932 108.505 9.10958 108.926 8.94954C109.346 8.78949 109.83 8.6593 110.376 8.55959C110.947 8.45798 111.527 8.40802 112.107 8.41034C112.949 8.41034 113.661 8.49481 114.246 8.66247C114.831 8.83014 115.306 9.09053 115.672 9.44174C116.039 9.79295 116.3 10.2331 116.449 10.7602C116.598 11.2873 116.683 11.9034 116.683 12.6058V16.9162L116.688 16.9169ZM113.695 14.2571H113.368C113.258 14.2572 113.149 14.2648 113.041 14.2799L111.883 14.4171C111.494 14.4787 111.162 14.5854 110.866 14.7385C110.582 14.8817 110.334 15.0854 110.141 15.3348C109.953 15.5793 109.861 15.8937 109.861 16.2748C109.861 16.7028 109.985 17.0655 110.234 17.364C110.484 17.6625 110.905 17.8111 111.497 17.8111C111.793 17.8111 112.08 17.773 112.339 17.6968C112.598 17.6206 112.838 17.5215 113.041 17.3983C113.244 17.2751 113.403 17.1423 113.52 16.9969C113.637 16.8514 113.695 16.7174 113.695 16.5955L113.694 14.2564L113.695 14.2571Z" fill="white"/>
<path fill-rule="evenodd" clip-rule="evenodd" d="M0 9.17466L16.9686 9.17783V2.94434L0 9.17466Z" fill="#F2994A"/>
<path opacity="0.51" fill-rule="evenodd" clip-rule="evenodd" d="M16.9688 2.94305V24.9505L24.9835 0L16.9688 2.94305Z" fill="#56CCF2"/>
<path fill-rule="evenodd" clip-rule="evenodd" d="M16.9711 9.17693L10.5547 9.17566L16.9711 24.9502V9.17693Z" fill="#2D9CDB"/>
<path fill-rule="evenodd" clip-rule="evenodd" d="M0 9.17395L12.198 13.2233L10.5529 9.17585L0 9.17395Z" fill="#EB5757"/>
</svg>
