<svg width="103" height="28" viewBox="0 0 103 28" fill="none" xmlns="http://www.w3.org/2000/svg">
<path fill-rule="evenodd" clip-rule="evenodd" d="M22.0232 6.04055C21.7343 6.34742 21.3944 6.6543 21.0375 6.99347L19.6268 8.26942H23.7228V9.85224H17.1284V9.02853L19.4229 6.39588C19.8478 5.9921 20.2047 5.63677 20.4596 5.3299C20.7146 5.03918 21.0205 4.68385 21.1564 4.45774C21.3264 4.19932 22.1932 3.40791 22.1082 2.42268C21.7343 1.3244 20.6636 1.22749 20.0347 1.30825C19.3889 1.3244 18.641 2.14811 18.5221 2.85876C18.5221 2.85876 17.3493 2.69725 17.0944 2.58419C17.1114 2.27732 17.6723 0.936769 18.76 0.339174C19.2869 0.113057 19.6268 0 20.2387 0C20.7146 0 21.1395 0.0646034 21.5304 0.177662C21.9213 0.29072 22.2442 0.468383 22.5161 0.6945C22.7881 0.920617 23.247 1.19519 23.3829 1.53437C23.6039 1.97045 23.7738 2.42268 23.7738 2.87491C23.8248 3.87629 22.924 4.86151 22.7541 5.11993C22.5501 5.44295 22.3122 5.74983 22.0232 6.04055ZM14.375 27.0694C6.55689 27.0694 0.234375 21.045 0.234375 13.6316C0.234375 6.20206 6.57388 0.193814 14.375 0.193814V4.94227C9.32723 4.94227 5.2312 8.83471 5.2312 13.6316C5.2312 18.4285 9.32723 22.3371 14.375 22.3371C18.3861 22.3371 21.7853 19.8821 23.026 16.4742C20.5786 16.4742 17.1114 16.4581 17.1114 16.4581V11.4835C17.1114 11.4835 27.8019 11.4835 28.3458 11.4835C28.4647 12.178 28.5327 12.9048 28.5327 13.6316C28.5157 21.0612 22.1932 27.0694 14.375 27.0694ZM33.2746 2.58419H34.2264V23.7994H33.2746V2.58419ZM47.0923 19.8175C46.2765 20.2859 45.2568 20.5282 44.0671 20.5282C42.8263 20.5282 41.7896 20.3344 40.9908 19.9306C40.175 19.5268 39.6481 18.9777 39.3762 18.267C39.1212 17.5564 38.9852 16.4904 38.9852 15.0691V10.8213C38.9852 9.77148 39.0192 8.99622 39.1042 8.46323C39.1892 7.94639 39.4271 7.42956 39.835 6.94502C40.243 6.46048 40.7868 6.07285 41.5007 5.79828C42.2145 5.52371 43.0303 5.37835 43.9481 5.37835C45.2058 5.37835 46.2425 5.58832 47.0583 6.0244C47.8742 6.46048 48.401 6.99347 48.673 7.63952C48.9279 8.28557 48.9789 8.09176 48.9789 9.44846V10.579L45.5117 10.5306V9.54537C45.5117 8.80241 45.4267 8.33402 45.2398 8.14021C45.0528 7.96255 44.6619 7.86564 44.0671 7.86564C43.3702 7.86564 42.9453 7.9787 42.7584 8.20481C42.5714 8.43093 42.4864 8.91547 42.4864 9.65842V16.2966C42.4864 17.0072 42.5714 17.4756 42.7584 17.7017C42.9453 17.9278 43.3532 18.0248 44.0161 18.0248C44.6449 18.0248 45.0358 17.9117 45.2398 17.7017C45.4267 17.4756 45.5287 17.1849 45.5287 16.3773L45.5117 15.3275H48.9959V15.5536C48.9959 17.0557 48.9449 17.5402 48.707 18.154C48.435 18.7839 47.9081 19.3491 47.0923 19.8175ZM57.001 9.22234C57.001 8.77011 56.7631 8.23712 56.3042 8.09176C55.8453 7.9464 55.2504 7.88179 54.0267 7.88179V12.0003C55.2164 12.0003 55.8113 11.9357 56.2702 11.8227C56.7461 11.7096 56.984 10.6598 56.984 10.0138V9.22234H57.001ZM57.001 15.7313C57.001 14.956 56.831 14.4876 56.4911 14.2938C56.1512 14.1162 55.4884 14.0192 54.0437 14.0192V20.3021H50.6275L50.6785 5.70138H53.7548C55.8113 5.70138 57.205 5.76598 57.9358 5.91134C58.6666 6.0567 59.2615 6.39588 59.7204 6.96117C60.1793 7.52646 60.4172 8.43093 60.4172 9.67457C60.4172 10.8052 60.2132 11.8227 59.9073 12.2103C59.5844 12.5979 58.9555 12.8402 58.0208 12.921C58.8706 13.1148 59.4484 13.3571 59.7374 13.6639C60.0263 13.9708 60.2132 14.2615 60.2812 14.5199C60.3492 14.7784 60.4342 15.2144 60.4342 16.3935V20.2213L57.035 20.3021V15.7313H57.001ZM69.1701 9.44846C69.1701 8.77011 69.0512 8.35018 68.8302 8.15636C68.6093 7.96255 68.1334 7.88179 67.4365 7.88179C66.8417 7.88179 66.3828 7.96254 66.0599 8.1079C65.7369 8.25327 65.584 8.7055 65.584 9.44846V16.1997C65.584 17.0395 65.686 17.5564 65.8899 17.7502C66.0939 17.944 66.5867 18.0409 67.3346 18.0409C68.1164 18.0409 68.6093 17.9278 68.8302 17.7017C69.0512 17.4756 69.1531 16.9426 69.1531 16.0866V9.44846H69.1701ZM71.8385 18.9615C71.4136 19.4622 70.8187 19.8498 70.0879 20.1244C69.3571 20.399 68.4903 20.5282 67.5045 20.5282C66.5697 20.5282 65.7369 20.399 64.9891 20.1406C64.2413 19.8821 63.6464 19.5107 63.2045 18.9938C62.7457 18.4931 62.4907 17.9278 62.4057 17.3302C62.3207 16.7327 62.2698 15.6828 62.2698 14.1808V11.6935C62.2698 10.2399 62.3037 9.20619 62.3887 8.59244C62.4737 7.97869 62.7287 7.42956 63.1705 6.92887C63.6124 6.42818 64.1903 6.04055 64.9211 5.76598C65.652 5.49141 66.5188 5.3622 67.5045 5.3622C68.4393 5.3622 69.2721 5.49141 70.0199 5.74983C70.7678 6.00825 71.3626 6.37972 71.8045 6.89656C72.2464 7.39725 72.5183 7.96255 72.6033 8.56014C72.6883 9.15774 72.7393 10.2076 72.7393 11.6935V14.1969C72.7393 15.6505 72.7053 16.6842 72.6203 17.2979C72.5353 17.9117 72.2804 18.4608 71.8385 18.9615ZM84.5175 20.2213C84.0246 17.9924 82.8689 12.5172 82.478 9.65842C82.308 10.8859 80.9484 16.3612 80.3195 20.2213H76.5804L73.6741 5.68522H76.9543L77.8891 10.7567L78.5689 16.7811C78.7219 14.2454 80.0816 9.78763 80.7274 5.68522H84.5345C84.5855 6.10515 85.2314 7.70413 85.4863 10.4821L86.4381 16.6842C86.693 13.1632 87.5598 9.04467 88.1377 5.68522H91.18L88.0527 20.2213H84.5175ZM98.8791 9.88454C98.8791 9.23849 98.8281 8.81856 98.7262 8.62475C98.6242 8.44708 98.3693 8.30172 97.9784 8.22096C97.5874 8.14021 96.8736 8.09176 95.8029 8.09176V17.7986C97.2135 17.7986 98.0633 17.6856 98.4033 17.4756C98.7262 17.2656 98.8961 16.668 98.8961 15.699V9.88454H98.8791ZM101.989 18.5254C101.853 18.9615 101.599 19.3168 101.242 19.5591C100.885 19.8014 100.46 19.979 99.9329 20.076C99.423 20.1729 98.8791 20.2213 97.8254 20.2213H92.3357V5.68522H95.5989C97.7064 5.68522 98.8961 5.76598 99.627 5.94364C100.375 6.10515 100.936 6.37973 101.327 6.76736C101.717 7.15498 101.955 7.57492 102.057 8.0433C102.159 8.51169 102.193 9.43231 102.193 10.8052V15.8928C102.21 17.201 102.142 18.0732 101.989 18.5254Z" fill="white"/>
</svg>
