<svg width="118" height="50" viewBox="0 0 118 50" fill="none" xmlns="http://www.w3.org/2000/svg">
<g clip-path="url(#clip0_1_2165)">
<path d="M33.5415 22.5845L27.0193 16.0623C26.7938 15.8529 26.4556 15.8529 26.2463 16.0623L24.9579 17.3506L30.1918 22.5845C30.4012 22.7939 30.4012 23.1482 30.1918 23.3575L24.7969 28.7525L26.0852 30.0408C26.3107 30.2502 26.6489 30.2502 26.8582 30.0408L33.5254 23.3736C33.7509 23.1482 33.7509 22.81 33.5415 22.5845Z" fill="#009C9C"/>
<path d="M22.4268 16.5469L21.9598 16.0799C21.7343 15.8705 21.3961 15.8705 21.1868 16.0799L19.8984 17.3682L20.752 18.2217L22.4268 19.8966L24.1017 18.2217L22.4268 16.5469Z" fill="#40E3E3"/>
<path d="M22.2784 26.2402L20.6035 27.9151L19.75 28.7686L21.0383 30.0569C21.2638 30.2663 21.602 30.2663 21.8113 30.0569L22.2784 29.5899L23.9532 27.9151L22.2784 26.2402Z" fill="#40E3E3"/>
<path d="M25.148 22.5853C25.3574 22.8108 25.3574 23.149 25.148 23.3583L22.2815 26.2249L23.9563 27.8997L28.4977 23.3583C28.7071 23.149 28.7071 22.7947 28.4977 22.5853L24.1174 18.205L22.4264 19.8798L25.148 22.5853Z" fill="#1ABAB8"/>
<path d="M14.5028 22.7456L19.0442 18.2042L17.3694 16.5293L16.8863 16.0623C16.6608 15.8529 16.3226 15.8529 16.1133 16.0623L9.44608 22.7456C9.23672 22.9549 9.23672 23.3092 9.44608 23.5186L15.9683 30.0408C16.1938 30.2502 16.532 30.2502 16.7413 30.0408L17.2245 29.5738L18.8993 27.8989L14.5189 23.5186C14.2935 23.3092 14.2935 22.971 14.5028 22.7456Z" fill="#87F0F0"/>
<path d="M19.557 22.746L21.554 20.7491L19.8791 19.0742L19.0256 18.2207L14.5164 22.7621C14.307 22.9715 14.307 23.3258 14.5164 23.5351L18.8807 27.8994L19.7342 27.0459L21.409 25.371L19.557 23.519C19.3477 23.3258 19.3477 22.9715 19.557 22.746Z" fill="#40E3E3"/>
<path d="M19.559 23.5199L21.411 25.3719L23.4079 23.375C23.6173 23.1656 23.6173 22.8113 23.4079 22.602L21.5559 20.75L19.559 22.7469C19.3657 22.9724 19.3657 23.3106 19.559 23.5199Z" fill="#17CFCF"/>
<path d="M38.7666 21.2168C38.7827 20.476 38.9276 19.7513 39.2014 19.0588C39.4591 18.4307 39.8456 17.851 40.3287 17.3839C40.8601 16.9008 41.4882 16.5304 42.1646 16.305C42.9859 16.0312 43.8555 15.9024 44.7091 15.9185C45.6753 15.8862 46.6416 16.0312 47.5434 16.3533C48.1876 16.5948 48.7996 16.9491 49.3149 17.4162C49.7175 17.7704 50.0235 18.2053 50.2328 18.6884C50.3939 19.0427 50.4905 19.4131 50.5388 19.7996C50.5549 19.9445 50.5066 20.0895 50.3939 20.1861C50.2812 20.2827 50.1523 20.331 50.0074 20.331H48.4131C48.2842 20.331 48.1715 20.2988 48.0749 20.2183C47.9943 20.1539 47.9299 20.0734 47.8977 19.9928C47.8655 19.9445 47.8011 19.8318 47.6884 19.6547C47.5434 19.4453 47.3663 19.252 47.1569 19.1071C46.867 18.8977 46.545 18.7206 46.2068 18.5918C45.7397 18.4307 45.2244 18.3502 44.7252 18.3663C43.8716 18.318 43.0181 18.6079 42.3578 19.1554C41.762 19.703 41.4238 20.476 41.4077 21.2973C41.3755 21.7965 41.3755 22.328 41.3755 22.9077C41.3755 23.4714 41.3755 24.0189 41.4077 24.5181C41.4399 25.6132 41.762 26.4024 42.3578 26.8855C43.0342 27.4008 43.8716 27.6585 44.7091 27.6263C45.16 27.6263 45.6109 27.578 46.0457 27.4652C46.4322 27.3686 46.7865 27.1915 47.0925 26.9499C47.3985 26.7083 47.64 26.3862 47.785 26.0158C47.9621 25.5649 48.0427 25.0818 48.0266 24.5987V24.4376H45.627C45.4821 24.4376 45.3532 24.3893 45.2566 24.2766C45.16 24.18 45.0956 24.0511 45.0956 23.9062V22.5051C45.0956 22.2152 45.3371 21.9737 45.627 21.9737H50.1684C50.4583 21.9737 50.6999 22.2152 50.6999 22.5051V24.6631C50.716 25.4039 50.5871 26.1447 50.3295 26.8372C50.0879 27.4813 49.7014 28.0611 49.2022 28.5442C48.6707 29.0435 48.0266 29.43 47.3341 29.6715C45.6431 30.203 43.8233 30.203 42.1163 29.6715C41.4399 29.4461 40.8118 29.0757 40.2965 28.5925C39.8134 28.1094 39.4269 27.5297 39.1853 26.8855C38.9276 26.193 38.7827 25.4522 38.7666 24.7114C38.7666 24.4698 38.7505 24.18 38.7344 23.8901C38.7344 23.5841 38.7344 23.2781 38.7344 22.956C38.7344 22.6339 38.7344 22.328 38.7344 22.0381C38.7344 21.7321 38.7505 21.4744 38.7666 21.2168Z" fill="white"/>
<path d="M56.7776 21.828C56.4394 21.8119 56.1174 21.8763 55.7953 21.9891C55.5376 22.0857 55.3121 22.2306 55.1189 22.4239C54.9417 22.5849 54.7968 22.7943 54.7002 23.0197C54.6036 23.213 54.5391 23.4223 54.523 23.6317H58.9678C58.9356 23.4223 58.8873 23.213 58.8229 23.0197C58.7424 22.7943 58.6296 22.601 58.4686 22.4239C58.2914 22.2306 58.066 22.0857 57.8244 21.9891C57.4862 21.8602 57.1319 21.8119 56.7776 21.828ZM51.9624 24.7751C51.9624 24.0665 52.0752 23.374 52.3006 22.6976C52.51 22.0696 52.8321 21.4898 53.2669 20.9906C53.6856 20.5075 54.217 20.121 54.7968 19.8633C55.4249 19.5895 56.1012 19.4446 56.7776 19.4446C57.454 19.4285 58.1304 19.5734 58.7585 19.8472C59.3382 20.1048 59.8697 20.4752 60.3045 20.9423C60.7232 21.4093 61.0614 21.9407 61.2868 22.5366C61.5123 23.1486 61.6411 23.7927 61.625 24.453V25.3387C61.625 25.6286 61.3835 25.8702 61.0936 25.8702H54.523C54.523 26.144 54.5874 26.4177 54.7002 26.6593C54.829 26.8848 54.9901 27.078 55.1994 27.2229C55.4249 27.384 55.6664 27.4967 55.9241 27.5772C56.1979 27.6578 56.4878 27.69 56.7776 27.69C57.1158 27.7061 57.4701 27.6578 57.8083 27.5611C58.0338 27.4967 58.2592 27.384 58.4525 27.239C58.5652 27.1585 58.6779 27.078 58.8068 27.0136C58.9195 26.9653 59.0483 26.9492 59.1772 26.9492H60.7554C60.9003 26.9492 61.0453 27.0136 61.1419 27.1102C61.2546 27.2068 61.3029 27.3357 61.2868 27.4806C61.2385 27.7383 61.1419 27.9799 60.9809 28.1892C60.7554 28.5274 60.4655 28.8173 60.1273 29.0427C59.6925 29.3487 59.2094 29.5903 58.7101 29.7513C58.0821 29.9607 57.4218 30.0573 56.7776 30.0412C56.1012 30.0412 55.4249 29.9124 54.7968 29.6547C54.217 29.4131 53.6856 29.0427 53.2669 28.5757C52.8321 28.0765 52.51 27.5128 52.3006 26.8848C52.0591 26.2245 51.9463 25.4998 51.9624 24.7751Z" fill="white"/>
<path d="M66.3423 26.1925C66.3262 26.5468 66.4389 26.9011 66.6644 27.1588C66.8737 27.4003 67.2763 27.5292 67.8722 27.5292H69.0639C69.3538 27.5292 69.5953 27.7707 69.5953 28.0606V29.3651C69.5953 29.6549 69.3538 29.8965 69.0639 29.8965H67.5984C66.3584 29.8965 65.4243 29.5905 64.764 28.9947C64.1038 28.3988 63.7817 27.4809 63.7656 26.2569V22.0215H62.4611C62.3162 22.0215 62.1874 21.9732 62.0907 21.8605C61.9941 21.7638 61.9297 21.635 61.9297 21.4901V20.1856C61.9297 20.0407 61.978 19.9118 62.0907 19.8152C62.1874 19.7186 62.3162 19.6542 62.4611 19.6542H63.7656V16.4494C63.7656 16.1595 64.0071 15.918 64.297 15.918H65.7947C66.0846 15.918 66.3262 16.1595 66.3262 16.4494V19.6542H68.8706C69.1605 19.6703 69.3699 19.8957 69.386 20.1856V21.4901C69.386 21.7799 69.1444 22.0215 68.8545 22.0215H66.3101L66.3423 26.1925Z" fill="white"/>
<path d="M79.2788 24.7588L77.1047 19.1546L74.9467 24.7588H79.2788ZM78.1837 16.1108C78.3608 16.0947 78.5219 16.1592 78.6507 16.2719C78.7795 16.4168 78.8761 16.594 78.9406 16.7711L83.7557 29.2197C83.7719 29.2681 83.7719 29.3164 83.7719 29.3486C83.7719 29.6385 83.5303 29.88 83.2404 29.88H81.8232C81.63 29.8961 81.4206 29.8478 81.2757 29.719C81.1791 29.6223 81.1146 29.5096 81.0663 29.3969L80.2128 27.2067H73.9966L73.143 29.3969C73.0947 29.5257 73.0142 29.6223 72.9337 29.719C72.7726 29.8478 72.5794 29.9122 72.3861 29.88H70.9689C70.6791 29.88 70.4375 29.6385 70.4375 29.3486C70.4375 29.3003 70.4375 29.2519 70.4536 29.2197L75.2688 16.7711C75.3332 16.594 75.4298 16.4168 75.5587 16.2719C75.6875 16.1592 75.8646 16.0947 76.0257 16.1108H78.1837Z" fill="white"/>
<path d="M92.2029 25.3231C92.2351 24.9527 92.2351 24.5823 92.2029 24.228C92.1224 23.3745 91.8647 22.7626 91.4138 22.3922C90.9629 22.0057 90.3831 21.8124 89.7873 21.8285C89.1914 21.8124 88.6117 22.0057 88.1608 22.3922C87.6937 22.8109 87.4361 23.4067 87.4039 24.0187C87.3716 24.2603 87.3555 24.5179 87.3716 24.7595C87.3716 25.0172 87.3877 25.2587 87.4039 25.5003C87.4361 26.1122 87.7098 26.692 88.1608 27.1107C88.6117 27.5133 89.1914 27.7227 89.7873 27.7066C90.3831 27.7227 90.9629 27.5133 91.4138 27.1429C91.8647 26.7725 92.1224 26.1606 92.2029 25.3231ZM90.3831 30.09C90.0127 30.09 89.6424 30.0578 89.2881 29.9773C88.9982 29.9129 88.7083 29.8162 88.4345 29.6874C88.2252 29.5747 88.0158 29.4458 87.8226 29.2848C87.6776 29.1721 87.5327 29.0432 87.4039 28.8983V33.0854C87.4039 33.3753 87.1623 33.6168 86.8724 33.6168H85.3908C85.1009 33.6168 84.8594 33.3753 84.8594 33.0854V20.1859C84.8594 19.896 85.1009 19.6544 85.3908 19.6544H86.8885C87.1784 19.6544 87.42 19.896 87.42 20.1859V20.6368C87.5488 20.4918 87.6776 20.363 87.8387 20.2503C88.0319 20.1053 88.2413 19.9765 88.4667 19.8638C88.7405 19.7349 89.0304 19.6383 89.3203 19.5739C89.6746 19.4934 90.045 19.4612 90.4154 19.4612C91.0273 19.4451 91.6393 19.59 92.2029 19.8477C92.7183 20.0892 93.1853 20.4435 93.5557 20.8784C93.9422 21.3132 94.2321 21.8124 94.4414 22.3599C94.6508 22.9236 94.7796 23.5034 94.8118 24.0992C94.8279 24.2925 94.8279 24.5179 94.8279 24.7917C94.8279 25.0655 94.8279 25.2909 94.8118 25.4842C94.7796 26.08 94.6669 26.6759 94.4414 27.2234C94.2321 27.771 93.9422 28.2702 93.5557 28.705C93.1853 29.1399 92.7183 29.478 92.2029 29.7357C91.6071 29.9773 90.9951 30.1061 90.3831 30.09Z" fill="white"/>
<path d="M103.337 25.3233C103.369 24.9529 103.369 24.5825 103.337 24.2282C103.256 23.3746 102.999 22.7627 102.548 22.3923C102.097 22.0058 101.517 21.8125 100.921 21.8286C100.325 21.8125 99.7454 22.0058 99.2945 22.3923C98.8275 22.811 98.5698 23.4068 98.5376 24.0188C98.5054 24.2604 98.4893 24.518 98.5054 24.7596C98.5054 25.0173 98.5215 25.2588 98.5376 25.5004C98.5698 26.1124 98.8436 26.6921 99.2945 27.1108C99.7454 27.5134 100.325 27.7228 100.921 27.7067C101.517 27.7228 102.097 27.5134 102.548 27.143C102.999 26.7726 103.256 26.1607 103.337 25.3233ZM101.501 30.074C101.13 30.074 100.76 30.0418 100.406 29.9613C100.116 29.8969 99.826 29.8003 99.5522 29.6714C99.3267 29.5587 99.1174 29.4299 98.9402 29.2849C98.7953 29.1722 98.6504 29.0434 98.5215 28.8984V33.0855C98.5215 33.2305 98.4571 33.3593 98.3605 33.4559C98.2639 33.5526 98.135 33.617 97.9901 33.617H96.4924C96.2025 33.617 95.9609 33.3754 95.9609 33.0855V20.186C95.9609 19.8961 96.2025 19.6546 96.4924 19.6546H97.9901C98.28 19.6546 98.5215 19.8961 98.5215 20.186V20.6369C98.6504 20.492 98.7953 20.3631 98.9402 20.2504C99.1335 20.1055 99.3428 19.9766 99.5522 19.8639C99.826 19.7351 100.116 19.6384 100.406 19.574C100.76 19.4935 101.13 19.4613 101.501 19.4613C102.113 19.4452 102.725 19.5901 103.288 19.8478C103.804 20.0894 104.271 20.4437 104.641 20.8785C105.028 21.3133 105.318 21.8125 105.527 22.3601C105.736 22.9237 105.865 23.5035 105.897 24.0993C105.913 24.2926 105.913 24.518 105.913 24.7918C105.913 25.0656 105.913 25.2911 105.897 25.4843C105.865 26.0802 105.752 26.676 105.527 27.2236C105.318 27.7711 105.028 28.2703 104.641 28.7052C104.255 29.14 103.804 29.4782 103.288 29.7358C102.725 29.9935 102.113 30.1223 101.501 30.1223" fill="white"/>
</g>
<defs>
<clipPath id="clip0_1_2165">
<rect width="117.986" height="49.3616" fill="white"/>
</clipPath>
</defs>
</svg>
