<svg width="166" height="37" viewBox="0 0 166 37" fill="none" xmlns="http://www.w3.org/2000/svg">
<path d="M18.7289 0.541552L25.6641 2.67401C32.0347 4.63289 35.5943 11.3312 33.6148 17.6351L28.5019 36.8572L9.40519 30.2328C3.03458 28.2739 -0.525071 21.5756 1.45451 15.2717L3.60952 8.40908C5.58906 2.1051 12.3583 -1.41731 18.7289 0.541552Z" fill="url(#paint0_linear_1_2121)"/>
<path fill-rule="evenodd" clip-rule="evenodd" d="M14.3478 12.3782C14.0128 12.5695 13.8979 12.9934 14.0914 13.3249L16.8283 18.0152C16.8554 18.0616 16.9153 18.0775 16.9623 18.0507C17.0271 18.0136 17.1083 18.0607 17.1094 18.1349C17.11 18.1892 17.1552 18.2334 17.2101 18.2327L20.6576 18.1874C21.0445 18.1822 21.354 17.8679 21.3488 17.4851C21.3437 17.1023 21.0259 16.7962 20.6391 16.8013L19.3904 16.8178C18.3835 16.831 17.4479 16.3047 16.9443 15.4417L15.3047 12.6318C15.1112 12.3003 14.6828 12.1867 14.3478 12.3782Z" fill="white"/>
<path fill-rule="evenodd" clip-rule="evenodd" d="M20.8208 7.74957C20.9305 7.19346 21.5152 6.86054 22.0325 7.10339C23.8374 7.95104 25.4097 9.33082 26.4842 11.1724C29.3009 16.0001 27.6294 22.1732 22.7507 24.9604C17.872 27.7477 11.6335 26.0936 8.81678 21.266C6.00003 16.4383 7.67161 10.2652 12.5504 7.47788C13.9567 6.67442 15.476 6.24002 16.9937 6.14434C17.5673 6.10811 17.986 6.63566 17.8758 7.19393C17.7891 7.63422 17.3964 7.94467 16.9446 7.98221C15.758 8.08108 14.5741 8.43365 13.4746 9.06185C9.4799 11.344 8.11127 16.3985 10.4175 20.3515C12.7238 24.3044 17.8319 25.6587 21.8265 23.3765C25.8212 21.0943 27.1898 16.0398 24.8835 12.0869C24.0338 10.6306 22.8037 9.52696 21.3893 8.82798C20.9821 8.62679 20.7337 8.19155 20.8208 7.74957Z" fill="white"/>
<path d="M20.8276 18.1702L20.8231 17.8262L20.8276 18.1702ZM20.8091 16.7841L20.8136 17.1281L20.8091 16.7841ZM15.4747 12.6146L15.1735 12.7866L15.4747 12.6146ZM14.5625 13.1357C14.4651 12.9687 14.5229 12.7552 14.6917 12.6589L14.3439 12.063C13.8425 12.3493 13.6707 12.9836 13.9602 13.4797L14.5625 13.1357ZM17.2994 17.826L14.5625 13.1357L13.9602 13.4797L16.697 18.17L17.2994 17.826ZM20.8231 17.8262L17.3754 17.8715L17.3847 18.5595L20.8323 18.5142L20.8231 17.8262ZM21.1711 17.4725C21.1737 17.6652 21.0179 17.8235 20.8231 17.8262L20.8323 18.5142C21.4112 18.5066 21.8742 18.0361 21.8665 17.4633L21.1711 17.4725ZM20.8136 17.1281C21.0084 17.1256 21.1685 17.2797 21.1711 17.4725L21.8665 17.4633C21.8588 16.8906 21.3833 16.4325 20.8045 16.4401L20.8136 17.1281ZM19.5651 17.1446L20.8136 17.1281L20.8045 16.4401L19.5559 16.4565L19.5651 17.1446ZM15.1735 12.7866L16.8131 15.5965L17.4154 15.2525L15.7758 12.4426L15.1735 12.7866ZM14.6917 12.6589C14.8603 12.5625 15.0761 12.6197 15.1735 12.7866L15.7758 12.4426C15.4863 11.9465 14.8452 11.7765 14.3439 12.063L14.6917 12.6589ZM16.9316 18.1222C16.9349 18.3627 17.1339 18.5629 17.3847 18.5595L17.3754 17.8715C17.5164 17.8696 17.6252 17.9812 17.627 18.1131L16.9316 18.1222ZM19.5559 16.4565C18.6747 16.468 17.856 16.0076 17.4154 15.2525L16.8131 15.5965C17.3796 16.5674 18.4322 17.1595 19.5651 17.1446L19.5559 16.4565ZM17.306 18.3315C17.1336 18.43 16.934 18.3025 16.9316 18.1222L17.627 18.1131C17.6226 17.7845 17.2605 17.5629 16.9583 17.7355L17.306 18.3315ZM16.697 18.17C16.8202 18.381 17.0929 18.4533 17.306 18.3315L16.9583 17.7355C17.0777 17.6673 17.2304 17.7078 17.2994 17.826L16.697 18.17Z" fill="white"/>
<path d="M26.8856 11.4019C25.7626 9.47717 24.1183 8.0341 22.2311 7.14788L21.8335 7.9769C23.5561 8.78588 25.0565 10.1024 26.0825 11.8608L26.8856 11.4019ZM22.9823 25.8167C28.0828 22.9028 29.8303 16.449 26.8856 11.4019L26.0825 11.8608C28.7712 16.469 27.1756 22.3616 22.5187 25.0221L22.9823 25.8167ZM8.41504 21.9543C11.3598 27.0014 17.8818 28.7307 22.9823 25.8167L22.5187 25.0221C17.8617 27.6827 11.9068 26.1038 9.21809 21.4956L8.41504 21.9543ZM12.3183 7.5395C7.21783 10.4535 5.47027 16.9072 8.41504 21.9543L9.21809 21.4956C6.52944 16.8873 8.12505 10.9948 12.782 8.33416L12.3183 7.5395ZM16.964 6.14539C15.3766 6.24547 13.7878 6.7 12.3183 7.5395L12.782 8.33416C14.1251 7.56684 15.5749 7.15247 17.023 7.0611L16.964 6.14539ZM13.7062 9.91813C14.7455 9.32448 15.8633 8.99166 16.9833 8.89841L16.9056 7.98401C15.6524 8.08831 14.4024 8.46083 13.2426 9.12347L13.7062 9.91813ZM10.8189 20.581C8.64059 16.8476 9.93326 12.0737 13.7062 9.91813L13.2426 9.12347C9.02613 11.5324 7.58142 16.8675 10.0158 21.0398L10.8189 20.581ZM21.5944 23.4381C17.8215 25.5936 12.9971 24.3144 10.8189 20.581L10.0158 21.0398C12.4502 25.2121 17.8417 26.6416 22.0581 24.2328L21.5944 23.4381ZM24.4818 12.7753C26.6601 16.5087 25.3673 21.2826 21.5944 23.4381L22.0581 24.2328C26.2746 21.8239 27.7192 16.4888 25.2848 12.3165L24.4818 12.7753ZM21.1819 9.69737C22.5177 10.3574 23.6789 11.3992 24.4818 12.7753L25.2848 12.3165C24.3883 10.7798 23.0896 9.61442 21.5962 8.8765L21.1819 9.69737ZM17.023 7.0611C17.2573 7.04631 17.4797 7.26557 17.4207 7.56506L18.3307 7.74079C18.4919 6.92366 17.8771 6.08782 16.964 6.14539L17.023 7.0611ZM21.5962 8.8765C21.352 8.75573 21.2333 8.51166 21.2757 8.29643L20.3655 8.1207C20.2337 8.78943 20.6119 9.41566 21.1819 9.69737L21.5962 8.8765ZM17.4207 7.56506C17.3783 7.77955 17.1769 7.96145 16.9056 7.98401L16.9833 8.89841C17.6155 8.84579 18.1994 8.40671 18.3307 7.74079L17.4207 7.56506ZM22.2311 7.14788C21.4082 6.76142 20.5262 7.30629 20.3655 8.1207L21.2757 8.29643C21.3344 7.99862 21.622 7.87757 21.8335 7.9769L22.2311 7.14788Z" fill="white"/>
<path d="M51.2472 28.2084C50.7147 28.2084 50.2963 28.0659 49.9919 27.7808C49.6876 27.4766 49.4784 27.0014 49.3642 26.3551L45.9691 8.25H48.0518L51.1616 25.4713H51.1902L56.2115 9.30501H57.096C57.4383 9.30501 57.7141 9.40956 57.9234 9.61865C58.1326 9.80874 58.3038 10.1128 58.4369 10.531L62.8877 25.4713H62.9162L66.026 8.25H68.1088L64.7136 26.3551C64.5995 27.0014 64.3902 27.4766 64.0859 27.7808C63.7817 28.0659 63.3632 28.2084 62.8306 28.2084H61.9747L57.1246 12.1277H57.096L52.1032 28.2084H51.2472ZM74.9451 28.4365C73.3474 28.4365 72.0636 27.9708 71.0935 27.0394C70.1235 26.0891 69.6385 24.8345 69.6385 23.2758V19.1986C69.6385 17.564 70.1235 16.2524 71.0935 15.264C72.0636 14.2566 73.3474 13.7529 74.9451 13.7529H77.2847C78.8063 13.7529 80.0331 14.2376 80.9651 15.207C81.897 16.1763 82.3631 17.4594 82.3631 19.0561V21.5651H71.6926V23.2758C71.6926 24.2643 71.9874 25.0721 72.5771 25.6994C73.1858 26.3076 73.9751 26.6118 74.9451 26.6118H77.1134C78.0644 26.6118 78.8348 26.3551 79.4244 25.842C80.0141 25.3097 80.3089 24.6064 80.3089 23.732H82.306C82.306 25.1387 81.8305 26.2791 80.8795 27.1535C79.9285 28.0089 78.6731 28.4365 77.1134 28.4365H74.9451ZM80.3089 19.7974V19.0561C80.3089 18.0106 80.0331 17.1743 79.4815 16.5471C78.9299 15.9008 78.1976 15.5776 77.2847 15.5776H74.9451C73.9751 15.5776 73.1858 15.9102 72.5771 16.5755C71.9874 17.2408 71.6926 18.1152 71.6926 19.1986V19.7974H80.3089ZM91.5719 28.4365C90.9435 28.4365 90.2785 28.2464 89.5743 27.8662C88.8706 27.4672 88.3285 26.9729 87.9481 26.3837V28.2084H85.951V8.25H88.0052V15.6632C88.4237 15.0739 88.9562 14.6082 89.6029 14.266C90.2682 13.924 90.9529 13.7529 91.6572 13.7529H93.6829C94.6532 13.7529 95.5083 13.981 96.2501 14.4371C97.0115 14.8743 97.6006 15.5016 98.0192 16.319C98.4566 17.1173 98.6758 18.0392 98.6758 19.0846V22.7627C98.6758 23.8841 98.4566 24.8725 98.0192 25.7279C97.6006 26.5832 97.0021 27.2485 96.222 27.7237C95.4615 28.1989 94.5764 28.4365 93.5687 28.4365H91.5719ZM93.5116 26.6118C94.4247 26.6118 95.1665 26.2601 95.7368 25.5568C96.3269 24.8345 96.6209 23.9031 96.6209 22.7627V19.0846C96.6209 18.0392 96.3362 17.1933 95.7659 16.5471C95.2142 15.9008 94.5006 15.5776 93.6258 15.5776H91.7143C90.7253 15.5776 89.8786 15.9388 89.1749 16.6611C88.4712 17.3833 88.0813 18.3338 88.0052 19.5123V22.9908C88.0432 23.656 88.2335 24.2643 88.5758 24.8155C88.9182 25.3668 89.3556 25.804 89.888 26.1271C90.4209 26.4502 90.9819 26.6118 91.5719 26.6118H93.5116Z" fill="white"/>
<path d="M107.688 28.2065C107.144 28.2065 106.716 28.0641 106.405 27.7792C106.094 27.4754 105.88 27.0006 105.764 26.355L102.227 8.25033H104.344L107.601 25.472H107.63L112.122 9.32168H113.667C114.017 9.32168 114.299 9.42612 114.512 9.63501C114.727 9.82491 114.902 10.1287 115.038 10.5465L119.588 25.472H119.616L122.792 8.25033H124.91L121.455 26.355C121.338 27.0006 121.123 27.4754 120.812 27.7792C120.502 28.0641 120.074 28.2065 119.529 28.2065H118.473L113.697 12.1416H113.667L108.563 28.2065H107.688ZM131.913 28.4343C130.28 28.4343 128.967 27.9406 127.976 26.9531C126.985 25.9657 126.489 24.6649 126.489 23.0509V19.1486C126.489 17.5345 126.985 16.2337 127.976 15.2463C128.987 14.2588 129.815 13.7651 131.972 13.7651H134.363C136.016 13.7651 137.338 14.2588 138.33 15.2463C139.341 16.2337 139.846 17.5345 139.846 19.1486V23.0509C139.846 24.6649 139.341 25.9657 138.33 26.9531C137.319 27.9406 135.978 28.4343 134.305 28.4343H131.913ZM133.444 26.1427C134.956 26.1427 135.561 25.9899 136.166 25.0732C136.788 24.4086 137.376 24.3033 137.376 23.2399L137.224 18.8094C136.62 17.8927 136.468 17.5871 136.015 16.976C135.306 16.0214 134.503 16.0594 133.444 16.0594H131.629C130.618 16.0594 129.681 16.1586 129.059 16.8232C128.436 17.4689 128.303 18.0852 128.303 19.1486V23.0509C128.303 24.1333 128.456 24.8095 129.059 25.4552C129.661 26.1008 130.618 26.1427 131.629 26.1427H133.444ZM143.706 13.9656H144.937V16.2121C145.325 15.5475 146.72 14.9804 147.497 14.5627C148.046 14.0559 147.139 13.9031 150.012 13.9031L151.137 13.9207V15.9066H149.927C148.415 15.9066 147.061 15.9066 146.146 16.8232C145.388 17.5829 144.937 18.6566 144.937 20.0316V28.1891H143.706V13.9656ZM163.901 28.2065L157.639 20.9482L155.219 23.0509V28.2065H154.072V8.23242H155.219V20.9482L163.377 13.993H164.746L158.546 20.3371L165.2 28.2065H163.901Z" fill="white"/>
<path d="M106.638 28.1908C106.106 28.1908 105.688 28.0483 105.383 27.7632C105.079 27.459 104.869 26.9838 104.756 26.3376L101.361 8.23242H103.443L106.553 25.4537H106.581L111.596 9.31925H112.503C112.846 9.31925 113.105 9.39198 113.314 9.60107C113.524 9.79116 113.695 10.0953 113.828 10.5134L117.795 25.6247L118.703 25.4537L121.878 8.23242H123.5L120.105 26.3376C119.991 26.9838 119.781 27.459 119.477 27.7632C119.173 28.0483 118.755 28.1908 118.222 28.1908H117.366L112.516 12.1101H112.487L107.494 28.1908H106.638ZM130.336 28.4189C128.738 28.4189 127.454 27.9248 126.485 26.9363C125.515 25.9479 125.03 24.6458 125.03 23.0302V19.1241C125.03 17.5084 125.515 16.2063 126.485 15.2179C127.474 14.2295 128.73 13.7498 130.347 13.7498H132.733C134.349 13.7498 135.643 14.2295 136.613 15.2179C137.602 16.2063 138.097 17.5084 138.097 19.1241V23.0302C138.097 24.6458 137.602 25.9479 136.613 26.9363C135.624 27.9248 134.312 28.4189 132.676 28.4189H130.336ZM132.676 26.5942C133.703 26.5942 135.03 26.271 135.639 25.6247C136.248 24.9595 136.395 24.0946 136.395 23.0302V19.1241C136.395 18.0596 136.248 17.2042 135.639 16.5579C135.034 15.7359 133.722 15.56 132.733 15.56H130.393C129.404 15.56 128.605 15.8927 127.997 16.5579C127.388 17.2042 127.084 18.0596 127.084 19.1241V23.0302C127.084 24.1136 127.379 24.9785 127.969 25.6247C128.558 26.271 129.347 26.5942 130.336 26.5942H132.676ZM141.872 13.9634H143.869V16.1588C144.249 15.4935 144.82 14.9517 145.581 14.5337C146.361 14.1155 147.169 13.9064 148.005 13.9064H149.261V15.7597H148.005C146.789 15.7597 145.799 16.1493 145.038 16.9286C144.297 17.689 143.926 18.7059 143.926 19.9794V28.1908H141.872V13.9634ZM161.628 28.1908L156.036 21.462L154.068 23.4294V28.1908H152.013V8.23242H154.068V20.9203L161.114 13.9634H163.625L157.463 20.065L164.081 28.1908H161.628Z" fill="white"/>
<defs>
<linearGradient id="paint0_linear_1_2121" x1="61.9993" y1="-45.0693" x2="9.23779" y2="72.0138" gradientUnits="userSpaceOnUse">
<stop stop-color="#63F4FD"/>
<stop offset="0.67619" stop-color="#8274FE"/>
<stop offset="0.875084" stop-color="#7C2BFF"/>
</linearGradient>
</defs>
</svg>
