<svg width="40" height="40" viewBox="0 0 40 40" fill="none" xmlns="http://www.w3.org/2000/svg">
<path d="M29.245 20.8349C29.7609 20.8349 30.1793 20.4166 30.1793 19.9007C30.1793 19.3848 29.7609 18.9665 29.245 18.9665C28.7291 18.9665 28.3108 19.3848 28.3108 19.9007C28.3108 20.4166 28.7291 20.8349 29.245 20.8349Z" fill="#C54EFD" stroke="#C54EFD" stroke-width="1.6875" stroke-linecap="round" stroke-linejoin="round"/>
<path d="M19.9045 20.8349C20.4203 20.8349 20.8387 20.4166 20.8387 19.9007C20.8387 19.3848 20.4203 18.9665 19.9045 18.9665C19.3886 18.9665 18.9702 19.3848 18.9702 19.9007C18.9702 20.4166 19.3886 20.8349 19.9045 20.8349Z" fill="#C54EFD" stroke="#C54EFD" stroke-width="1.6875" stroke-linecap="round" stroke-linejoin="round"/>
<path d="M10.5606 20.8349C11.0765 20.8349 11.4948 20.4166 11.4948 19.9007C11.4948 19.3848 11.0765 18.9665 10.5606 18.9665C10.0446 18.9665 9.62634 19.3848 9.62634 19.9007C9.62634 20.4166 10.0446 20.8349 10.5606 20.8349Z" fill="#C54EFD" stroke="#C54EFD" stroke-width="1.6875" stroke-linecap="round" stroke-linejoin="round"/>
<path d="M19.9033 38.5868C30.2225 38.5868 38.5881 30.2212 38.5881 19.902C38.5881 9.58268 30.2225 1.21722 19.9033 1.21722C9.58396 1.21722 1.21851 9.58268 1.21851 19.902C1.21851 23.3053 2.1284 26.4961 3.71819 29.2444L2.15274 37.6525L10.5609 36.0871C13.3092 37.6768 16.5 38.5868 19.9033 38.5868Z" stroke="#C54EFD" stroke-width="1.6875" stroke-linecap="round" stroke-linejoin="round"/>
</svg>
