<svg width="151" height="109" viewBox="0 0 151 109" fill="none" xmlns="http://www.w3.org/2000/svg">
<g filter="url(#filter0_d_1_2214)">
<path d="M26.622 36.518L31.068 12.026C31.185 11.207 30.639 10.505 29.781 10.505H20.031C19.173 10.505 18.354 11.207 18.198 12.026L17.457 16.16C17.301 17.018 17.886 17.681 18.744 17.681H20.85C21.357 17.681 21.708 18.11 21.591 18.617L18.354 36.479C18.237 37.337 18.783 38 19.641 38H24.828C25.647 38 26.466 37.337 26.622 36.518ZM60.4865 27.86C60.5255 27.509 60.5255 27.158 60.4865 26.807C60.4865 26.456 60.4085 26.105 60.3305 25.793C60.0185 24.584 59.4725 23.96 59.2385 23.765C60.2915 22.79 61.0325 21.542 61.3055 20.138C61.3055 20.099 61.3055 20.021 61.3445 19.943L61.5005 19.046L61.7735 17.447C62.4365 13.664 59.9405 10.622 56.1575 10.622H42.6245C38.8415 10.622 35.2535 13.664 34.5905 17.447L34.3175 19.046L34.1615 19.943C34.1615 20.021 34.1225 20.06 34.1225 20.138C33.8885 21.542 34.2005 22.79 34.9025 23.765C34.5905 23.96 33.8495 24.584 33.1475 25.754C32.9525 26.066 32.7575 26.339 32.6405 26.651C32.4455 27.08 32.3285 27.47 32.2115 27.899C32.0945 28.289 31.9775 28.679 31.8995 29.108C31.8995 29.147 31.8995 29.186 31.8995 29.225L31.7825 29.888L31.5875 30.902C31.5095 31.526 31.4705 32.111 31.5095 32.657C31.7435 35.738 34.1615 38 37.4765 38H51.6335C55.2605 38 58.7315 35.309 59.7845 31.838C59.9015 31.526 59.9795 31.214 60.0185 30.902L60.1745 30.122L60.3305 29.108C60.4085 28.679 60.4475 28.25 60.4865 27.86ZM52.0235 29.537C51.8675 30.278 51.1655 30.902 50.3855 30.902H41.2205C40.4795 30.902 39.9725 30.278 40.0895 29.537L40.2455 28.796C40.3625 28.055 41.0645 27.431 41.8445 27.431H51.0095C51.7505 27.431 52.2575 28.055 52.1405 28.796L52.0235 29.537ZM42.5855 18.812C42.7415 18.071 43.4435 17.447 44.2235 17.447H52.1405C52.9205 17.447 53.4275 18.032 53.2715 18.812L53.1545 19.553C52.9985 20.333 52.2965 20.918 51.5555 20.918H43.5995C42.8585 20.918 42.3515 20.333 42.4685 19.553L42.5855 18.812ZM68.1817 22.79H75.1237C76.9177 22.79 78.6337 21.347 78.9457 19.592L79.9987 13.781C80.1547 12.923 79.9597 12.143 79.4527 11.519C78.9457 10.934 78.1657 10.583 77.3077 10.583H70.3657C68.5717 10.583 66.8557 12.026 66.5437 13.781L65.4907 19.553C65.3347 20.411 65.5297 21.23 66.0367 21.815C66.5437 22.439 67.2847 22.79 68.1817 22.79ZM70.2097 14.171C70.2487 13.937 70.4437 13.781 70.6387 13.781H75.8647C75.9817 13.781 76.0597 13.82 76.0987 13.898C76.1767 13.976 76.1767 14.054 76.1767 14.132L75.2797 19.163C75.2407 19.358 75.0457 19.514 74.8117 19.514H69.5857C69.5077 19.514 69.4297 19.475 69.3517 19.397C69.3127 19.358 69.2737 19.28 69.3127 19.163L70.2097 14.171ZM90.6067 25.832H83.6647C81.8707 25.832 80.1547 27.275 79.8427 29.03L78.7897 34.802C78.6337 35.66 78.8287 36.479 79.3357 37.064C79.8427 37.688 80.5837 38 81.4807 38H88.4227C90.2167 38 91.9327 36.596 92.2447 34.841L93.2977 29.03C93.4537 28.172 93.2587 27.353 92.7517 26.768C92.2447 26.144 91.4647 25.832 90.6067 25.832ZM88.5787 34.412C88.5397 34.607 88.3447 34.763 88.1107 34.763H82.8847C82.8067 34.763 82.7287 34.724 82.6507 34.685C82.6117 34.607 82.5727 34.529 82.6117 34.412L83.5087 29.381C83.5477 29.186 83.7427 29.03 83.9377 29.03H89.1637C89.2807 29.03 89.3587 29.069 89.3977 29.147C89.4757 29.186 89.4757 29.303 89.4757 29.381L88.5787 34.412ZM94.4287 10.778C94.3897 10.661 94.2727 10.583 94.1557 10.583H91.1137C90.4507 10.583 89.7877 10.856 89.3197 11.324L64.2427 37.532C64.1257 37.61 64.1257 37.727 64.1647 37.844C64.2037 37.961 64.3207 38 64.4377 38H67.4797C68.1427 38 68.8057 37.727 69.2737 37.259L94.3897 11.09C94.4677 11.012 94.4677 10.856 94.4287 10.778ZM113.544 20.801H109.878L110.58 16.979C110.736 16.16 110.19 15.536 109.41 15.536H105.081C104.262 15.536 103.521 16.16 103.365 16.979L102.702 20.801H99.0365C98.2565 20.801 97.4765 21.425 97.3595 22.244L96.5795 26.573C96.4625 27.353 96.9695 27.977 97.7495 27.977H101.415L100.752 31.799C100.596 32.618 101.142 33.242 101.922 33.242H106.251C107.031 33.242 107.811 32.618 107.928 31.799L108.63 27.977H112.296C113.076 27.977 113.856 27.353 113.973 26.573L114.753 22.244C114.87 21.425 114.363 20.801 113.544 20.801ZM45.25 69.1H30.4C29.75 69.1 29.3 68.6 29.4 67.95L29.7 66.3C29.85 65.65 30.45 65.1 31.1 65.1H52.15C53.25 65.1 54.3 64.25 54.45 63.15L55.45 57.85C55.65 56.8 54.9 55.9 53.8 55.9H52.75L24.8 55.95C22.95 55.95 21.15 57.5 20.8 59.35L18.05 74.95C17.8 76.35 18.75 77.5 20.2 77.5L41.7 77.55C42.4 77.55 42.8 78.05 42.7 78.7L42.3 80.9C42.2 81.55 41.55 82.1 40.9 82.1H17.8C16.7 82.1 15.65 82.95 15.45 84.05L14.55 89.05C14.35 90.15 15.1 91 16.2 91H41.25C46.4 91 51.35 86.9 52.25 81.85L52.9 78.25C53.8 73.2 50.4 69.1 45.25 69.1ZM87.125 55.8H71.025C65.875 55.8 60.975 59.9 60.075 64.95L56.975 81.85C56.075 86.9 59.525 91 64.675 91H80.725C85.875 91 90.825 86.9 91.725 81.85L94.775 64.95C95.725 59.9 92.275 55.8 87.125 55.8ZM81.325 80.65C81.175 81.3 80.575 81.85 79.925 81.85H68.825C68.175 81.85 67.725 81.3 67.825 80.65L70.475 66.05C70.625 65.4 71.225 64.85 71.875 64.85H82.975C83.625 64.85 84.075 65.4 83.975 66.05L81.325 80.65ZM102.42 71.5H111.32C113.62 71.5 115.82 69.65 116.22 67.4L117.57 59.95C117.77 58.85 117.52 57.85 116.87 57.05C116.22 56.3 115.22 55.85 114.12 55.85H105.22C102.92 55.85 100.72 57.7 100.32 59.95L98.9699 67.35C98.7699 68.45 99.0199 69.5 99.6699 70.25C100.32 71.05 101.27 71.5 102.42 71.5ZM105.02 60.45C105.07 60.15 105.32 59.95 105.57 59.95H112.27C112.42 59.95 112.52 60 112.57 60.1C112.67 60.2 112.67 60.3 112.67 60.4L111.52 66.85C111.47 67.1 111.22 67.3 110.92 67.3H104.22C104.12 67.3 104.02 67.25 103.92 67.15C103.87 67.1 103.82 67 103.87 66.85L105.02 60.45ZM131.17 75.4H122.27C119.97 75.4 117.77 77.25 117.37 79.5L116.02 86.9C115.82 88 116.07 89.05 116.72 89.8C117.37 90.6 118.32 91 119.47 91H128.37C130.67 91 132.87 89.2 133.27 86.95L134.62 79.5C134.82 78.4 134.57 77.35 133.92 76.6C133.27 75.8 132.27 75.4 131.17 75.4ZM128.57 86.4C128.52 86.65 128.27 86.85 127.97 86.85H121.27C121.17 86.85 121.07 86.8 120.97 86.75C120.92 86.65 120.87 86.55 120.92 86.4L122.07 79.95C122.12 79.7 122.37 79.5 122.62 79.5H129.32C129.47 79.5 129.57 79.55 129.62 79.65C129.72 79.7 129.72 79.85 129.72 79.95L128.57 86.4ZM136.07 56.1C136.02 55.95 135.87 55.85 135.72 55.85H131.82C130.97 55.85 130.12 56.2 129.52 56.8L97.3699 90.4C97.2199 90.5 97.2199 90.65 97.2699 90.8C97.3199 90.95 97.4699 91 97.6199 91H101.52C102.37 91 103.22 90.65 103.82 90.05L136.02 56.5C136.12 56.4 136.12 56.2 136.07 56.1Z" fill="white"/>
</g>
<defs>
<filter id="filter0_d_1_2214" x="0.349976" y="0.505005" width="149.77" height="108.495" filterUnits="userSpaceOnUse" color-interpolation-filters="sRGB">
<feFlood flood-opacity="0" result="BackgroundImageFix"/>
<feColorMatrix in="SourceAlpha" type="matrix" values="0 0 0 0 0 0 0 0 0 0 0 0 0 0 0 0 0 0 127 0" result="hardAlpha"/>
<feOffset dy="4"/>
<feGaussianBlur stdDeviation="7"/>
<feComposite in2="hardAlpha" operator="out"/>
<feColorMatrix type="matrix" values="0 0 0 0 0 0 0 0 0 0 0 0 0 0 0 0 0 0 0.25 0"/>
<feBlend mode="normal" in2="BackgroundImageFix" result="effect1_dropShadow_1_2214"/>
<feBlend mode="normal" in="SourceGraphic" in2="effect1_dropShadow_1_2214" result="shape"/>
</filter>
</defs>
</svg>
