<svg width="151" height="64" viewBox="0 0 151 64" fill="none" xmlns="http://www.w3.org/2000/svg">
<g filter="url(#filter0_d_1_2249)">
<path d="M45.25 24.1H30.4C29.75 24.1 29.3 23.6 29.4 22.95L29.7 21.3C29.85 20.65 30.45 20.1 31.1 20.1H52.15C53.25 20.1 54.3 19.25 54.45 18.15L55.45 12.85C55.65 11.8 54.9 10.9 53.8 10.9H52.75L24.8 10.95C22.95 10.95 21.15 12.5 20.8 14.35L18.05 29.95C17.8 31.35 18.75 32.5 20.2 32.5L41.7 32.55C42.4 32.55 42.8 33.05 42.7 33.7L42.3 35.9C42.2 36.55 41.55 37.1 40.9 37.1H17.8C16.7 37.1 15.65 37.95 15.45 39.05L14.55 44.05C14.35 45.15 15.1 46 16.2 46H41.25C46.4 46 51.35 41.9 52.25 36.85L52.9 33.25C53.8 28.2 50.4 24.1 45.25 24.1ZM87.125 10.8H71.025C65.875 10.8 60.975 14.9 60.075 19.95L56.975 36.85C56.075 41.9 59.525 46 64.675 46H80.725C85.875 46 90.825 41.9 91.725 36.85L94.775 19.95C95.725 14.9 92.275 10.8 87.125 10.8ZM81.325 35.65C81.175 36.3 80.575 36.85 79.925 36.85H68.825C68.175 36.85 67.725 36.3 67.825 35.65L70.475 21.05C70.625 20.4 71.225 19.85 71.875 19.85H82.975C83.625 19.85 84.075 20.4 83.975 21.05L81.325 35.65ZM102.42 26.5H111.32C113.62 26.5 115.82 24.65 116.22 22.4L117.57 14.95C117.77 13.85 117.52 12.85 116.87 12.05C116.22 11.3 115.22 10.85 114.12 10.85H105.22C102.92 10.85 100.72 12.7 100.32 14.95L98.9699 22.35C98.7699 23.45 99.0199 24.5 99.6699 25.25C100.32 26.05 101.27 26.5 102.42 26.5ZM105.02 15.45C105.07 15.15 105.32 14.95 105.57 14.95H112.27C112.42 14.95 112.52 15 112.57 15.1C112.67 15.2 112.67 15.3 112.67 15.4L111.52 21.85C111.47 22.1 111.22 22.3 110.92 22.3H104.22C104.12 22.3 104.02 22.25 103.92 22.15C103.87 22.1 103.82 22 103.87 21.85L105.02 15.45ZM131.17 30.4H122.27C119.97 30.4 117.77 32.25 117.37 34.5L116.02 41.9C115.82 43 116.07 44.05 116.72 44.8C117.37 45.6 118.32 46 119.47 46H128.37C130.67 46 132.87 44.2 133.27 41.95L134.62 34.5C134.82 33.4 134.57 32.35 133.92 31.6C133.27 30.8 132.27 30.4 131.17 30.4ZM128.57 41.4C128.52 41.65 128.27 41.85 127.97 41.85H121.27C121.17 41.85 121.07 41.8 120.97 41.75C120.92 41.65 120.87 41.55 120.92 41.4L122.07 34.95C122.12 34.7 122.37 34.5 122.62 34.5H129.32C129.47 34.5 129.57 34.55 129.62 34.65C129.72 34.7 129.72 34.85 129.72 34.95L128.57 41.4ZM136.07 11.1C136.02 10.95 135.87 10.85 135.72 10.85H131.82C130.97 10.85 130.12 11.2 129.52 11.8L97.3699 45.4C97.2199 45.5 97.2199 45.65 97.2699 45.8C97.3199 45.95 97.4699 46 97.6199 46H101.52C102.37 46 103.22 45.65 103.82 45.05L136.02 11.5C136.12 11.4 136.12 11.2 136.07 11.1Z" fill="white"/>
</g>
<defs>
<filter id="filter0_d_1_2249" x="0.350006" y="0.800049" width="149.77" height="63.2" filterUnits="userSpaceOnUse" color-interpolation-filters="sRGB">
<feFlood flood-opacity="0" result="BackgroundImageFix"/>
<feColorMatrix in="SourceAlpha" type="matrix" values="0 0 0 0 0 0 0 0 0 0 0 0 0 0 0 0 0 0 127 0" result="hardAlpha"/>
<feOffset dy="4"/>
<feGaussianBlur stdDeviation="7"/>
<feComposite in2="hardAlpha" operator="out"/>
<feColorMatrix type="matrix" values="0 0 0 0 0 0 0 0 0 0 0 0 0 0 0 0 0 0 0.25 0"/>
<feBlend mode="normal" in2="BackgroundImageFix" result="effect1_dropShadow_1_2249"/>
<feBlend mode="normal" in="SourceGraphic" in2="effect1_dropShadow_1_2249" result="shape"/>
</filter>
</defs>
</svg>
