<svg width="46" height="46" viewBox="0 0 46 46" fill="none" xmlns="http://www.w3.org/2000/svg">
<path d="M40.1188 30.231C38.9363 33.0274 37.0868 35.4915 34.732 37.408C32.3772 39.3245 29.5888 40.6349 26.6106 41.2248C23.6323 41.8147 20.5549 41.666 17.6474 40.7917C14.7399 39.9175 12.0908 38.3444 9.93173 36.2098C7.77266 34.0752 6.16935 31.4443 5.26197 28.5469C4.35459 25.6496 4.17078 22.5741 4.7266 19.5893C5.28241 16.6045 6.56094 13.8013 8.4504 11.4248C10.3399 9.04826 12.7827 7.17077 15.5654 5.95645" stroke="#1DC5F8" stroke-width="2.34783" stroke-linecap="round" stroke-linejoin="round"/>
<path d="M41.5784 23.0009C41.5784 20.5601 41.0977 18.1431 40.1636 15.888C39.2295 13.6329 37.8604 11.5839 36.1344 9.85796C34.4085 8.13201 32.3595 6.7629 30.1044 5.82882C27.8493 4.89474 25.4323 4.41397 22.9915 4.41397V23.0009H41.5784Z" stroke="#1DC5F8" stroke-width="2.34783" stroke-linecap="round" stroke-linejoin="round"/>
</svg>
