<svg width="52" height="20" viewBox="0 0 52 20" fill="none" xmlns="http://www.w3.org/2000/svg">
<rect width="51.815" height="19.654" rx="2.68009" fill="#FDC600"/>
<path fill-rule="evenodd" clip-rule="evenodd" d="M7.25715 12.8164L5.07336 13.9425C4.87042 14.0472 4.6194 13.9706 4.51264 13.7695C4.47012 13.6902 4.45547 13.5994 4.47095 13.5112L4.89006 11.1262L3.12538 9.43727C2.96127 9.28023 2.95774 9.02261 3.11788 8.86146C3.18158 8.79731 3.26509 8.75557 3.35545 8.74271L5.79732 8.39662L6.88921 6.22706C6.99068 6.02546 7.24215 5.94261 7.44508 6.04211C7.527 6.08171 7.5933 6.14673 7.63368 6.22706L8.72558 8.39662L11.1674 8.74271C11.2442 8.75348 11.3163 8.78514 11.3756 8.83408C11.435 8.88302 11.4791 8.94729 11.5031 9.0196C11.527 9.0919 11.5298 9.16934 11.5112 9.24313C11.4925 9.31692 11.4531 9.3841 11.3975 9.43705L9.63284 11.126L10.0519 13.511C10.0612 13.5637 10.0598 13.6177 10.0478 13.6698C10.0358 13.722 10.0133 13.7713 9.98186 13.815C9.95036 13.8586 9.9104 13.8958 9.86425 13.9243C9.8181 13.9528 9.76667 13.972 9.71291 13.981C9.62291 13.9962 9.53027 13.9819 9.44953 13.9378L7.26575 12.8117L7.25715 12.8164ZM16.9 12.8164L14.7158 13.9425C14.5128 14.0472 14.2618 13.9706 14.155 13.7695C14.1125 13.6902 14.0979 13.5994 14.1133 13.5112L14.5325 11.1262L12.7678 9.43727C12.6037 9.28023 12.6001 9.02261 12.7603 8.86146C12.824 8.79731 12.9075 8.75557 12.9979 8.74271L15.4397 8.39662L16.5316 6.22706C16.6331 6.02546 16.8845 5.94261 17.0875 6.04211C17.1694 6.08171 17.2357 6.14673 17.2761 6.22706L18.368 8.39662L20.8098 8.74271C20.8866 8.75348 20.9587 8.78514 21.018 8.83408C21.0774 8.88302 21.1215 8.94729 21.1455 9.0196C21.1694 9.0919 21.1722 9.16934 21.1536 9.24313C21.1349 9.31692 21.0955 9.3841 21.0399 9.43705L19.2752 11.126L19.6943 13.511C19.7036 13.5637 19.7022 13.6177 19.6902 13.6698C19.6782 13.722 19.6557 13.7713 19.6243 13.815C19.5928 13.8586 19.5528 13.8958 19.5067 13.9243C19.4605 13.9528 19.4091 13.972 19.3553 13.981C19.2653 13.9962 19.1727 13.9819 19.0919 13.9378L16.9082 12.8117L16.9 12.8164ZM26.5444 12.8164L24.3601 13.9425C24.1572 14.0472 23.9062 13.9706 23.7994 13.7695C23.7569 13.6902 23.7423 13.5994 23.7577 13.5112L24.1768 11.1262L22.4122 9.43727C22.3565 9.38433 22.317 9.31713 22.2983 9.24331C22.2796 9.16949 22.2824 9.092 22.3064 9.01966C22.3304 8.94732 22.3745 8.88301 22.4339 8.83406C22.4933 8.7851 22.5654 8.75345 22.6422 8.74271L25.0841 8.39662L26.176 6.22706C26.2775 6.02546 26.5289 5.94261 26.7319 6.04211C26.8137 6.08185 26.88 6.14682 26.9205 6.22706L28.0124 8.39662L30.4542 8.74271C30.6814 8.77515 30.838 8.98173 30.8054 9.20409C30.7923 9.2927 30.7497 9.37459 30.6843 9.43705L28.9196 11.126L29.3387 13.511C29.3773 13.7327 29.2256 13.9432 28.9995 13.981C28.9095 13.9962 28.8171 13.9819 28.7361 13.9378L26.5523 12.8117L26.5444 12.8164ZM36.1872 12.8164L34.0034 13.9425C33.955 13.9674 33.9021 13.9827 33.8477 13.9875C33.7933 13.9922 33.7384 13.9864 33.6863 13.9703C33.6341 13.9543 33.5858 13.9282 33.5439 13.8938C33.5021 13.8593 33.4676 13.8171 33.4425 13.7695C33.4001 13.6903 33.3851 13.5995 33.3984 13.5112L33.8175 11.1262L32.0528 9.43727C31.9971 9.38433 31.9577 9.31713 31.939 9.24331C31.9203 9.16949 31.9231 9.092 31.947 9.01966C31.971 8.94732 32.0152 8.88301 32.0745 8.83406C32.1339 8.7851 32.2061 8.75345 32.2829 8.74271L34.7247 8.39662L35.8166 6.22706C35.9181 6.02546 36.1696 5.94261 36.3725 6.04211C36.4543 6.08185 36.5206 6.14682 36.5611 6.22706L37.653 8.39662L40.0949 8.74271C40.1488 8.75034 40.2008 8.76833 40.2476 8.79566C40.2945 8.82299 40.3354 8.85911 40.368 8.90197C40.4007 8.94483 40.4243 8.99357 40.4377 9.04541C40.4511 9.09726 40.4539 9.15118 40.446 9.20409C40.4328 9.29061 40.3904 9.37454 40.3247 9.43705L38.56 11.126L38.9792 13.511C38.9924 13.5859 38.984 13.663 38.9549 13.7334C38.9258 13.8039 38.8771 13.865 38.8143 13.9096C38.7516 13.9543 38.6773 13.9809 38.6 13.9863C38.5226 13.9917 38.4453 13.9757 38.3767 13.9401L36.1925 12.814L36.1872 12.8164ZM47.1194 8.0462V13.4803L45.8312 12.8162L43.6474 13.9423C43.5788 13.9779 43.5015 13.9939 43.4241 13.9886C43.3467 13.9832 43.2724 13.9567 43.2096 13.912C43.1468 13.8673 43.0981 13.8062 43.069 13.7357C43.0398 13.6652 43.0314 13.5881 43.0447 13.5131L43.4639 11.1281L41.6992 9.43922C41.6435 9.38627 41.604 9.31907 41.5854 9.24525C41.5667 9.17143 41.5694 9.09395 41.5934 9.02161C41.6174 8.94926 41.6615 8.88496 41.7209 8.836C41.7803 8.78705 41.8525 8.7554 41.9292 8.74466L44.3711 8.39856L45.463 6.229C45.5645 6.02741 45.8159 5.94456 46.0189 6.04406C46.1008 6.08366 46.1671 6.14867 46.2075 6.229L47.1229 8.04598L47.1194 8.0462Z" fill="white"/>
<path d="M43.6076 13.8583L45.8371 12.7089L48.0665 13.8583C48.119 13.8855 48.1782 13.8977 48.2374 13.8936C48.2966 13.8894 48.3534 13.8691 48.4014 13.8349C48.4495 13.8007 48.4867 13.754 48.5091 13.7C48.5314 13.6461 48.5379 13.5871 48.5277 13.5298L48.102 11.0955L49.9055 9.37148C49.9556 9.3239 49.9882 9.26117 49.9982 9.19303C50.0233 9.02258 49.9029 8.86424 49.729 8.8398L47.2364 8.48463L46.1216 6.26964L46.0228 6.31723L46.1216 6.26964C46.0954 6.21744 46.0548 6.17348 46.0045 6.14274C45.9541 6.112 45.8959 6.0957 45.8366 6.0957C45.7773 6.0957 45.7191 6.112 45.6688 6.14274C45.6184 6.17348 45.5778 6.21744 45.5516 6.26964L44.4368 8.48463L41.9442 8.8398C41.8855 8.84811 41.8303 8.87238 41.7849 8.90987C41.7395 8.94736 41.7057 8.99657 41.6874 9.05191C41.6691 9.10726 41.6669 9.16653 41.6812 9.22302C41.6955 9.2795 41.7256 9.33093 41.7682 9.37148L41.8449 9.29426L41.7682 9.37148L43.5717 11.0955L43.1459 13.5298C43.134 13.5973 43.1453 13.6669 43.1779 13.7275C43.1973 13.7637 43.2238 13.7959 43.2559 13.8221C43.288 13.8483 43.325 13.868 43.3649 13.8802C43.4047 13.8923 43.4467 13.8967 43.4882 13.8929C43.5298 13.8892 43.5702 13.8774 43.6072 13.8583H43.6076Z" fill="white"/>
</svg>
